{"glyphs":{"0":{"ha":919,"x_min":69,"x_max":850,"o":"m 460 -21 q 250 40 338 -21 q 116 215 163 101 q 69 485 69 329 q 115 754 69 640 q 249 930 161 868 q 460 992 336 992 q 671 930 583 992 q 804 754 758 868 q 850 485 850 640 q 803 215 850 329 q 669 40 757 101 q 460 -21 582 -21 m 460 71 q 612 122 547 71 q 712 266 676 172 q 747 485 747 360 q 713 703 747 610 q 614 847 679 796 q 460 899 549 899 q 306 847 371 899 q 206 703 240 796 q 172 485 172 610 q 208 266 172 360 q 308 122 243 172 q 460 71 372 71 z "},"1":{"ha":490,"x_min":69,"x_max":393,"o":"m 285 853 l 69 697 l 69 804 l 296 971 l 393 971 l 393 0 l 285 0 l 285 853 z "},"2":{"ha":803,"x_min":69,"x_max":733,"o":"m 69 72 l 297 300 l 364 364 q 488 490 444 442 q 558 592 531 538 q 586 710 586 647 q 533 849 586 800 q 374 899 479 899 q 117 804 243 899 l 117 910 q 389 992 231 992 q 613 915 532 992 q 694 710 694 838 q 664 580 694 643 q 580 453 633 517 q 435 299 526 390 l 229 92 l 733 92 l 733 0 l 69 0 l 69 72 z "},"3":{"ha":790,"x_min":69,"x_max":721,"o":"m 357 -21 q 201 -8 276 -21 q 69 29 125 4 l 69 128 q 346 72 193 72 q 613 265 613 72 q 542 404 613 361 q 332 447 471 447 l 225 447 l 225 539 l 329 539 q 512 587 442 539 q 582 724 582 635 q 364 899 582 899 q 226 881 288 899 q 97 821 164 863 l 97 918 q 375 992 217 992 q 610 920 529 992 q 690 724 690 849 q 510 494 690 554 q 666 417 611 476 q 721 265 721 357 q 633 57 721 135 q 357 -21 546 -21 z "},"4":{"ha":824,"x_min":42,"x_max":782,"o":"m 524 247 l 42 247 l 42 325 l 517 971 l 632 971 l 632 339 l 782 339 l 782 247 l 632 247 l 632 0 l 524 0 l 524 247 m 532 339 l 532 838 l 169 339 l 532 339 z "},"5":{"ha":782,"x_min":69,"x_max":713,"o":"m 333 -21 q 190 -6 260 -21 q 69 36 119 10 l 69 140 q 194 90 124 108 q 331 72 265 72 q 534 133 464 72 q 604 306 604 193 q 350 521 604 521 q 241 511 297 521 q 143 485 185 501 l 90 515 l 126 971 l 642 971 l 642 879 l 224 879 l 201 600 q 381 619 283 619 q 558 580 483 619 q 673 469 633 540 q 713 306 713 399 q 618 65 713 150 q 333 -21 524 -21 z "},"6":{"ha":833,"x_min":69,"x_max":764,"o":"m 422 -21 q 242 25 322 -21 q 116 163 163 71 q 69 385 69 254 q 183 836 69 681 q 518 992 297 992 q 640 978 589 992 l 640 882 q 526 899 590 899 q 280 800 363 899 q 183 500 197 701 q 292 589 221 558 q 449 619 363 619 q 613 581 542 619 q 724 469 685 542 q 764 303 764 397 q 722 135 764 208 q 603 21 681 63 q 422 -21 526 -21 m 422 71 q 592 134 528 71 q 656 303 656 197 q 592 467 656 408 q 422 526 529 526 q 253 465 321 526 q 186 299 186 404 q 216 185 186 238 q 299 102 246 133 q 422 71 353 71 z "},"7":{"ha":758,"x_min":56,"x_max":703,"o":"m 593 879 l 56 879 l 56 971 l 703 971 l 703 885 l 304 0 l 199 0 l 593 879 z "},"8":{"ha":822,"x_min":69,"x_max":753,"o":"m 411 -21 q 161 52 253 -21 q 69 261 69 125 q 122 423 69 358 q 261 508 175 488 q 147 592 189 532 q 104 732 104 651 q 188 922 104 851 q 411 992 272 992 q 634 922 550 992 q 718 732 718 851 q 676 592 718 651 q 561 508 633 532 q 700 423 647 488 q 753 261 753 358 q 661 52 753 125 q 411 -21 569 -21 m 411 546 q 555 594 500 546 q 610 722 610 643 q 556 855 610 804 q 411 906 501 906 q 267 855 321 906 q 213 722 213 804 q 267 594 213 643 q 411 546 322 546 m 411 60 q 583 115 522 60 q 644 269 644 171 q 580 417 644 363 q 411 472 515 472 q 242 417 307 472 q 178 269 178 363 q 239 115 178 171 q 411 60 300 60 z "},"9":{"ha":833,"x_min":69,"x_max":764,"o":"m 315 -21 q 193 -7 244 -21 l 193 89 q 307 72 243 72 q 554 171 471 72 q 651 469 638 269 q 543 381 614 411 q 385 351 472 351 q 220 390 292 351 q 109 501 149 429 q 69 668 69 574 q 111 835 69 763 q 230 950 153 908 q 411 992 307 992 q 667 889 571 992 q 764 586 764 786 q 650 135 764 290 q 315 -21 536 -21 m 411 444 q 580 506 513 444 q 647 672 647 567 q 617 785 647 733 q 534 869 588 838 q 411 900 481 900 q 242 837 306 900 q 178 668 178 774 q 241 503 178 563 q 411 444 304 444 z "},"\r":{"ha":361,"x_min":0,"x_max":0,"o":""}," ":{"ha":528,"x_min":0,"x_max":0,"o":""},"A":{"ha":1015,"x_min":69,"x_max":946,"o":"m 457 971 l 558 971 l 946 0 l 835 0 l 731 260 l 283 260 l 181 0 l 69 0 l 457 971 m 700 351 l 507 846 l 315 351 l 700 351 z "},"Á":{"ha":1015,"x_min":69,"x_max":946,"o":"m 561 1267 l 674 1267 l 563 1031 l 467 1031 l 561 1267 m 457 971 l 558 971 l 946 0 l 835 0 l 731 260 l 283 260 l 181 0 l 69 0 l 457 971 m 700 351 l 507 846 l 315 351 l 700 351 z "},"Ă":{"ha":1015,"x_min":69,"x_max":946,"o":"m 508 1031 q 367 1081 419 1031 q 314 1211 314 1132 l 397 1211 q 427 1134 397 1163 q 508 1106 457 1106 q 590 1134 560 1106 q 619 1211 619 1163 l 701 1211 q 649 1081 701 1132 q 508 1031 596 1031 m 457 971 l 558 971 l 946 0 l 835 0 l 731 260 l 283 260 l 181 0 l 69 0 l 457 971 m 700 351 l 507 846 l 315 351 l 700 351 z "},"Ắ":{"ha":1015,"x_min":69,"x_max":946,"o":"m 532 1358 l 621 1358 l 533 1188 l 458 1188 l 532 1358 m 507 1031 q 369 1081 421 1031 q 317 1208 317 1131 l 397 1208 q 426 1132 397 1160 q 507 1104 456 1104 q 588 1132 558 1104 q 617 1208 617 1160 l 697 1208 q 645 1081 697 1131 q 507 1031 593 1031 m 457 971 l 558 971 l 946 0 l 835 0 l 731 260 l 283 260 l 181 0 l 69 0 l 457 971 m 700 351 l 507 846 l 315 351 l 700 351 z "},"Ặ":{"ha":1015,"x_min":69,"x_max":946,"o":"m 508 1031 q 367 1081 419 1031 q 314 1211 314 1132 l 397 1211 q 427 1134 397 1163 q 508 1106 457 1106 q 590 1134 560 1106 q 619 1211 619 1163 l 701 1211 q 649 1081 701 1132 q 508 1031 596 1031 m 457 971 l 558 971 l 946 0 l 835 0 l 731 260 l 283 260 l 181 0 l 69 0 l 457 971 m 700 351 l 507 846 l 315 351 l 700 351 m 508 -211 q 460 -191 481 -211 q 439 -143 439 -171 q 460 -95 439 -115 q 508 -75 481 -75 q 556 -95 536 -75 q 576 -143 576 -115 q 556 -191 576 -171 q 508 -211 536 -211 z "},"Ằ":{"ha":1015,"x_min":69,"x_max":946,"o":"m 393 1358 l 483 1358 l 557 1188 l 482 1188 l 393 1358 m 507 1031 q 369 1081 421 1031 q 317 1208 317 1131 l 397 1208 q 426 1132 397 1160 q 507 1104 456 1104 q 588 1132 558 1104 q 617 1208 617 1160 l 697 1208 q 645 1081 697 1131 q 507 1031 593 1031 m 457 971 l 558 971 l 946 0 l 835 0 l 731 260 l 283 260 l 181 0 l 69 0 l 457 971 m 700 351 l 507 846 l 315 351 l 700 351 z "},"Ẳ":{"ha":1015,"x_min":69,"x_max":946,"o":"m 468 1239 q 554 1289 554 1239 q 493 1335 554 1335 q 431 1324 453 1335 l 431 1374 q 514 1386 465 1386 q 601 1362 571 1386 q 631 1294 631 1338 q 606 1235 631 1260 q 538 1204 581 1210 l 538 1169 l 468 1169 l 468 1239 m 507 1031 q 369 1081 421 1031 q 317 1208 317 1131 l 396 1208 q 426 1131 396 1160 q 507 1103 456 1103 q 588 1131 558 1103 q 618 1208 618 1160 l 697 1208 q 645 1081 697 1131 q 507 1031 593 1031 m 457 971 l 558 971 l 946 0 l 835 0 l 731 260 l 283 260 l 181 0 l 69 0 l 457 971 m 700 351 l 507 846 l 315 351 l 700 351 z "},"Ẵ":{"ha":1015,"x_min":69,"x_max":946,"o":"m 282 1315 q 397 1367 317 1367 q 450 1359 425 1367 q 511 1336 475 1351 q 567 1313 543 1321 q 618 1306 592 1306 q 733 1369 689 1306 l 733 1285 q 618 1235 701 1235 q 560 1243 588 1235 q 500 1267 533 1251 q 444 1288 465 1281 q 397 1294 422 1294 q 335 1281 364 1294 q 282 1231 307 1267 l 282 1315 m 515 1031 q 377 1081 429 1031 q 325 1208 325 1131 l 404 1208 q 434 1131 404 1160 q 515 1103 464 1103 q 597 1131 567 1103 q 626 1208 626 1160 l 706 1208 q 653 1081 706 1131 q 515 1031 601 1031 m 457 971 l 558 971 l 946 0 l 835 0 l 731 260 l 283 260 l 181 0 l 69 0 l 457 971 m 700 351 l 507 846 l 315 351 l 700 351 z "},"Ǎ":{"ha":1015,"x_min":69,"x_max":946,"o":"m 271 1254 l 381 1254 l 508 1096 l 636 1254 l 744 1254 l 554 1031 l 461 1031 l 271 1254 m 457 971 l 558 971 l 946 0 l 835 0 l 731 260 l 283 260 l 181 0 l 69 0 l 457 971 m 700 351 l 507 846 l 315 351 l 700 351 z "},"Â":{"ha":1015,"x_min":69,"x_max":946,"o":"m 461 1254 l 554 1254 l 744 1031 l 636 1031 l 508 1189 l 381 1031 l 271 1031 l 461 1254 m 457 971 l 558 971 l 946 0 l 835 0 l 731 260 l 283 260 l 181 0 l 69 0 l 457 971 m 700 351 l 507 846 l 315 351 l 700 351 z "},"Ấ":{"ha":1015,"x_min":69,"x_max":946,"o":"m 719 1340 l 808 1340 l 696 1174 l 621 1174 l 719 1340 m 454 1222 l 547 1222 l 738 1031 l 629 1031 l 501 1163 l 374 1031 l 264 1031 l 454 1222 m 457 971 l 558 971 l 946 0 l 835 0 l 731 260 l 283 260 l 181 0 l 69 0 l 457 971 m 700 351 l 507 846 l 315 351 l 700 351 z "},"Ậ":{"ha":1015,"x_min":69,"x_max":946,"o":"m 461 1254 l 554 1254 l 744 1031 l 636 1031 l 508 1189 l 381 1031 l 271 1031 l 461 1254 m 457 971 l 558 971 l 946 0 l 835 0 l 731 260 l 283 260 l 181 0 l 69 0 l 457 971 m 700 351 l 507 846 l 315 351 l 700 351 m 508 -211 q 460 -191 481 -211 q 439 -143 439 -171 q 460 -95 439 -115 q 508 -75 481 -75 q 556 -95 536 -75 q 576 -143 576 -115 q 556 -191 576 -171 q 508 -211 536 -211 z "},"Ầ":{"ha":1015,"x_min":69,"x_max":946,"o":"m 199 1340 l 288 1340 l 386 1174 l 311 1174 l 199 1340 m 460 1222 l 553 1222 l 743 1031 l 633 1031 l 506 1163 l 378 1031 l 269 1031 l 460 1222 m 457 971 l 558 971 l 946 0 l 835 0 l 731 260 l 283 260 l 181 0 l 69 0 l 457 971 m 700 351 l 507 846 l 315 351 l 700 351 z "},"Ẩ":{"ha":1015,"x_min":69,"x_max":946,"o":"m 636 1233 q 722 1283 722 1233 q 661 1329 722 1329 q 599 1318 621 1329 l 599 1368 q 682 1381 633 1381 q 769 1356 739 1381 q 799 1289 799 1332 q 774 1229 799 1254 q 706 1199 749 1204 l 706 1164 l 636 1164 l 636 1233 m 463 1222 l 556 1222 l 746 1031 l 636 1031 l 508 1163 l 381 1031 l 272 1031 l 463 1222 m 457 971 l 558 971 l 946 0 l 835 0 l 731 260 l 283 260 l 181 0 l 69 0 l 457 971 m 700 351 l 507 846 l 315 351 l 700 351 z "},"Ẫ":{"ha":1015,"x_min":69,"x_max":946,"o":"m 289 1310 q 404 1361 324 1361 q 457 1353 432 1361 q 518 1331 482 1346 q 574 1308 550 1315 q 625 1300 599 1300 q 740 1364 696 1300 l 740 1279 q 625 1229 708 1229 q 567 1238 594 1229 q 507 1261 540 1246 q 451 1282 472 1275 q 404 1289 429 1289 q 342 1275 371 1289 q 289 1225 314 1261 l 289 1310 m 461 1222 l 554 1222 l 744 1031 l 635 1031 l 507 1163 l 379 1031 l 271 1031 l 461 1222 m 457 971 l 558 971 l 946 0 l 835 0 l 731 260 l 283 260 l 181 0 l 69 0 l 457 971 m 700 351 l 507 846 l 315 351 l 700 351 z "},"Ä":{"ha":1015,"x_min":69,"x_max":946,"o":"m 357 1031 q 308 1051 329 1031 q 288 1099 288 1071 q 308 1147 288 1126 q 357 1167 329 1167 q 405 1147 385 1167 q 425 1099 425 1126 q 405 1051 425 1071 q 357 1031 385 1031 m 658 1031 q 610 1051 631 1031 q 589 1099 589 1071 q 610 1147 589 1126 q 658 1167 631 1167 q 706 1147 686 1167 q 726 1099 726 1126 q 706 1051 726 1071 q 658 1031 686 1031 m 457 971 l 558 971 l 946 0 l 835 0 l 731 260 l 283 260 l 181 0 l 69 0 l 457 971 m 700 351 l 507 846 l 315 351 l 700 351 z "},"Ạ":{"ha":1015,"x_min":69,"x_max":946,"o":"m 457 971 l 558 971 l 946 0 l 835 0 l 731 260 l 283 260 l 181 0 l 69 0 l 457 971 m 700 351 l 507 846 l 315 351 l 700 351 m 508 -211 q 460 -191 481 -211 q 439 -143 439 -171 q 460 -95 439 -115 q 508 -75 481 -75 q 556 -95 536 -75 q 576 -143 576 -115 q 556 -191 576 -171 q 508 -211 536 -211 z "},"À":{"ha":1015,"x_min":69,"x_max":946,"o":"m 343 1267 l 456 1267 l 550 1031 l 454 1031 l 343 1267 m 457 971 l 558 971 l 946 0 l 835 0 l 731 260 l 283 260 l 181 0 l 69 0 l 457 971 m 700 351 l 507 846 l 315 351 l 700 351 z "},"Ả":{"ha":1015,"x_min":69,"x_max":946,"o":"m 460 1125 q 558 1144 526 1125 q 589 1206 589 1163 q 565 1258 589 1242 q 492 1275 542 1275 q 446 1271 472 1275 q 408 1261 419 1267 l 408 1324 q 456 1335 426 1331 q 514 1339 486 1339 q 640 1304 597 1339 q 683 1210 683 1269 q 649 1122 683 1158 q 553 1079 615 1085 l 553 1031 l 460 1031 l 460 1125 m 457 971 l 558 971 l 946 0 l 835 0 l 731 260 l 283 260 l 181 0 l 69 0 l 457 971 m 700 351 l 507 846 l 315 351 l 700 351 z "},"Ā":{"ha":1015,"x_min":69,"x_max":946,"o":"m 299 1133 l 717 1133 l 717 1058 l 299 1058 l 299 1133 m 457 971 l 558 971 l 946 0 l 835 0 l 731 260 l 283 260 l 181 0 l 69 0 l 457 971 m 700 351 l 507 846 l 315 351 l 700 351 z "},"Ą":{"ha":1015,"x_min":69,"x_max":954,"o":"m 889 -221 q 954 -207 924 -221 l 954 -276 q 863 -292 919 -292 q 766 -260 804 -292 q 728 -171 728 -229 q 757 -75 728 -119 q 832 0 786 -31 l 835 0 l 731 260 l 283 260 l 181 0 l 69 0 l 457 971 l 558 971 l 946 0 l 932 0 q 850 -75 878 -37 q 822 -156 822 -112 q 838 -206 822 -190 q 889 -221 854 -221 m 700 351 l 507 846 l 315 351 l 700 351 z "},"Å":{"ha":1015,"x_min":69,"x_max":946,"o":"m 946 0 l 835 0 l 731 260 l 283 260 l 181 0 l 69 0 l 438 922 q 378 977 400 942 q 357 1056 357 1013 q 401 1161 357 1117 q 507 1206 444 1206 q 613 1161 568 1206 q 657 1056 657 1117 q 635 978 657 1014 q 578 924 614 943 l 946 0 m 507 1135 q 451 1111 474 1135 q 428 1056 428 1088 q 451 999 428 1024 q 507 975 475 975 q 563 999 539 975 q 586 1056 586 1024 q 563 1111 586 1088 q 507 1135 539 1135 m 700 351 l 507 846 l 315 351 l 700 351 z "},"Ǻ":{"ha":1015,"x_min":69,"x_max":946,"o":"m 553 1258 l 457 1258 l 551 1447 l 664 1447 l 553 1258 m 946 0 l 835 0 l 731 260 l 283 260 l 181 0 l 69 0 l 443 938 q 381 992 404 956 q 357 1074 357 1028 q 401 1179 357 1135 q 507 1224 444 1224 q 613 1179 568 1224 q 657 1074 657 1135 q 633 993 657 1029 q 571 939 610 957 l 946 0 m 507 1153 q 451 1129 474 1153 q 428 1074 428 1106 q 451 1017 428 1042 q 507 993 475 993 q 563 1017 539 993 q 586 1074 586 1042 q 563 1129 586 1106 q 507 1153 539 1153 m 700 351 l 507 846 l 315 351 l 700 351 z "},"Ã":{"ha":1015,"x_min":69,"x_max":946,"o":"m 250 1126 q 382 1186 289 1186 q 440 1178 413 1186 q 511 1151 468 1169 q 575 1126 547 1135 q 633 1117 603 1117 q 706 1133 674 1117 q 765 1189 739 1150 l 765 1093 q 633 1035 726 1035 q 568 1044 599 1035 q 499 1071 538 1053 q 435 1096 460 1088 q 382 1104 411 1104 q 311 1088 343 1104 q 250 1031 279 1071 l 250 1126 m 457 971 l 558 971 l 946 0 l 835 0 l 731 260 l 283 260 l 181 0 l 69 0 l 457 971 m 700 351 l 507 846 l 315 351 l 700 351 z "},"Æ":{"ha":1278,"x_min":69,"x_max":1208,"o":"m 564 971 l 1208 971 l 1208 879 l 753 879 l 753 532 l 1081 532 l 1081 440 l 753 440 l 753 92 l 1208 92 l 1208 0 l 644 0 l 644 260 l 313 260 l 181 0 l 69 0 l 564 971 m 644 351 l 644 879 l 626 879 l 360 351 l 644 351 z "},"Ǽ":{"ha":1278,"x_min":69,"x_max":1208,"o":"m 832 1267 l 944 1267 l 833 1031 l 738 1031 l 832 1267 m 564 971 l 1208 971 l 1208 879 l 753 879 l 753 532 l 1081 532 l 1081 440 l 753 440 l 753 92 l 1208 92 l 1208 0 l 644 0 l 644 260 l 313 260 l 181 0 l 69 0 l 564 971 m 644 351 l 644 879 l 626 879 l 360 351 l 644 351 z "},"B":{"ha":890,"x_min":97,"x_max":821,"o":"m 97 971 l 528 971 q 721 905 654 971 q 788 711 788 839 q 753 581 788 636 q 661 500 718 526 q 821 271 821 458 q 785 127 821 189 q 688 33 750 65 q 551 0 626 0 l 97 0 l 97 971 m 519 543 q 638 585 597 543 q 679 708 679 628 q 639 840 679 800 q 508 879 599 879 l 206 879 l 206 543 l 519 543 m 528 92 q 666 133 619 92 q 713 274 713 175 q 664 410 713 369 q 513 451 615 451 l 206 451 l 206 92 l 528 92 z "},"C":{"ha":994,"x_min":69,"x_max":925,"o":"m 579 -21 q 316 42 432 -21 q 135 219 200 104 q 69 485 69 333 q 135 751 69 636 q 316 928 200 865 q 579 992 432 992 q 913 886 781 992 l 913 781 q 588 893 788 893 q 376 843 469 893 q 231 701 283 793 q 178 485 178 608 q 231 269 178 361 q 378 126 285 176 q 588 76 471 76 q 774 104 692 76 q 925 196 856 132 l 925 89 q 579 -21 801 -21 z "},"Ć":{"ha":994,"x_min":69,"x_max":925,"o":"m 618 1267 l 731 1267 l 619 1031 l 524 1031 l 618 1267 m 579 -21 q 316 42 432 -21 q 135 219 200 104 q 69 485 69 333 q 135 751 69 636 q 316 928 200 865 q 579 992 432 992 q 913 886 781 992 l 913 781 q 588 893 788 893 q 376 843 469 893 q 231 701 283 793 q 178 485 178 608 q 231 269 178 361 q 378 126 285 176 q 588 76 471 76 q 774 104 692 76 q 925 196 856 132 l 925 89 q 579 -21 801 -21 z "},"Č":{"ha":994,"x_min":69,"x_max":925,"o":"m 343 1254 l 453 1254 l 581 1096 l 708 1254 l 817 1254 l 626 1031 l 533 1031 l 343 1254 m 579 -21 q 316 42 432 -21 q 135 219 200 104 q 69 485 69 333 q 135 751 69 636 q 316 928 200 865 q 579 992 432 992 q 913 886 781 992 l 913 781 q 588 893 788 893 q 376 843 469 893 q 231 701 283 793 q 178 485 178 608 q 231 269 178 361 q 378 126 285 176 q 588 76 471 76 q 774 104 692 76 q 925 196 856 132 l 925 89 q 579 -21 801 -21 z "},"Ç":{"ha":994,"x_min":69,"x_max":925,"o":"m 925 89 q 639 -19 818 -6 l 613 -83 q 742 -211 742 -100 q 695 -307 742 -269 q 569 -344 649 -344 q 512 -340 540 -344 q 468 -331 483 -336 l 468 -264 q 504 -274 482 -269 q 547 -278 526 -278 q 642 -208 642 -278 q 609 -149 642 -168 q 499 -129 576 -129 l 540 -19 q 296 53 403 -11 q 129 229 189 118 q 69 485 69 340 q 135 751 69 636 q 316 928 200 865 q 579 992 432 992 q 913 886 781 992 l 913 781 q 588 893 788 893 q 376 843 469 893 q 231 701 283 793 q 178 485 178 608 q 231 269 178 361 q 378 126 285 176 q 588 76 471 76 q 774 104 692 76 q 925 196 856 132 l 925 89 z "},"Ĉ":{"ha":994,"x_min":69,"x_max":925,"o":"m 521 1254 l 614 1254 l 804 1031 l 696 1031 l 568 1189 l 440 1031 l 331 1031 l 521 1254 m 579 -21 q 316 42 432 -21 q 135 219 200 104 q 69 485 69 333 q 135 751 69 636 q 316 928 200 865 q 579 992 432 992 q 913 886 781 992 l 913 781 q 588 893 788 893 q 376 843 469 893 q 231 701 283 793 q 178 485 178 608 q 231 269 178 361 q 378 126 285 176 q 588 76 471 76 q 774 104 692 76 q 925 196 856 132 l 925 89 q 579 -21 801 -21 z "},"Ċ":{"ha":994,"x_min":69,"x_max":925,"o":"m 574 1031 q 525 1051 546 1031 q 504 1099 504 1071 q 525 1147 504 1126 q 574 1167 546 1167 q 622 1147 601 1167 q 642 1099 642 1126 q 622 1051 642 1071 q 574 1031 601 1031 m 579 -21 q 316 42 432 -21 q 135 219 200 104 q 69 485 69 333 q 135 751 69 636 q 316 928 200 865 q 579 992 432 992 q 913 886 781 992 l 913 781 q 588 893 788 893 q 376 843 469 893 q 231 701 283 793 q 178 485 178 608 q 231 269 178 361 q 378 126 285 176 q 588 76 471 76 q 774 104 692 76 q 925 196 856 132 l 925 89 q 579 -21 801 -21 z "},"D":{"ha":974,"x_min":97,"x_max":904,"o":"m 97 971 l 397 971 q 667 913 553 971 q 843 746 782 854 q 904 490 904 638 q 765 124 904 247 q 375 0 626 0 l 97 0 l 97 971 m 368 92 q 692 192 588 92 q 796 490 796 293 q 694 776 796 674 q 396 879 593 879 l 206 879 l 206 92 l 368 92 z "},"Ð":{"ha":1014,"x_min":42,"x_max":944,"o":"m 138 443 l 42 443 l 42 526 l 138 526 l 138 971 l 439 971 q 708 913 594 971 q 883 746 822 854 q 944 490 944 638 q 806 124 944 247 q 415 0 667 0 l 138 0 l 138 443 m 410 99 q 729 198 622 99 q 836 490 836 297 q 731 772 836 671 q 436 872 626 872 l 247 872 l 247 526 l 521 526 l 521 443 l 247 443 l 247 99 l 410 99 z "},"Ď":{"ha":974,"x_min":97,"x_max":904,"o":"m 189 1254 l 299 1254 l 426 1096 l 554 1254 l 663 1254 l 472 1031 l 379 1031 l 189 1254 m 97 971 l 397 971 q 667 913 553 971 q 843 746 782 854 q 904 490 904 638 q 765 124 904 247 q 375 0 626 0 l 97 0 l 97 971 m 368 92 q 692 192 588 92 q 796 490 796 293 q 694 776 796 674 q 396 879 593 879 l 206 879 l 206 92 l 368 92 z "},"Đ":{"ha":1014,"x_min":42,"x_max":944,"o":"m 138 443 l 42 443 l 42 526 l 138 526 l 138 971 l 439 971 q 708 913 594 971 q 883 746 822 854 q 944 490 944 638 q 806 124 944 247 q 415 0 667 0 l 138 0 l 138 443 m 410 99 q 729 198 622 99 q 836 490 836 297 q 731 772 836 671 q 436 872 626 872 l 247 872 l 247 526 l 521 526 l 521 443 l 247 443 l 247 99 l 410 99 z "},"Ḍ":{"ha":974,"x_min":97,"x_max":904,"o":"m 97 971 l 397 971 q 667 913 553 971 q 843 746 782 854 q 904 490 904 638 q 765 124 904 247 q 375 0 626 0 l 97 0 l 97 971 m 368 92 q 692 192 588 92 q 796 490 796 293 q 694 776 796 674 q 396 879 593 879 l 206 879 l 206 92 l 368 92 m 382 -211 q 333 -191 354 -211 q 313 -143 313 -171 q 333 -95 313 -115 q 382 -75 354 -75 q 430 -95 410 -75 q 450 -143 450 -115 q 430 -191 450 -171 q 382 -211 410 -211 z "},"Ḏ":{"ha":974,"x_min":97,"x_max":904,"o":"m 97 971 l 397 971 q 667 913 553 971 q 843 746 782 854 q 904 490 904 638 q 765 124 904 247 q 375 0 626 0 l 97 0 l 97 971 m 368 92 q 692 192 588 92 q 796 490 796 293 q 694 776 796 674 q 396 879 593 879 l 206 879 l 206 92 l 368 92 m 168 -103 l 592 -103 l 592 -182 l 168 -182 l 168 -103 z "},"E":{"ha":792,"x_min":97,"x_max":722,"o":"m 97 971 l 722 971 l 722 879 l 206 879 l 206 532 l 593 532 l 593 440 l 206 440 l 206 92 l 722 92 l 722 0 l 97 0 l 97 971 z "},"É":{"ha":792,"x_min":97,"x_max":722,"o":"m 440 1267 l 553 1267 l 442 1031 l 346 1031 l 440 1267 m 97 971 l 722 971 l 722 879 l 206 879 l 206 532 l 593 532 l 593 440 l 206 440 l 206 92 l 722 92 l 722 0 l 97 0 l 97 971 z "},"Ĕ":{"ha":792,"x_min":97,"x_max":722,"o":"m 411 1031 q 269 1081 322 1031 q 217 1211 217 1132 l 300 1211 q 330 1134 300 1163 q 411 1106 360 1106 q 492 1134 463 1106 q 522 1211 522 1163 l 604 1211 q 551 1081 604 1132 q 411 1031 499 1031 m 97 971 l 722 971 l 722 879 l 206 879 l 206 532 l 593 532 l 593 440 l 206 440 l 206 92 l 722 92 l 722 0 l 97 0 l 97 971 z "},"Ě":{"ha":792,"x_min":97,"x_max":722,"o":"m 171 1254 l 281 1254 l 408 1096 l 536 1254 l 644 1254 l 454 1031 l 361 1031 l 171 1254 m 97 971 l 722 971 l 722 879 l 206 879 l 206 532 l 593 532 l 593 440 l 206 440 l 206 92 l 722 92 l 722 0 l 97 0 l 97 971 z "},"Ê":{"ha":792,"x_min":97,"x_max":722,"o":"m 357 1256 l 450 1256 l 640 1032 l 532 1032 l 404 1190 l 276 1032 l 167 1032 l 357 1256 m 97 971 l 722 971 l 722 879 l 206 879 l 206 532 l 593 532 l 593 440 l 206 440 l 206 92 l 722 92 l 722 0 l 97 0 l 97 971 z "},"Ế":{"ha":792,"x_min":97,"x_max":722,"o":"m 599 1340 l 688 1340 l 575 1174 l 500 1174 l 599 1340 m 333 1222 l 426 1222 l 617 1031 l 508 1031 l 381 1163 l 253 1031 l 143 1031 l 333 1222 m 97 971 l 722 971 l 722 879 l 206 879 l 206 532 l 593 532 l 593 440 l 206 440 l 206 92 l 722 92 l 722 0 l 97 0 l 97 971 z "},"Ệ":{"ha":792,"x_min":97,"x_max":722,"o":"m 338 1285 l 431 1285 l 621 1061 l 513 1061 l 385 1219 l 257 1061 l 147 1061 l 338 1285 m 97 971 l 722 971 l 722 879 l 206 879 l 206 532 l 593 532 l 593 440 l 206 440 l 206 92 l 722 92 l 722 0 l 97 0 l 97 971 m 385 -211 q 336 -191 357 -211 q 315 -143 315 -171 q 336 -95 315 -115 q 385 -75 357 -75 q 433 -95 413 -75 q 453 -143 453 -115 q 433 -191 453 -171 q 385 -211 413 -211 z "},"Ề":{"ha":846,"x_min":97,"x_max":776,"o":"m 97 1340 l 186 1340 l 285 1174 l 210 1174 l 97 1340 m 358 1222 l 451 1222 l 642 1031 l 532 1031 l 404 1163 l 276 1031 l 168 1031 l 358 1222 m 151 971 l 776 971 l 776 879 l 260 879 l 260 532 l 647 532 l 647 440 l 260 440 l 260 92 l 776 92 l 776 0 l 151 0 l 151 971 z "},"Ể":{"ha":794,"x_min":97,"x_max":725,"o":"m 563 1233 q 649 1283 649 1233 q 588 1329 649 1329 q 525 1318 547 1329 l 525 1368 q 608 1381 560 1381 q 695 1356 665 1381 q 725 1289 725 1332 q 700 1229 725 1254 q 632 1199 675 1204 l 632 1164 l 563 1164 l 563 1233 m 389 1222 l 482 1222 l 672 1031 l 563 1031 l 435 1163 l 307 1031 l 199 1031 l 389 1222 m 97 971 l 722 971 l 722 879 l 206 879 l 206 532 l 593 532 l 593 440 l 206 440 l 206 92 l 722 92 l 722 0 l 97 0 l 97 971 z "},"Ễ":{"ha":792,"x_min":97,"x_max":722,"o":"m 219 1310 q 335 1361 254 1361 q 388 1353 363 1361 q 449 1331 413 1346 q 505 1308 481 1315 q 556 1300 529 1300 q 671 1364 626 1300 l 671 1279 q 556 1229 639 1229 q 498 1238 525 1229 q 438 1261 471 1246 q 381 1282 403 1275 q 335 1289 360 1289 q 273 1275 301 1289 q 219 1225 244 1261 l 219 1310 m 392 1222 l 485 1222 l 675 1031 l 565 1031 l 438 1163 l 310 1031 l 201 1031 l 392 1222 m 97 971 l 722 971 l 722 879 l 206 879 l 206 532 l 593 532 l 593 440 l 206 440 l 206 92 l 722 92 l 722 0 l 97 0 l 97 971 z "},"Ë":{"ha":792,"x_min":97,"x_max":722,"o":"m 268 1028 q 219 1048 240 1028 q 199 1096 199 1068 q 219 1144 199 1124 q 268 1164 240 1164 q 316 1144 296 1164 q 336 1096 336 1124 q 316 1048 336 1068 q 268 1028 296 1028 m 569 1028 q 521 1048 542 1028 q 500 1096 500 1068 q 521 1144 500 1124 q 569 1164 542 1164 q 617 1144 597 1164 q 638 1096 638 1124 q 617 1048 638 1068 q 569 1028 597 1028 m 97 971 l 722 971 l 722 879 l 206 879 l 206 532 l 593 532 l 593 440 l 206 440 l 206 92 l 722 92 l 722 0 l 97 0 l 97 971 z "},"Ė":{"ha":792,"x_min":97,"x_max":722,"o":"m 403 1028 q 354 1048 375 1028 q 333 1096 333 1068 q 354 1144 333 1124 q 403 1164 375 1164 q 451 1144 431 1164 q 471 1096 471 1124 q 451 1048 471 1068 q 403 1028 431 1028 m 97 971 l 722 971 l 722 879 l 206 879 l 206 532 l 593 532 l 593 440 l 206 440 l 206 92 l 722 92 l 722 0 l 97 0 l 97 971 z "},"Ẹ":{"ha":792,"x_min":97,"x_max":722,"o":"m 97 971 l 722 971 l 722 879 l 206 879 l 206 532 l 593 532 l 593 440 l 206 440 l 206 92 l 722 92 l 722 0 l 97 0 l 97 971 m 388 -211 q 339 -191 360 -211 q 318 -143 318 -171 q 339 -95 318 -115 q 388 -75 360 -75 q 435 -95 415 -75 q 456 -143 456 -115 q 435 -191 456 -171 q 388 -211 415 -211 z "},"È":{"ha":792,"x_min":97,"x_max":722,"o":"m 274 1267 l 386 1267 l 481 1031 l 385 1031 l 274 1267 m 97 971 l 722 971 l 722 879 l 206 879 l 206 532 l 593 532 l 593 440 l 206 440 l 206 92 l 722 92 l 722 0 l 97 0 l 97 971 z "},"Ẻ":{"ha":792,"x_min":97,"x_max":722,"o":"m 338 1126 q 435 1145 404 1126 q 467 1207 467 1164 q 443 1260 467 1243 q 369 1276 419 1276 q 324 1272 350 1276 q 286 1263 297 1268 l 286 1325 q 334 1336 304 1332 q 392 1340 364 1340 q 518 1306 475 1340 q 561 1211 561 1271 q 527 1123 561 1160 q 431 1081 493 1086 l 431 1032 l 338 1032 l 338 1126 m 97 971 l 722 971 l 722 879 l 206 879 l 206 532 l 593 532 l 593 440 l 206 440 l 206 92 l 722 92 l 722 0 l 97 0 l 97 971 z "},"Ē":{"ha":792,"x_min":97,"x_max":722,"o":"m 201 1133 l 619 1133 l 619 1058 l 201 1058 l 201 1133 m 97 971 l 722 971 l 722 879 l 206 879 l 206 532 l 593 532 l 593 440 l 206 440 l 206 92 l 722 92 l 722 0 l 97 0 l 97 971 z "},"Ę":{"ha":792,"x_min":97,"x_max":722,"o":"m 206 879 l 206 532 l 593 532 l 593 440 l 206 440 l 206 92 l 722 92 l 722 0 l 683 0 q 601 -75 629 -37 q 574 -156 574 -112 q 590 -206 574 -190 q 640 -221 606 -221 q 706 -207 675 -221 l 706 -276 q 614 -292 671 -292 q 517 -260 556 -292 q 479 -171 479 -229 q 508 -75 479 -119 q 583 0 538 -31 l 97 0 l 97 971 l 722 971 l 722 879 l 206 879 z "},"Ẽ":{"ha":792,"x_min":97,"x_max":722,"o":"m 136 1165 q 268 1225 175 1225 q 326 1217 299 1225 q 397 1190 354 1208 q 461 1165 433 1174 q 519 1156 489 1156 q 592 1172 560 1156 q 651 1228 625 1189 l 651 1132 q 519 1074 613 1074 q 454 1083 485 1074 q 385 1110 424 1092 q 322 1135 346 1126 q 268 1143 297 1143 q 197 1126 229 1143 q 136 1069 165 1110 l 136 1165 m 97 971 l 722 971 l 722 879 l 206 879 l 206 532 l 593 532 l 593 440 l 206 440 l 206 92 l 722 92 l 722 0 l 97 0 l 97 971 z "},"F":{"ha":764,"x_min":97,"x_max":722,"o":"m 97 971 l 722 971 l 722 879 l 206 879 l 206 532 l 593 532 l 593 440 l 206 440 l 206 0 l 97 0 l 97 971 z "},"G":{"ha":1000,"x_min":69,"x_max":931,"o":"m 579 -21 q 316 42 432 -21 q 135 219 200 104 q 69 485 69 333 q 135 751 69 636 q 316 928 200 865 q 579 992 432 992 q 913 886 781 992 l 913 781 q 588 893 788 893 q 376 843 469 893 q 231 701 283 793 q 178 485 178 608 q 231 269 178 361 q 376 126 283 176 q 585 76 468 76 q 717 92 653 76 q 822 135 781 108 l 822 433 l 618 433 l 618 525 l 931 525 l 931 89 q 776 6 863 32 q 579 -21 689 -21 z "},"Ğ":{"ha":1000,"x_min":69,"x_max":931,"o":"m 585 1031 q 443 1081 496 1031 q 390 1211 390 1132 l 474 1211 q 503 1134 474 1163 q 585 1106 533 1106 q 666 1134 636 1106 q 696 1211 696 1163 l 778 1211 q 725 1081 778 1132 q 585 1031 672 1031 m 579 -21 q 316 42 432 -21 q 135 219 200 104 q 69 485 69 333 q 135 751 69 636 q 316 928 200 865 q 579 992 432 992 q 913 886 781 992 l 913 781 q 588 893 788 893 q 376 843 469 893 q 231 701 283 793 q 178 485 178 608 q 231 269 178 361 q 376 126 283 176 q 585 76 468 76 q 717 92 653 76 q 822 135 781 108 l 822 433 l 618 433 l 618 525 l 931 525 l 931 89 q 776 6 863 32 q 579 -21 689 -21 z "},"Ǧ":{"ha":1000,"x_min":69,"x_max":931,"o":"m 311 1254 l 421 1254 l 549 1096 l 676 1254 l 785 1254 l 594 1031 l 501 1031 l 311 1254 m 579 -21 q 316 42 432 -21 q 135 219 200 104 q 69 485 69 333 q 135 751 69 636 q 316 928 200 865 q 579 992 432 992 q 913 886 781 992 l 913 781 q 588 893 788 893 q 376 843 469 893 q 231 701 283 793 q 178 485 178 608 q 231 269 178 361 q 376 126 283 176 q 585 76 468 76 q 717 92 653 76 q 822 135 781 108 l 822 433 l 618 433 l 618 525 l 931 525 l 931 89 q 776 6 863 32 q 579 -21 689 -21 z "},"Ĝ":{"ha":1000,"x_min":69,"x_max":931,"o":"m 525 1254 l 618 1254 l 808 1031 l 700 1031 l 572 1189 l 444 1031 l 335 1031 l 525 1254 m 579 -21 q 316 42 432 -21 q 135 219 200 104 q 69 485 69 333 q 135 751 69 636 q 316 928 200 865 q 579 992 432 992 q 913 886 781 992 l 913 781 q 588 893 788 893 q 376 843 469 893 q 231 701 283 793 q 178 485 178 608 q 231 269 178 361 q 376 126 283 176 q 585 76 468 76 q 717 92 653 76 q 822 135 781 108 l 822 433 l 618 433 l 618 525 l 931 525 l 931 89 q 776 6 863 32 q 579 -21 689 -21 z "},"Ģ":{"ha":1000,"x_min":69,"x_max":931,"o":"m 579 -21 q 316 42 432 -21 q 135 219 200 104 q 69 485 69 333 q 135 751 69 636 q 316 928 200 865 q 579 992 432 992 q 913 886 781 992 l 913 781 q 588 893 788 893 q 376 843 469 893 q 231 701 283 793 q 178 485 178 608 q 231 269 178 361 q 376 126 283 176 q 585 76 468 76 q 717 92 653 76 q 822 135 781 108 l 822 433 l 618 433 l 618 525 l 931 525 l 931 89 q 776 6 863 32 q 579 -21 689 -21 m 519 -87 l 632 -87 l 506 -361 l 408 -361 l 519 -87 z "},"Ġ":{"ha":1000,"x_min":69,"x_max":931,"o":"m 576 1031 q 528 1051 549 1031 q 507 1099 507 1071 q 528 1147 507 1126 q 576 1167 549 1167 q 624 1147 604 1167 q 644 1099 644 1126 q 624 1051 644 1071 q 576 1031 604 1031 m 579 -21 q 316 42 432 -21 q 135 219 200 104 q 69 485 69 333 q 135 751 69 636 q 316 928 200 865 q 579 992 432 992 q 913 886 781 992 l 913 781 q 588 893 788 893 q 376 843 469 893 q 231 701 283 793 q 178 485 178 608 q 231 269 178 361 q 376 126 283 176 q 585 76 468 76 q 717 92 653 76 q 822 135 781 108 l 822 433 l 618 433 l 618 525 l 931 525 l 931 89 q 776 6 863 32 q 579 -21 689 -21 z "},"Ḡ":{"ha":1000,"x_min":69,"x_max":931,"o":"m 376 1133 l 794 1133 l 794 1058 l 376 1058 l 376 1133 m 579 -21 q 316 42 432 -21 q 135 219 200 104 q 69 485 69 333 q 135 751 69 636 q 316 928 200 865 q 579 992 432 992 q 913 886 781 992 l 913 781 q 588 893 788 893 q 376 843 469 893 q 231 701 283 793 q 178 485 178 608 q 231 269 178 361 q 376 126 283 176 q 585 76 468 76 q 717 92 653 76 q 822 135 781 108 l 822 433 l 618 433 l 618 525 l 931 525 l 931 89 q 776 6 863 32 q 579 -21 689 -21 z "},"H":{"ha":958,"x_min":97,"x_max":861,"o":"m 97 971 l 206 971 l 206 540 l 753 540 l 753 971 l 861 971 l 861 0 l 753 0 l 753 449 l 206 449 l 206 0 l 97 0 l 97 971 z "},"Ħ":{"ha":993,"x_min":42,"x_max":951,"o":"m 107 711 l 42 711 l 42 796 l 107 796 l 107 971 l 215 971 l 215 796 l 763 796 l 763 971 l 871 971 l 871 796 l 951 796 l 951 711 l 871 711 l 871 0 l 763 0 l 763 446 l 215 446 l 215 0 l 107 0 l 107 711 m 763 544 l 763 711 l 215 711 l 215 544 l 763 544 z "},"Ḫ":{"ha":958,"x_min":97,"x_max":861,"o":"m 97 971 l 206 971 l 206 540 l 753 540 l 753 971 l 861 971 l 861 0 l 753 0 l 753 449 l 206 449 l 206 0 l 97 0 l 97 971 m 481 -268 q 339 -217 392 -268 q 286 -87 286 -167 l 369 -87 q 399 -165 369 -136 q 481 -193 429 -193 q 562 -165 532 -193 q 592 -87 592 -136 l 674 -87 q 621 -217 674 -167 q 481 -268 568 -268 z "},"Ĥ":{"ha":958,"x_min":97,"x_max":861,"o":"m 433 1254 l 526 1254 l 717 1031 l 608 1031 l 481 1189 l 353 1031 l 243 1031 l 433 1254 m 97 971 l 206 971 l 206 540 l 753 540 l 753 971 l 861 971 l 861 0 l 753 0 l 753 449 l 206 449 l 206 0 l 97 0 l 97 971 z "},"Ḥ":{"ha":958,"x_min":97,"x_max":861,"o":"m 97 971 l 206 971 l 206 540 l 753 540 l 753 971 l 861 971 l 861 0 l 753 0 l 753 449 l 206 449 l 206 0 l 97 0 l 97 971 m 481 -211 q 432 -191 453 -211 q 411 -143 411 -171 q 432 -95 411 -115 q 481 -75 453 -75 q 528 -95 508 -75 q 549 -143 549 -115 q 528 -191 549 -171 q 481 -211 508 -211 z "},"I":{"ha":306,"x_min":99,"x_max":207,"o":"m 99 971 l 207 971 l 207 0 l 99 0 l 99 971 z "},"Ĳ":{"ha":824,"x_min":99,"x_max":733,"o":"m 99 971 l 207 971 l 207 0 l 99 0 l 99 971 m 496 -21 q 419 -15 458 -21 q 357 0 379 -10 l 357 94 q 413 81 378 86 q 476 76 449 76 q 625 224 625 76 l 625 971 l 733 971 l 733 215 q 668 41 733 103 q 496 -21 603 -21 z "},"Í":{"ha":306,"x_min":99,"x_max":313,"o":"m 200 1267 l 313 1267 l 201 1031 l 106 1031 l 200 1267 m 99 971 l 207 971 l 207 0 l 99 0 l 99 971 z "},"Ĭ":{"ha":306,"x_min":-42,"x_max":346,"o":"m 153 1031 q 11 1081 64 1031 q -42 1211 -42 1132 l 42 1211 q 72 1134 42 1163 q 153 1106 101 1106 q 234 1134 204 1106 q 264 1211 264 1163 l 346 1211 q 293 1081 346 1132 q 153 1031 240 1031 m 99 971 l 207 971 l 207 0 l 99 0 l 99 971 z "},"Ǐ":{"ha":306,"x_min":-83,"x_max":390,"o":"m -83 1254 l 26 1254 l 154 1096 l 282 1254 l 390 1254 l 200 1031 l 107 1031 l -83 1254 m 99 971 l 207 971 l 207 0 l 99 0 l 99 971 z "},"Î":{"ha":306,"x_min":-85,"x_max":389,"o":"m 106 1254 l 199 1254 l 389 1031 l 281 1031 l 153 1189 l 25 1031 l -85 1031 l 106 1254 m 99 971 l 207 971 l 207 0 l 99 0 l 99 971 z "},"Ï":{"ha":306,"x_min":-68,"x_max":371,"o":"m 1 1031 q -47 1051 -26 1031 q -68 1099 -68 1071 q -47 1147 -68 1126 q 1 1167 -26 1167 q 49 1147 29 1167 q 69 1099 69 1126 q 49 1051 69 1071 q 1 1031 29 1031 m 303 1031 q 254 1051 275 1031 q 233 1099 233 1071 q 254 1147 233 1126 q 303 1167 275 1167 q 351 1147 331 1167 q 371 1099 371 1126 q 351 1051 371 1071 q 303 1031 331 1031 m 99 971 l 207 971 l 207 0 l 99 0 l 99 971 z "},"İ":{"ha":306,"x_min":85,"x_max":222,"o":"m 154 1031 q 106 1051 126 1031 q 85 1099 85 1071 q 106 1147 85 1126 q 154 1167 126 1167 q 202 1147 182 1167 q 222 1099 222 1126 q 202 1051 222 1071 q 154 1031 182 1031 m 99 971 l 207 971 l 207 0 l 99 0 l 99 971 z "},"Ị":{"ha":306,"x_min":85,"x_max":222,"o":"m 99 971 l 207 971 l 207 0 l 99 0 l 99 971 m 154 -211 q 106 -191 126 -211 q 85 -143 85 -171 q 106 -95 85 -115 q 154 -75 126 -75 q 202 -95 182 -75 q 222 -143 222 -115 q 202 -191 222 -171 q 154 -211 182 -211 z "},"Ì":{"ha":306,"x_min":-6,"x_max":207,"o":"m -6 1267 l 107 1267 l 201 1031 l 106 1031 l -6 1267 m 99 971 l 207 971 l 207 0 l 99 0 l 99 971 z "},"Ỉ":{"ha":306,"x_min":54,"x_max":329,"o":"m 106 1125 q 203 1144 172 1125 q 235 1206 235 1163 q 211 1258 235 1242 q 138 1275 188 1275 q 92 1271 118 1275 q 54 1261 65 1267 l 54 1324 q 102 1335 72 1331 q 160 1339 132 1339 q 286 1304 243 1339 q 329 1210 329 1269 q 295 1122 329 1158 q 199 1079 261 1085 l 199 1031 l 106 1031 l 106 1125 m 99 971 l 207 971 l 207 0 l 99 0 l 99 971 z "},"Ī":{"ha":306,"x_min":-60,"x_max":364,"o":"m -60 1138 l 364 1138 l 364 1058 l -60 1058 l -60 1138 m 99 971 l 207 971 l 207 0 l 99 0 l 99 971 z "},"Į":{"ha":306,"x_min":0,"x_max":226,"o":"m 161 -221 q 226 -207 196 -221 l 226 -276 q 135 -292 192 -292 q 38 -260 76 -292 q 0 -171 0 -229 q 29 -75 0 -119 q 104 0 58 -31 l 99 0 l 99 971 l 207 971 l 207 0 l 204 0 q 122 -75 150 -37 q 94 -156 94 -112 q 110 -206 94 -190 q 161 -221 126 -221 z "},"Ĩ":{"ha":306,"x_min":-106,"x_max":410,"o":"m -106 1126 q 26 1186 -67 1186 q 85 1178 57 1186 q 156 1151 113 1169 q 219 1126 192 1135 q 278 1117 247 1117 q 351 1133 318 1117 q 410 1189 383 1150 l 410 1093 q 278 1035 371 1035 q 213 1044 243 1035 q 143 1071 182 1053 q 80 1096 104 1088 q 26 1104 56 1104 q -44 1088 -12 1104 q -106 1031 -76 1071 l -106 1126 m 99 971 l 207 971 l 207 0 l 99 0 l 99 971 z "},"J":{"ha":508,"x_min":42,"x_max":418,"o":"m 181 -21 q 103 -15 143 -21 q 42 0 64 -10 l 42 94 q 98 81 63 86 q 161 76 133 76 q 310 224 310 76 l 310 971 l 418 971 l 418 215 q 353 41 418 103 q 181 -21 288 -21 z "},"Ĵ":{"ha":508,"x_min":42,"x_max":599,"o":"m 315 1254 l 408 1254 l 599 1031 l 490 1031 l 363 1189 l 235 1031 l 125 1031 l 315 1254 m 181 -21 q 103 -15 143 -21 q 42 0 64 -10 l 42 94 q 98 81 63 86 q 161 76 133 76 q 310 224 310 76 l 310 971 l 418 971 l 418 215 q 353 41 418 103 q 181 -21 288 -21 z "},"K":{"ha":910,"x_min":97,"x_max":868,"o":"m 97 971 l 206 971 l 206 0 l 97 0 l 97 971 m 251 493 l 706 971 l 839 971 l 385 493 l 868 0 l 735 0 l 251 493 z "},"Ķ":{"ha":910,"x_min":97,"x_max":868,"o":"m 97 971 l 206 971 l 206 0 l 97 0 l 97 971 m 251 493 l 706 971 l 839 971 l 385 493 l 868 0 l 735 0 l 251 493 m 363 -87 l 475 -87 l 349 -361 l 251 -361 l 363 -87 z "},"L":{"ha":757,"x_min":97,"x_max":722,"o":"m 97 971 l 206 971 l 206 92 l 722 92 l 722 0 l 97 0 l 97 971 z "},"Ĺ":{"ha":757,"x_min":97,"x_max":722,"o":"m 197 1293 l 310 1293 l 199 1057 l 103 1057 l 197 1293 m 97 971 l 206 971 l 206 92 l 722 92 l 722 0 l 97 0 l 97 971 z "},"Ľ":{"ha":757,"x_min":97,"x_max":722,"o":"m 97 971 l 206 971 l 206 92 l 722 92 l 722 0 l 97 0 l 97 971 m 474 971 l 586 971 l 460 697 l 363 697 l 474 971 z "},"Ļ":{"ha":757,"x_min":97,"x_max":722,"o":"m 97 971 l 206 971 l 206 92 l 722 92 l 722 0 l 97 0 l 97 971 m 357 -87 l 469 -87 l 343 -361 l 246 -361 l 357 -87 z "},"Ŀ":{"ha":757,"x_min":97,"x_max":722,"o":"m 97 971 l 206 971 l 206 92 l 722 92 l 722 0 l 97 0 l 97 971 m 483 458 q 435 478 456 458 q 414 526 414 499 q 435 574 414 554 q 483 594 456 594 q 531 574 511 594 q 551 526 551 554 q 531 478 551 499 q 483 458 511 458 z "},"Ḷ":{"ha":757,"x_min":97,"x_max":722,"o":"m 97 971 l 206 971 l 206 92 l 722 92 l 722 0 l 97 0 l 97 971 m 396 -211 q 347 -191 368 -211 q 326 -143 326 -171 q 347 -95 326 -115 q 396 -75 368 -75 q 444 -95 424 -75 q 464 -143 464 -115 q 444 -191 464 -171 q 396 -211 424 -211 z "},"Ḹ":{"ha":757,"x_min":97,"x_max":722,"o":"m 99 1164 l 517 1164 l 517 1089 l 99 1089 l 99 1164 m 97 971 l 206 971 l 206 92 l 722 92 l 722 0 l 97 0 l 97 971 m 401 -211 q 353 -191 374 -211 q 332 -143 332 -171 q 353 -95 332 -115 q 401 -75 374 -75 q 449 -95 429 -75 q 469 -143 469 -115 q 449 -191 469 -171 q 401 -211 429 -211 z "},"Ḻ":{"ha":757,"x_min":97,"x_max":722,"o":"m 97 971 l 206 971 l 206 92 l 722 92 l 722 0 l 97 0 l 97 971 m 196 -103 l 619 -103 l 619 -182 l 196 -182 l 196 -103 z "},"Ł":{"ha":833,"x_min":28,"x_max":806,"o":"m 181 432 l 28 364 l 28 463 l 181 531 l 181 971 l 289 971 l 289 579 l 522 683 l 522 585 l 289 481 l 289 92 l 806 92 l 806 0 l 181 0 l 181 432 z "},"M":{"ha":1150,"x_min":97,"x_max":1053,"o":"m 97 971 l 208 971 l 575 169 l 942 971 l 1053 971 l 1053 0 l 946 0 l 946 750 l 603 0 l 547 0 l 204 750 l 204 0 l 97 0 l 97 971 z "},"Ṃ":{"ha":1150,"x_min":97,"x_max":1053,"o":"m 97 971 l 208 971 l 575 169 l 942 971 l 1053 971 l 1053 0 l 946 0 l 946 750 l 603 0 l 547 0 l 204 750 l 204 0 l 97 0 l 97 971 m 576 -211 q 528 -191 549 -211 q 507 -143 507 -171 q 528 -95 507 -115 q 576 -75 549 -75 q 624 -95 604 -75 q 644 -143 644 -115 q 624 -191 644 -171 q 576 -211 604 -211 z "},"N":{"ha":942,"x_min":97,"x_max":844,"o":"m 97 971 l 201 971 l 736 185 l 736 971 l 844 971 l 844 0 l 740 0 l 206 788 l 206 0 l 97 0 l 97 971 z "},"Ń":{"ha":942,"x_min":97,"x_max":844,"o":"m 515 1267 l 628 1267 l 517 1031 l 421 1031 l 515 1267 m 97 971 l 201 971 l 736 185 l 736 971 l 844 971 l 844 0 l 740 0 l 206 788 l 206 0 l 97 0 l 97 971 z "},"Ň":{"ha":942,"x_min":97,"x_max":844,"o":"m 240 1254 l 350 1254 l 478 1096 l 606 1254 l 714 1254 l 524 1031 l 431 1031 l 240 1254 m 97 971 l 201 971 l 736 185 l 736 971 l 844 971 l 844 0 l 740 0 l 206 788 l 206 0 l 97 0 l 97 971 z "},"Ņ":{"ha":942,"x_min":97,"x_max":844,"o":"m 97 971 l 201 971 l 736 185 l 736 971 l 844 971 l 844 0 l 740 0 l 206 788 l 206 0 l 97 0 l 97 971 m 440 -87 l 553 -87 l 426 -361 l 329 -361 l 440 -87 z "},"Ṅ":{"ha":942,"x_min":97,"x_max":844,"o":"m 486 1031 q 438 1051 458 1031 q 417 1099 417 1071 q 438 1147 417 1126 q 486 1167 458 1167 q 534 1147 514 1167 q 554 1099 554 1126 q 534 1051 554 1071 q 486 1031 514 1031 m 97 971 l 201 971 l 736 185 l 736 971 l 844 971 l 844 0 l 740 0 l 206 788 l 206 0 l 97 0 l 97 971 z "},"Ṇ":{"ha":942,"x_min":97,"x_max":844,"o":"m 97 971 l 201 971 l 736 185 l 736 971 l 844 971 l 844 0 l 740 0 l 206 788 l 206 0 l 97 0 l 97 971 m 479 -211 q 431 -191 451 -211 q 410 -143 410 -171 q 431 -95 410 -115 q 479 -75 451 -75 q 527 -95 507 -75 q 547 -143 547 -115 q 527 -191 547 -171 q 479 -211 507 -211 z "},"Ŋ":{"ha":942,"x_min":97,"x_max":844,"o":"m 844 971 l 844 0 l 844 -101 q 788 -266 844 -211 q 631 -321 731 -321 q 535 -308 572 -321 l 535 -218 q 615 -236 571 -236 q 710 -204 682 -236 q 738 -101 738 -172 l 738 4 l 206 788 l 206 0 l 97 0 l 97 971 l 201 971 l 736 185 l 736 971 l 844 971 z "},"Ṉ":{"ha":942,"x_min":97,"x_max":844,"o":"m 97 971 l 201 971 l 736 185 l 736 971 l 844 971 l 844 0 l 740 0 l 206 788 l 206 0 l 97 0 l 97 971 m 276 -103 l 700 -103 l 700 -182 l 276 -182 l 276 -103 z "},"Ñ":{"ha":942,"x_min":97,"x_max":844,"o":"m 235 1126 q 367 1186 274 1186 q 425 1178 397 1186 q 496 1151 453 1169 q 560 1126 532 1135 q 618 1117 588 1117 q 691 1133 658 1117 q 750 1189 724 1150 l 750 1093 q 618 1035 711 1035 q 553 1044 583 1035 q 483 1071 522 1053 q 420 1096 444 1088 q 367 1104 396 1104 q 296 1088 328 1104 q 235 1031 264 1071 l 235 1126 m 97 971 l 201 971 l 736 185 l 736 971 l 844 971 l 844 0 l 740 0 l 206 788 l 206 0 l 97 0 l 97 971 z "},"O":{"ha":1156,"x_min":69,"x_max":1086,"o":"m 578 -21 q 319 42 435 -21 q 136 221 203 106 q 69 485 69 336 q 136 749 69 633 q 318 928 203 864 q 578 992 433 992 q 838 928 722 992 q 1019 749 953 864 q 1086 485 1086 633 q 1019 221 1086 336 q 837 42 953 106 q 578 -21 721 -21 m 578 76 q 781 126 689 76 q 925 269 872 176 q 978 485 978 361 q 926 699 978 607 q 783 842 874 792 q 581 893 692 893 q 376 843 468 893 q 231 700 285 793 q 178 485 178 607 q 231 269 178 361 q 375 126 283 176 q 578 76 467 76 z "},"Ó":{"ha":1156,"x_min":69,"x_max":1086,"o":"m 624 1267 l 736 1267 l 625 1031 l 529 1031 l 624 1267 m 578 -21 q 319 42 435 -21 q 136 221 203 106 q 69 485 69 336 q 136 749 69 633 q 318 928 203 864 q 578 992 433 992 q 838 928 722 992 q 1019 749 953 864 q 1086 485 1086 633 q 1019 221 1086 336 q 837 42 953 106 q 578 -21 721 -21 m 578 76 q 781 126 689 76 q 925 269 872 176 q 978 485 978 361 q 926 699 978 607 q 783 842 874 792 q 581 893 692 893 q 376 843 468 893 q 231 700 285 793 q 178 485 178 607 q 231 269 178 361 q 375 126 283 176 q 578 76 467 76 z "},"Ŏ":{"ha":1156,"x_min":69,"x_max":1086,"o":"m 579 1031 q 438 1081 490 1031 q 385 1211 385 1132 l 468 1211 q 498 1134 468 1163 q 579 1106 528 1106 q 660 1134 631 1106 q 690 1211 690 1163 l 772 1211 q 719 1081 772 1132 q 579 1031 667 1031 m 578 -21 q 319 42 435 -21 q 136 221 203 106 q 69 485 69 336 q 136 749 69 633 q 318 928 203 864 q 578 992 433 992 q 838 928 722 992 q 1019 749 953 864 q 1086 485 1086 633 q 1019 221 1086 336 q 837 42 953 106 q 578 -21 721 -21 m 578 76 q 781 126 689 76 q 925 269 872 176 q 978 485 978 361 q 926 699 978 607 q 783 842 874 792 q 581 893 692 893 q 376 843 468 893 q 231 700 285 793 q 178 485 178 607 q 231 269 178 361 q 375 126 283 176 q 578 76 467 76 z "},"Ǒ":{"ha":1156,"x_min":69,"x_max":1086,"o":"m 342 1254 l 451 1254 l 579 1096 l 707 1254 l 815 1254 l 625 1031 l 532 1031 l 342 1254 m 578 -21 q 319 42 435 -21 q 136 221 203 106 q 69 485 69 336 q 136 749 69 633 q 318 928 203 864 q 578 992 433 992 q 838 928 722 992 q 1019 749 953 864 q 1086 485 1086 633 q 1019 221 1086 336 q 837 42 953 106 q 578 -21 721 -21 m 578 76 q 781 126 689 76 q 925 269 872 176 q 978 485 978 361 q 926 699 978 607 q 783 842 874 792 q 581 893 692 893 q 376 843 468 893 q 231 700 285 793 q 178 485 178 607 q 231 269 178 361 q 375 126 283 176 q 578 76 467 76 z "},"Ô":{"ha":1156,"x_min":69,"x_max":1086,"o":"m 532 1254 l 625 1254 l 815 1031 l 707 1031 l 579 1189 l 451 1031 l 342 1031 l 532 1254 m 578 -21 q 319 42 435 -21 q 136 221 203 106 q 69 485 69 336 q 136 749 69 633 q 318 928 203 864 q 578 992 433 992 q 838 928 722 992 q 1019 749 953 864 q 1086 485 1086 633 q 1019 221 1086 336 q 837 42 953 106 q 578 -21 721 -21 m 578 76 q 781 126 689 76 q 925 269 872 176 q 978 485 978 361 q 926 699 978 607 q 783 842 874 792 q 581 893 692 893 q 376 843 468 893 q 231 700 285 793 q 178 485 178 607 q 231 269 178 361 q 375 126 283 176 q 578 76 467 76 z "},"Ố":{"ha":1156,"x_min":69,"x_max":1086,"o":"m 808 1340 l 897 1340 l 785 1174 l 710 1174 l 808 1340 m 543 1222 l 636 1222 l 826 1031 l 718 1031 l 590 1163 l 463 1031 l 353 1031 l 543 1222 m 578 -21 q 319 42 435 -21 q 136 221 203 106 q 69 485 69 336 q 136 749 69 633 q 318 928 203 864 q 578 992 433 992 q 838 928 722 992 q 1019 749 953 864 q 1086 485 1086 633 q 1019 221 1086 336 q 837 42 953 106 q 578 -21 721 -21 m 578 76 q 781 126 689 76 q 925 269 872 176 q 978 485 978 361 q 926 699 978 607 q 783 842 874 792 q 581 893 692 893 q 376 843 468 893 q 231 700 285 793 q 178 485 178 607 q 231 269 178 361 q 375 126 283 176 q 578 76 467 76 z "},"Ộ":{"ha":1156,"x_min":69,"x_max":1086,"o":"m 531 1254 l 624 1254 l 814 1031 l 706 1031 l 578 1189 l 450 1031 l 340 1031 l 531 1254 m 578 -21 q 319 42 435 -21 q 136 221 203 106 q 69 485 69 336 q 136 749 69 633 q 318 928 203 864 q 578 992 433 992 q 838 928 722 992 q 1019 749 953 864 q 1086 485 1086 633 q 1019 221 1086 336 q 837 42 953 106 q 578 -21 721 -21 m 578 76 q 781 126 689 76 q 925 269 872 176 q 978 485 978 361 q 926 699 978 607 q 783 842 874 792 q 581 893 692 893 q 376 843 468 893 q 231 700 285 793 q 178 485 178 607 q 231 269 178 361 q 375 126 283 176 q 578 76 467 76 m 579 -211 q 531 -191 551 -211 q 510 -143 510 -171 q 531 -95 510 -115 q 579 -75 551 -75 q 627 -95 607 -75 q 647 -143 647 -115 q 627 -191 647 -171 q 579 -211 607 -211 z "},"Ồ":{"ha":1156,"x_min":71,"x_max":1088,"o":"m 249 1340 l 338 1340 l 436 1174 l 361 1174 l 249 1340 m 510 1222 l 603 1222 l 793 1031 l 683 1031 l 556 1163 l 428 1031 l 319 1031 l 510 1222 m 579 -21 q 320 42 436 -21 q 138 221 204 106 q 71 485 71 336 q 138 749 71 633 q 319 928 204 864 q 579 992 435 992 q 839 928 724 992 q 1021 749 954 864 q 1088 485 1088 633 q 1021 221 1088 336 q 838 42 954 106 q 579 -21 722 -21 m 579 76 q 782 126 690 76 q 926 269 874 176 q 979 485 979 361 q 927 699 979 607 q 784 842 875 792 q 582 893 693 893 q 378 843 469 893 q 233 700 286 793 q 179 485 179 607 q 232 269 179 361 q 376 126 285 176 q 579 76 468 76 z "},"Ổ":{"ha":1156,"x_min":69,"x_max":1086,"o":"m 700 1233 q 786 1283 786 1233 q 725 1329 786 1329 q 663 1318 685 1329 l 663 1368 q 746 1381 697 1381 q 833 1356 803 1381 q 863 1289 863 1332 q 838 1229 863 1254 q 769 1199 813 1204 l 769 1164 l 700 1164 l 700 1233 m 526 1222 l 619 1222 l 810 1031 l 700 1031 l 572 1163 l 444 1031 l 336 1031 l 526 1222 m 578 -21 q 319 42 435 -21 q 136 221 203 106 q 69 485 69 336 q 136 749 69 633 q 318 928 203 864 q 578 992 433 992 q 838 928 722 992 q 1019 749 953 864 q 1086 485 1086 633 q 1019 221 1086 336 q 837 42 953 106 q 578 -21 721 -21 m 578 76 q 781 126 689 76 q 925 269 872 176 q 978 485 978 361 q 926 699 978 607 q 783 842 874 792 q 581 893 692 893 q 376 843 468 893 q 231 700 285 793 q 178 485 178 607 q 231 269 178 361 q 375 126 283 176 q 578 76 467 76 z "},"Ỗ":{"ha":1156,"x_min":69,"x_max":1086,"o":"m 353 1315 q 468 1367 388 1367 q 521 1359 496 1367 q 582 1336 546 1351 q 638 1313 614 1321 q 689 1306 663 1306 q 804 1369 760 1306 l 804 1285 q 689 1235 772 1235 q 631 1243 658 1235 q 571 1267 604 1251 q 515 1288 536 1281 q 468 1294 493 1294 q 406 1281 435 1294 q 353 1231 378 1267 l 353 1315 m 586 1031 q 448 1081 500 1031 q 396 1208 396 1131 l 475 1208 q 505 1131 475 1160 q 586 1103 535 1103 q 667 1131 638 1103 q 697 1208 697 1160 l 776 1208 q 724 1081 776 1131 q 586 1031 672 1031 m 578 -21 q 319 42 435 -21 q 136 221 203 106 q 69 485 69 336 q 136 749 69 633 q 318 928 203 864 q 578 992 433 992 q 838 928 722 992 q 1019 749 953 864 q 1086 485 1086 633 q 1019 221 1086 336 q 837 42 953 106 q 578 -21 721 -21 m 578 76 q 781 126 689 76 q 925 269 872 176 q 978 485 978 361 q 926 699 978 607 q 783 842 874 792 q 581 893 692 893 q 376 843 468 893 q 231 700 285 793 q 178 485 178 607 q 231 269 178 361 q 375 126 283 176 q 578 76 467 76 z "},"Ö":{"ha":1156,"x_min":69,"x_max":1086,"o":"m 428 1031 q 379 1051 400 1031 q 358 1099 358 1071 q 379 1147 358 1126 q 428 1167 400 1167 q 476 1147 456 1167 q 496 1099 496 1126 q 476 1051 496 1071 q 428 1031 456 1031 m 729 1031 q 681 1051 701 1031 q 660 1099 660 1071 q 681 1147 660 1126 q 729 1167 701 1167 q 777 1147 757 1167 q 797 1099 797 1126 q 777 1051 797 1071 q 729 1031 757 1031 m 578 -21 q 319 42 435 -21 q 136 221 203 106 q 69 485 69 336 q 136 749 69 633 q 318 928 203 864 q 578 992 433 992 q 838 928 722 992 q 1019 749 953 864 q 1086 485 1086 633 q 1019 221 1086 336 q 837 42 953 106 q 578 -21 721 -21 m 578 76 q 781 126 689 76 q 925 269 872 176 q 978 485 978 361 q 926 699 978 607 q 783 842 874 792 q 581 893 692 893 q 376 843 468 893 q 231 700 285 793 q 178 485 178 607 q 231 269 178 361 q 375 126 283 176 q 578 76 467 76 z "},"Ọ":{"ha":1156,"x_min":69,"x_max":1086,"o":"m 578 -21 q 319 42 435 -21 q 136 221 203 106 q 69 485 69 336 q 136 749 69 633 q 318 928 203 864 q 578 992 433 992 q 838 928 722 992 q 1019 749 953 864 q 1086 485 1086 633 q 1019 221 1086 336 q 837 42 953 106 q 578 -21 721 -21 m 578 76 q 781 126 689 76 q 925 269 872 176 q 978 485 978 361 q 926 699 978 607 q 783 842 874 792 q 581 893 692 893 q 376 843 468 893 q 231 700 285 793 q 178 485 178 607 q 231 269 178 361 q 375 126 283 176 q 578 76 467 76 m 579 -211 q 531 -191 551 -211 q 510 -143 510 -171 q 531 -95 510 -115 q 579 -75 551 -75 q 627 -95 607 -75 q 647 -143 647 -115 q 627 -191 647 -171 q 579 -211 607 -211 z "},"Ò":{"ha":1156,"x_min":69,"x_max":1086,"o":"m 436 1267 l 549 1267 l 643 1031 l 547 1031 l 436 1267 m 578 -21 q 319 42 435 -21 q 136 221 203 106 q 69 485 69 336 q 136 749 69 633 q 318 928 203 864 q 578 992 433 992 q 838 928 722 992 q 1019 749 953 864 q 1086 485 1086 633 q 1019 221 1086 336 q 837 42 953 106 q 578 -21 721 -21 m 578 76 q 781 126 689 76 q 925 269 872 176 q 978 485 978 361 q 926 699 978 607 q 783 842 874 792 q 581 893 692 893 q 376 843 468 893 q 231 700 285 793 q 178 485 178 607 q 231 269 178 361 q 375 126 283 176 q 578 76 467 76 z "},"Ỏ":{"ha":1156,"x_min":69,"x_max":1086,"o":"m 533 1125 q 631 1144 600 1125 q 663 1206 663 1163 q 639 1258 663 1242 q 565 1275 615 1275 q 519 1271 546 1275 q 482 1261 493 1267 l 482 1324 q 530 1335 500 1331 q 588 1339 560 1339 q 714 1304 671 1339 q 757 1210 757 1269 q 723 1122 757 1158 q 626 1079 689 1085 l 626 1031 l 533 1031 l 533 1125 m 578 -21 q 319 42 435 -21 q 136 221 203 106 q 69 485 69 336 q 136 749 69 633 q 318 928 203 864 q 578 992 433 992 q 838 928 722 992 q 1019 749 953 864 q 1086 485 1086 633 q 1019 221 1086 336 q 837 42 953 106 q 578 -21 721 -21 m 578 76 q 781 126 689 76 q 925 269 872 176 q 978 485 978 361 q 926 699 978 607 q 783 842 874 792 q 581 893 692 893 q 376 843 468 893 q 231 700 285 793 q 178 485 178 607 q 231 269 178 361 q 375 126 283 176 q 578 76 467 76 z "},"Ơ":{"ha":1185,"x_min":69,"x_max":1150,"o":"m 578 -21 q 319 42 435 -21 q 136 221 203 106 q 69 485 69 336 q 136 749 69 633 q 318 928 203 864 q 578 992 433 992 q 769 959 681 992 q 926 865 858 926 q 1020 898 989 867 q 1051 988 1051 929 l 1051 1038 l 1150 1038 l 1150 982 q 1108 858 1150 913 q 996 786 1065 804 q 1086 485 1086 658 q 1019 221 1086 336 q 837 42 953 106 q 578 -21 721 -21 m 578 76 q 781 126 689 76 q 925 269 872 176 q 978 485 978 361 q 926 699 978 607 q 783 842 874 792 q 581 893 692 893 q 376 843 468 893 q 231 700 285 793 q 178 485 178 607 q 231 269 178 361 q 375 126 283 176 q 578 76 467 76 z "},"Ớ":{"ha":1185,"x_min":69,"x_max":1150,"o":"m 632 1267 l 744 1267 l 633 1031 l 538 1031 l 632 1267 m 578 -21 q 319 42 435 -21 q 136 221 203 106 q 69 485 69 336 q 136 749 69 633 q 318 928 203 864 q 578 992 433 992 q 769 959 681 992 q 926 865 858 926 q 1020 898 989 867 q 1051 988 1051 929 l 1051 1038 l 1150 1038 l 1150 982 q 1108 858 1150 913 q 996 786 1065 804 q 1086 485 1086 658 q 1019 221 1086 336 q 837 42 953 106 q 578 -21 721 -21 m 578 76 q 781 126 689 76 q 925 269 872 176 q 978 485 978 361 q 926 699 978 607 q 783 842 874 792 q 581 893 692 893 q 376 843 468 893 q 231 700 285 793 q 178 485 178 607 q 231 269 178 361 q 375 126 283 176 q 578 76 467 76 z "},"Ợ":{"ha":1185,"x_min":69,"x_max":1150,"o":"m 578 -21 q 319 42 435 -21 q 136 221 203 106 q 69 485 69 336 q 136 749 69 633 q 318 928 203 864 q 578 992 433 992 q 769 959 681 992 q 926 865 858 926 q 1020 898 989 867 q 1051 988 1051 929 l 1051 1038 l 1150 1038 l 1150 982 q 1108 858 1150 913 q 996 786 1065 804 q 1086 485 1086 658 q 1019 221 1086 336 q 837 42 953 106 q 578 -21 721 -21 m 578 76 q 781 126 689 76 q 925 269 872 176 q 978 485 978 361 q 926 699 978 607 q 783 842 874 792 q 581 893 692 893 q 376 843 468 893 q 231 700 285 793 q 178 485 178 607 q 231 269 178 361 q 375 126 283 176 q 578 76 467 76 m 579 -211 q 531 -191 551 -211 q 510 -143 510 -171 q 531 -95 510 -115 q 579 -75 551 -75 q 627 -95 607 -75 q 647 -143 647 -115 q 627 -191 647 -171 q 579 -211 607 -211 z "},"Ờ":{"ha":1185,"x_min":69,"x_max":1150,"o":"m 421 1267 l 533 1267 l 628 1031 l 532 1031 l 421 1267 m 578 -21 q 319 42 435 -21 q 136 221 203 106 q 69 485 69 336 q 136 749 69 633 q 318 928 203 864 q 578 992 433 992 q 769 959 681 992 q 926 865 858 926 q 1020 898 989 867 q 1051 988 1051 929 l 1051 1038 l 1150 1038 l 1150 982 q 1108 858 1150 913 q 996 786 1065 804 q 1086 485 1086 658 q 1019 221 1086 336 q 837 42 953 106 q 578 -21 721 -21 m 578 76 q 781 126 689 76 q 925 269 872 176 q 978 485 978 361 q 926 699 978 607 q 783 842 874 792 q 581 893 692 893 q 376 843 468 893 q 231 700 285 793 q 178 485 178 607 q 231 269 178 361 q 375 126 283 176 q 578 76 467 76 z "},"Ở":{"ha":1185,"x_min":69,"x_max":1150,"o":"m 535 1125 q 633 1144 601 1125 q 664 1206 664 1163 q 640 1258 664 1242 q 567 1275 617 1275 q 521 1271 547 1275 q 483 1261 494 1267 l 483 1324 q 531 1335 501 1331 q 589 1339 561 1339 q 715 1304 672 1339 q 758 1210 758 1269 q 724 1122 758 1158 q 628 1079 690 1085 l 628 1031 l 535 1031 l 535 1125 m 578 -21 q 319 42 435 -21 q 136 221 203 106 q 69 485 69 336 q 136 749 69 633 q 318 928 203 864 q 578 992 433 992 q 769 959 681 992 q 926 865 858 926 q 1020 898 989 867 q 1051 988 1051 929 l 1051 1038 l 1150 1038 l 1150 982 q 1108 858 1150 913 q 996 786 1065 804 q 1086 485 1086 658 q 1019 221 1086 336 q 837 42 953 106 q 578 -21 721 -21 m 578 76 q 781 126 689 76 q 925 269 872 176 q 978 485 978 361 q 926 699 978 607 q 783 842 874 792 q 581 893 692 893 q 376 843 468 893 q 231 700 285 793 q 178 485 178 607 q 231 269 178 361 q 375 126 283 176 q 578 76 467 76 z "},"Ỡ":{"ha":1185,"x_min":69,"x_max":1150,"o":"m 351 1126 q 483 1186 390 1186 q 542 1178 514 1186 q 613 1151 569 1169 q 676 1126 649 1135 q 735 1117 704 1117 q 808 1133 775 1117 q 867 1189 840 1150 l 867 1093 q 735 1035 828 1035 q 669 1044 700 1035 q 600 1071 639 1053 q 537 1096 561 1088 q 483 1104 513 1104 q 413 1088 444 1104 q 351 1031 381 1071 l 351 1126 m 578 -21 q 319 42 435 -21 q 136 221 203 106 q 69 485 69 336 q 136 749 69 633 q 318 928 203 864 q 578 992 433 992 q 769 959 681 992 q 926 865 858 926 q 1020 898 989 867 q 1051 988 1051 929 l 1051 1038 l 1150 1038 l 1150 982 q 1108 858 1150 913 q 996 786 1065 804 q 1086 485 1086 658 q 1019 221 1086 336 q 837 42 953 106 q 578 -21 721 -21 m 578 76 q 781 126 689 76 q 925 269 872 176 q 978 485 978 361 q 926 699 978 607 q 783 842 874 792 q 581 893 692 893 q 376 843 468 893 q 231 700 285 793 q 178 485 178 607 q 231 269 178 361 q 375 126 283 176 q 578 76 467 76 z "},"Ő":{"ha":1156,"x_min":69,"x_max":1086,"o":"m 481 1267 l 593 1267 l 482 1031 l 386 1031 l 481 1267 m 744 1267 l 857 1267 l 746 1031 l 650 1031 l 744 1267 m 578 -21 q 319 42 435 -21 q 136 221 203 106 q 69 485 69 336 q 136 749 69 633 q 318 928 203 864 q 578 992 433 992 q 838 928 722 992 q 1019 749 953 864 q 1086 485 1086 633 q 1019 221 1086 336 q 837 42 953 106 q 578 -21 721 -21 m 578 76 q 781 126 689 76 q 925 269 872 176 q 978 485 978 361 q 926 699 978 607 q 783 842 874 792 q 581 893 692 893 q 376 843 468 893 q 231 700 285 793 q 178 485 178 607 q 231 269 178 361 q 375 126 283 176 q 578 76 467 76 z "},"Ō":{"ha":1156,"x_min":69,"x_max":1086,"o":"m 369 1133 l 788 1133 l 788 1058 l 369 1058 l 369 1133 m 578 -21 q 319 42 435 -21 q 136 221 203 106 q 69 485 69 336 q 136 749 69 633 q 318 928 203 864 q 578 992 433 992 q 838 928 722 992 q 1019 749 953 864 q 1086 485 1086 633 q 1019 221 1086 336 q 837 42 953 106 q 578 -21 721 -21 m 578 76 q 781 126 689 76 q 925 269 872 176 q 978 485 978 361 q 926 699 978 607 q 783 842 874 792 q 581 893 692 893 q 376 843 468 893 q 231 700 285 793 q 178 485 178 607 q 231 269 178 361 q 375 126 283 176 q 578 76 467 76 z "},"Ø":{"ha":1156,"x_min":69,"x_max":1086,"o":"m 347 28 q 144 207 218 88 q 69 485 69 326 q 136 749 69 633 q 318 928 203 864 q 578 992 433 992 q 726 972 653 992 l 774 1089 l 879 1089 l 818 938 q 1015 758 943 876 q 1086 485 1086 640 q 1019 221 1086 336 q 837 42 953 106 q 578 -21 721 -21 q 439 -4 506 -21 l 393 -119 l 288 -119 l 347 28 m 689 879 q 578 893 639 893 q 374 842 465 892 q 231 699 283 792 q 178 485 178 607 q 233 264 178 358 q 385 121 289 169 l 689 879 m 578 76 q 781 126 689 76 q 925 269 872 176 q 978 485 978 361 q 925 700 978 607 q 781 843 872 793 l 476 88 q 578 76 528 76 z "},"Ǿ":{"ha":1156,"x_min":69,"x_max":1086,"o":"m 626 1285 l 739 1285 l 628 1049 l 532 1049 l 626 1285 m 347 28 q 144 207 218 88 q 69 485 69 326 q 136 749 69 633 q 318 928 203 864 q 578 992 433 992 q 726 972 653 992 l 774 1089 l 879 1089 l 818 938 q 1015 758 943 876 q 1086 485 1086 640 q 1019 221 1086 336 q 837 42 953 106 q 578 -21 721 -21 q 439 -4 506 -21 l 393 -119 l 288 -119 l 347 28 m 689 879 q 578 893 639 893 q 374 842 465 892 q 231 699 283 792 q 178 485 178 607 q 233 264 178 358 q 385 121 289 169 l 689 879 m 578 76 q 781 126 689 76 q 925 269 872 176 q 978 485 978 361 q 925 700 978 607 q 781 843 872 793 l 476 88 q 578 76 528 76 z "},"Õ":{"ha":1156,"x_min":69,"x_max":1086,"o":"m 321 1126 q 453 1186 360 1186 q 511 1178 483 1186 q 582 1151 539 1169 q 646 1126 618 1135 q 704 1117 674 1117 q 777 1133 744 1117 q 836 1189 810 1150 l 836 1093 q 704 1035 797 1035 q 639 1044 669 1035 q 569 1071 608 1053 q 506 1096 531 1088 q 453 1104 482 1104 q 382 1088 414 1104 q 321 1031 350 1071 l 321 1126 m 578 -21 q 319 42 435 -21 q 136 221 203 106 q 69 485 69 336 q 136 749 69 633 q 318 928 203 864 q 578 992 433 992 q 838 928 722 992 q 1019 749 953 864 q 1086 485 1086 633 q 1019 221 1086 336 q 837 42 953 106 q 578 -21 721 -21 m 578 76 q 781 126 689 76 q 925 269 872 176 q 978 485 978 361 q 926 699 978 607 q 783 842 874 792 q 581 893 692 893 q 376 843 468 893 q 231 700 285 793 q 178 485 178 607 q 231 269 178 361 q 375 126 283 176 q 578 76 467 76 z "},"Œ":{"ha":1235,"x_min":69,"x_max":1165,"o":"m 586 0 q 322 58 439 0 q 137 226 204 117 q 69 485 69 336 q 136 744 69 633 q 321 913 203 854 q 586 971 439 971 l 1165 971 l 1165 879 l 724 879 l 724 532 l 1038 532 l 1038 440 l 724 440 l 724 92 l 1165 92 l 1165 0 l 586 0 m 615 92 l 615 879 l 579 879 q 375 833 467 879 q 231 697 283 786 q 178 485 178 607 q 231 274 178 363 q 376 138 285 185 q 579 92 468 92 l 615 92 z "},"P":{"ha":822,"x_min":97,"x_max":781,"o":"m 97 971 l 457 971 q 695 899 610 971 q 781 685 781 826 q 696 471 781 542 q 457 400 611 400 l 206 400 l 206 0 l 97 0 l 97 971 m 449 492 q 613 534 553 492 q 672 685 672 576 q 613 837 672 794 q 449 879 553 879 l 206 879 l 206 492 l 449 492 z "},"Þ":{"ha":822,"x_min":97,"x_max":781,"o":"m 97 971 l 206 971 l 206 767 l 463 767 q 781 486 781 767 q 699 275 781 343 q 463 207 617 207 l 206 207 l 206 0 l 97 0 l 97 971 m 449 299 q 613 338 554 299 q 672 486 672 378 q 613 635 672 594 q 449 675 554 675 l 206 675 l 206 299 l 449 299 z "},"Q":{"ha":1139,"x_min":69,"x_max":1097,"o":"m 604 0 q 327 60 449 0 q 138 230 206 119 q 69 486 69 340 q 136 750 69 635 q 318 928 203 865 q 578 992 433 992 q 837 928 721 992 q 1019 750 953 865 q 1085 486 1085 635 q 1023 247 1085 350 q 856 92 961 143 l 1097 92 l 1097 0 l 604 0 m 578 100 q 781 145 690 100 q 923 278 871 190 q 975 486 975 365 q 922 699 975 607 q 779 842 869 792 q 578 892 689 892 q 376 842 467 892 q 232 699 285 792 q 179 486 179 607 q 231 277 179 364 q 372 145 282 190 q 578 100 463 100 z "},"R":{"ha":850,"x_min":97,"x_max":781,"o":"m 97 971 l 472 971 q 702 900 624 971 q 781 690 781 829 q 719 511 781 585 q 547 418 657 438 l 778 0 l 665 0 l 438 413 l 206 413 l 206 0 l 97 0 l 97 971 m 458 504 q 615 551 558 504 q 672 690 672 599 q 616 836 672 793 q 458 879 560 879 l 206 879 l 206 504 l 458 504 z "},"Ŕ":{"ha":850,"x_min":97,"x_max":781,"o":"m 421 1267 l 533 1267 l 422 1031 l 326 1031 l 421 1267 m 97 971 l 472 971 q 702 900 624 971 q 781 690 781 829 q 719 511 781 585 q 547 418 657 438 l 778 0 l 665 0 l 438 413 l 206 413 l 206 0 l 97 0 l 97 971 m 458 504 q 615 551 558 504 q 672 690 672 599 q 616 836 672 793 q 458 879 560 879 l 206 879 l 206 504 l 458 504 z "},"Ř":{"ha":850,"x_min":97,"x_max":781,"o":"m 158 1254 l 268 1254 l 396 1096 l 524 1254 l 632 1254 l 442 1031 l 349 1031 l 158 1254 m 97 971 l 472 971 q 702 900 624 971 q 781 690 781 829 q 719 511 781 585 q 547 418 657 438 l 778 0 l 665 0 l 438 413 l 206 413 l 206 0 l 97 0 l 97 971 m 458 504 q 615 551 558 504 q 672 690 672 599 q 616 836 672 793 q 458 879 560 879 l 206 879 l 206 504 l 458 504 z "},"Ŗ":{"ha":850,"x_min":97,"x_max":781,"o":"m 97 971 l 472 971 q 702 900 624 971 q 781 690 781 829 q 719 511 781 585 q 547 418 657 438 l 778 0 l 665 0 l 438 413 l 206 413 l 206 0 l 97 0 l 97 971 m 458 504 q 615 551 558 504 q 672 690 672 599 q 616 836 672 793 q 458 879 560 879 l 206 879 l 206 504 l 458 504 m 353 -87 l 465 -87 l 339 -361 l 242 -361 l 353 -87 z "},"Ṛ":{"ha":850,"x_min":97,"x_max":781,"o":"m 97 971 l 472 971 q 702 900 624 971 q 781 690 781 829 q 719 511 781 585 q 547 418 657 438 l 778 0 l 665 0 l 438 413 l 206 413 l 206 0 l 97 0 l 97 971 m 458 504 q 615 551 558 504 q 672 690 672 599 q 616 836 672 793 q 458 879 560 879 l 206 879 l 206 504 l 458 504 m 413 -211 q 364 -191 385 -211 q 343 -143 343 -171 q 364 -95 343 -115 q 413 -75 385 -75 q 460 -95 440 -75 q 481 -143 481 -115 q 460 -191 481 -171 q 413 -211 440 -211 z "},"Ṝ":{"ha":850,"x_min":97,"x_max":781,"o":"m 174 1168 l 592 1168 l 592 1093 l 174 1093 l 174 1168 m 97 971 l 472 971 q 702 900 624 971 q 781 690 781 829 q 719 511 781 585 q 547 418 657 438 l 778 0 l 665 0 l 438 413 l 206 413 l 206 0 l 97 0 l 97 971 m 458 504 q 615 551 558 504 q 672 690 672 599 q 616 836 672 793 q 458 879 560 879 l 206 879 l 206 504 l 458 504 m 382 -211 q 333 -191 354 -211 q 313 -143 313 -171 q 333 -95 313 -115 q 382 -75 354 -75 q 430 -95 410 -75 q 450 -143 450 -115 q 430 -191 450 -171 q 382 -211 410 -211 z "},"Ṟ":{"ha":850,"x_min":97,"x_max":781,"o":"m 97 971 l 472 971 q 702 900 624 971 q 781 690 781 829 q 719 511 781 585 q 547 418 657 438 l 778 0 l 665 0 l 438 413 l 206 413 l 206 0 l 97 0 l 97 971 m 458 504 q 615 551 558 504 q 672 690 672 599 q 616 836 672 793 q 458 879 560 879 l 206 879 l 206 504 l 458 504 m 188 -103 l 611 -103 l 611 -182 l 188 -182 l 188 -103 z "},"S":{"ha":771,"x_min":69,"x_max":701,"o":"m 356 -21 q 197 -7 275 -21 q 69 31 119 7 l 69 133 q 350 76 200 76 q 534 117 475 76 q 593 238 593 157 q 569 328 593 294 q 499 384 544 361 q 340 453 453 407 q 141 574 203 508 q 79 742 79 640 q 119 872 79 815 q 231 960 158 929 q 397 992 303 992 q 535 980 474 992 q 657 942 597 968 l 657 843 q 413 894 540 894 q 244 854 301 894 q 188 742 188 814 q 211 658 188 693 q 285 594 235 624 q 425 531 336 565 q 582 458 525 492 q 670 372 639 424 q 701 238 701 319 q 614 47 701 114 q 356 -21 526 -21 z "},"Ś":{"ha":771,"x_min":69,"x_max":701,"o":"m 431 1267 l 543 1267 l 432 1031 l 336 1031 l 431 1267 m 356 -21 q 197 -7 275 -21 q 69 31 119 7 l 69 133 q 350 76 200 76 q 534 117 475 76 q 593 238 593 157 q 569 328 593 294 q 499 384 544 361 q 340 453 453 407 q 141 574 203 508 q 79 742 79 640 q 119 872 79 815 q 231 960 158 929 q 397 992 303 992 q 535 980 474 992 q 657 942 597 968 l 657 843 q 413 894 540 894 q 244 854 301 894 q 188 742 188 814 q 211 658 188 693 q 285 594 235 624 q 425 531 336 565 q 582 458 525 492 q 670 372 639 424 q 701 238 701 319 q 614 47 701 114 q 356 -21 526 -21 z "},"Š":{"ha":771,"x_min":69,"x_max":701,"o":"m 175 1254 l 285 1254 l 413 1096 l 540 1254 l 649 1254 l 458 1031 l 365 1031 l 175 1254 m 356 -21 q 197 -7 275 -21 q 69 31 119 7 l 69 133 q 350 76 200 76 q 534 117 475 76 q 593 238 593 157 q 569 328 593 294 q 499 384 544 361 q 340 453 453 407 q 141 574 203 508 q 79 742 79 640 q 119 872 79 815 q 231 960 158 929 q 397 992 303 992 q 535 980 474 992 q 657 942 597 968 l 657 843 q 413 894 540 894 q 244 854 301 894 q 188 742 188 814 q 211 658 188 693 q 285 594 235 624 q 425 531 336 565 q 582 458 525 492 q 670 372 639 424 q 701 238 701 319 q 614 47 701 114 q 356 -21 526 -21 z "},"Ş":{"ha":771,"x_min":69,"x_max":701,"o":"m 701 238 q 630 60 701 126 q 419 -18 558 -6 l 393 -83 q 522 -211 522 -100 q 476 -307 522 -269 q 350 -344 429 -344 q 292 -340 321 -344 q 249 -331 264 -336 l 249 -264 q 285 -274 263 -269 q 328 -278 307 -278 q 422 -208 422 -278 q 390 -149 422 -168 q 279 -129 357 -129 l 321 -21 q 181 -4 249 -18 q 69 31 114 10 l 69 133 q 350 76 200 76 q 534 117 475 76 q 593 238 593 157 q 569 328 593 294 q 499 384 544 361 q 340 453 453 407 q 141 574 203 508 q 79 742 79 640 q 119 872 79 815 q 231 960 158 929 q 397 992 303 992 q 535 980 474 992 q 657 942 597 968 l 657 843 q 413 894 540 894 q 244 854 301 894 q 188 742 188 814 q 211 658 188 693 q 285 594 235 624 q 425 531 336 565 q 582 458 525 492 q 670 372 639 424 q 701 238 701 319 z "},"Ŝ":{"ha":771,"x_min":69,"x_max":701,"o":"m 353 1254 l 446 1254 l 636 1031 l 528 1031 l 400 1189 l 272 1031 l 163 1031 l 353 1254 m 356 -21 q 197 -7 275 -21 q 69 31 119 7 l 69 133 q 350 76 200 76 q 534 117 475 76 q 593 238 593 157 q 569 328 593 294 q 499 384 544 361 q 340 453 453 407 q 141 574 203 508 q 79 742 79 640 q 119 872 79 815 q 231 960 158 929 q 397 992 303 992 q 535 980 474 992 q 657 942 597 968 l 657 843 q 413 894 540 894 q 244 854 301 894 q 188 742 188 814 q 211 658 188 693 q 285 594 235 624 q 425 531 336 565 q 582 458 525 492 q 670 372 639 424 q 701 238 701 319 q 614 47 701 114 q 356 -21 526 -21 z "},"Ș":{"ha":771,"x_min":69,"x_max":701,"o":"m 356 -21 q 197 -7 275 -21 q 69 31 119 7 l 69 133 q 350 76 200 76 q 534 117 475 76 q 593 238 593 157 q 569 328 593 294 q 499 384 544 361 q 340 453 453 407 q 141 574 203 508 q 79 742 79 640 q 119 872 79 815 q 231 960 158 929 q 397 992 303 992 q 535 980 474 992 q 657 942 597 968 l 657 843 q 413 894 540 894 q 244 854 301 894 q 188 742 188 814 q 211 658 188 693 q 285 594 235 624 q 425 531 336 565 q 582 458 525 492 q 670 372 639 424 q 701 238 701 319 q 614 47 701 114 q 356 -21 526 -21 m 333 -87 l 446 -87 l 318 -360 l 221 -360 l 333 -87 z "},"Ṡ":{"ha":771,"x_min":69,"x_max":701,"o":"m 406 1031 q 357 1051 378 1031 q 336 1099 336 1071 q 357 1147 336 1126 q 406 1167 378 1167 q 453 1147 433 1167 q 474 1099 474 1126 q 453 1051 474 1071 q 406 1031 433 1031 m 356 -21 q 197 -7 275 -21 q 69 31 119 7 l 69 133 q 350 76 200 76 q 534 117 475 76 q 593 238 593 157 q 569 328 593 294 q 499 384 544 361 q 340 453 453 407 q 141 574 203 508 q 79 742 79 640 q 119 872 79 815 q 231 960 158 929 q 397 992 303 992 q 535 980 474 992 q 657 942 597 968 l 657 843 q 413 894 540 894 q 244 854 301 894 q 188 742 188 814 q 211 658 188 693 q 285 594 235 624 q 425 531 336 565 q 582 458 525 492 q 670 372 639 424 q 701 238 701 319 q 614 47 701 114 q 356 -21 526 -21 z "},"Ṣ":{"ha":771,"x_min":69,"x_max":701,"o":"m 356 -21 q 197 -7 275 -21 q 69 31 119 7 l 69 133 q 350 76 200 76 q 534 117 475 76 q 593 238 593 157 q 569 328 593 294 q 499 384 544 361 q 340 453 453 407 q 141 574 203 508 q 79 742 79 640 q 119 872 79 815 q 231 960 158 929 q 397 992 303 992 q 535 980 474 992 q 657 942 597 968 l 657 843 q 413 894 540 894 q 244 854 301 894 q 188 742 188 814 q 211 658 188 693 q 285 594 235 624 q 425 531 336 565 q 582 458 525 492 q 670 372 639 424 q 701 238 701 319 q 614 47 701 114 q 356 -21 526 -21 m 375 -211 q 326 -191 347 -211 q 306 -143 306 -171 q 326 -95 306 -115 q 375 -75 347 -75 q 423 -95 403 -75 q 443 -143 443 -115 q 423 -191 443 -171 q 375 -211 403 -211 z "},"ẞ":{"ha":853,"x_min":90,"x_max":783,"o":"m 479 -21 q 293 7 356 -21 l 293 106 q 368 83 329 89 q 460 76 407 76 q 622 126 569 76 q 675 275 675 176 q 431 465 675 465 l 378 465 l 378 538 l 582 739 q 527 851 575 808 q 401 893 479 893 q 255 840 311 893 q 199 672 199 788 l 199 0 l 90 0 l 90 667 q 173 910 90 829 q 401 992 256 992 q 562 956 496 992 q 661 859 628 919 q 697 724 694 799 l 508 540 q 783 275 783 521 q 705 61 783 143 q 479 -21 626 -21 z "},"Ə":{"ha":1140,"x_min":69,"x_max":1071,"o":"m 569 -21 q 295 42 408 -21 q 126 213 182 104 q 69 460 69 322 l 69 522 l 954 522 q 835 799 947 704 q 508 893 722 893 q 325 876 417 893 q 165 833 233 860 l 165 931 q 326 974 226 956 q 521 992 426 992 q 926 859 782 992 q 1071 486 1071 726 q 1013 218 1071 332 q 843 42 956 104 q 569 -21 731 -21 m 567 76 q 854 174 757 76 q 956 438 951 272 l 176 438 q 276 174 179 272 q 567 76 372 76 z "},"T":{"ha":814,"x_min":42,"x_max":772,"o":"m 353 879 l 42 879 l 42 971 l 772 971 l 772 879 l 461 879 l 461 0 l 353 0 l 353 879 z "},"Ŧ":{"ha":814,"x_min":42,"x_max":772,"o":"m 461 879 l 461 514 l 643 514 l 643 424 l 461 424 l 461 0 l 353 0 l 353 424 l 169 424 l 169 514 l 353 514 l 353 879 l 42 879 l 42 971 l 772 971 l 772 879 l 461 879 z "},"Ť":{"ha":814,"x_min":42,"x_max":772,"o":"m 171 1254 l 281 1254 l 408 1096 l 536 1254 l 644 1254 l 454 1031 l 361 1031 l 171 1254 m 353 879 l 42 879 l 42 971 l 772 971 l 772 879 l 461 879 l 461 0 l 353 0 l 353 879 z "},"Ţ":{"ha":814,"x_min":42,"x_max":772,"o":"m 457 0 l 424 -83 q 553 -211 553 -100 q 506 -307 553 -269 q 381 -344 460 -344 q 323 -340 351 -344 q 279 -331 294 -336 l 279 -264 q 315 -274 293 -269 q 358 -278 338 -278 q 453 -208 453 -278 q 420 -149 453 -168 q 310 -129 388 -129 l 358 0 l 353 0 l 353 879 l 42 879 l 42 971 l 772 971 l 772 879 l 461 879 l 461 0 l 457 0 z "},"Ț":{"ha":814,"x_min":42,"x_max":772,"o":"m 353 879 l 42 879 l 42 971 l 772 971 l 772 879 l 461 879 l 461 0 l 353 0 l 353 879 m 349 -87 l 461 -87 l 335 -361 l 238 -361 l 349 -87 z "},"Ṭ":{"ha":814,"x_min":42,"x_max":772,"o":"m 353 879 l 42 879 l 42 971 l 772 971 l 772 879 l 461 879 l 461 0 l 353 0 l 353 879 m 408 -211 q 360 -191 381 -211 q 339 -143 339 -171 q 360 -95 339 -115 q 408 -75 381 -75 q 456 -95 436 -75 q 476 -143 476 -115 q 456 -191 476 -171 q 408 -211 436 -211 z "},"Ṯ":{"ha":814,"x_min":42,"x_max":772,"o":"m 353 879 l 42 879 l 42 971 l 772 971 l 772 879 l 461 879 l 461 0 l 353 0 l 353 879 m 194 -103 l 618 -103 l 618 -182 l 194 -182 l 194 -103 z "},"U":{"ha":956,"x_min":90,"x_max":865,"o":"m 478 -21 q 188 76 286 -21 q 90 347 90 174 l 90 971 l 199 971 l 199 339 q 272 142 199 207 q 478 76 346 76 q 683 142 610 76 q 757 339 757 207 l 757 971 l 865 971 l 865 347 q 767 76 865 174 q 478 -21 669 -21 z "},"Ú":{"ha":956,"x_min":90,"x_max":865,"o":"m 514 1267 l 626 1267 l 515 1031 l 419 1031 l 514 1267 m 478 -21 q 188 76 286 -21 q 90 347 90 174 l 90 971 l 199 971 l 199 339 q 272 142 199 207 q 478 76 346 76 q 683 142 610 76 q 757 339 757 207 l 757 971 l 865 971 l 865 347 q 767 76 865 174 q 478 -21 669 -21 z "},"Ŭ":{"ha":956,"x_min":90,"x_max":865,"o":"m 479 1031 q 338 1081 390 1031 q 285 1211 285 1132 l 368 1211 q 398 1134 368 1163 q 479 1106 428 1106 q 560 1134 531 1106 q 590 1211 590 1163 l 672 1211 q 619 1081 672 1132 q 479 1031 567 1031 m 478 -21 q 188 76 286 -21 q 90 347 90 174 l 90 971 l 199 971 l 199 339 q 272 142 199 207 q 478 76 346 76 q 683 142 610 76 q 757 339 757 207 l 757 971 l 865 971 l 865 347 q 767 76 865 174 q 478 -21 669 -21 z "},"Ǔ":{"ha":956,"x_min":90,"x_max":865,"o":"m 242 1254 l 351 1254 l 479 1096 l 607 1254 l 715 1254 l 525 1031 l 432 1031 l 242 1254 m 478 -21 q 188 76 286 -21 q 90 347 90 174 l 90 971 l 199 971 l 199 339 q 272 142 199 207 q 478 76 346 76 q 683 142 610 76 q 757 339 757 207 l 757 971 l 865 971 l 865 347 q 767 76 865 174 q 478 -21 669 -21 z "},"Û":{"ha":956,"x_min":90,"x_max":865,"o":"m 432 1254 l 525 1254 l 715 1031 l 607 1031 l 479 1189 l 351 1031 l 242 1031 l 432 1254 m 478 -21 q 188 76 286 -21 q 90 347 90 174 l 90 971 l 199 971 l 199 339 q 272 142 199 207 q 478 76 346 76 q 683 142 610 76 q 757 339 757 207 l 757 971 l 865 971 l 865 347 q 767 76 865 174 q 478 -21 669 -21 z "},"Ü":{"ha":956,"x_min":90,"x_max":865,"o":"m 328 1031 q 279 1051 300 1031 q 258 1099 258 1071 q 279 1147 258 1126 q 328 1167 300 1167 q 376 1147 356 1167 q 396 1099 396 1126 q 376 1051 396 1071 q 328 1031 356 1031 m 629 1031 q 581 1051 601 1031 q 560 1099 560 1071 q 581 1147 560 1126 q 629 1167 601 1167 q 677 1147 657 1167 q 697 1099 697 1126 q 677 1051 697 1071 q 629 1031 657 1031 m 478 -21 q 188 76 286 -21 q 90 347 90 174 l 90 971 l 199 971 l 199 339 q 272 142 199 207 q 478 76 346 76 q 683 142 610 76 q 757 339 757 207 l 757 971 l 865 971 l 865 347 q 767 76 865 174 q 478 -21 669 -21 z "},"Ǘ":{"ha":956,"x_min":90,"x_max":865,"o":"m 511 1314 l 600 1314 l 513 1143 l 438 1143 l 511 1314 m 333 1031 q 285 1051 306 1031 q 264 1099 264 1071 q 285 1147 264 1126 q 333 1167 306 1167 q 381 1147 361 1167 q 401 1099 401 1126 q 381 1051 401 1071 q 333 1031 361 1031 m 635 1031 q 586 1051 607 1031 q 565 1099 565 1071 q 586 1147 565 1126 q 635 1167 607 1167 q 683 1147 663 1167 q 703 1099 703 1126 q 683 1051 703 1071 q 635 1031 663 1031 m 478 -21 q 188 76 286 -21 q 90 347 90 174 l 90 971 l 199 971 l 199 339 q 272 142 199 207 q 478 76 346 76 q 683 142 610 76 q 757 339 757 207 l 757 971 l 865 971 l 865 347 q 767 76 865 174 q 478 -21 669 -21 z "},"Ǚ":{"ha":956,"x_min":90,"x_max":865,"o":"m 271 1307 l 368 1307 l 479 1190 l 590 1307 l 686 1307 l 519 1138 l 439 1138 l 271 1307 m 326 1031 q 278 1051 299 1031 q 258 1099 258 1071 q 278 1147 258 1126 q 326 1167 299 1167 q 375 1147 354 1167 q 396 1099 396 1126 q 375 1051 396 1071 q 326 1031 354 1031 m 628 1031 q 580 1051 600 1031 q 560 1099 560 1071 q 580 1147 560 1126 q 628 1167 600 1167 q 676 1147 656 1167 q 697 1099 697 1126 q 676 1051 697 1071 q 628 1031 656 1031 m 478 -21 q 188 76 286 -21 q 90 347 90 174 l 90 971 l 199 971 l 199 339 q 272 142 199 207 q 478 76 346 76 q 683 142 610 76 q 757 339 757 207 l 757 971 l 865 971 l 865 347 q 767 76 865 174 q 478 -21 669 -21 z "},"Ǜ":{"ha":956,"x_min":90,"x_max":865,"o":"m 364 1314 l 453 1314 l 526 1143 l 451 1143 l 364 1314 m 329 1031 q 281 1051 301 1031 q 261 1099 261 1071 q 281 1147 261 1126 q 329 1167 301 1167 q 378 1147 357 1167 q 399 1099 399 1126 q 378 1051 399 1071 q 329 1031 357 1031 m 631 1031 q 583 1051 603 1031 q 563 1099 563 1071 q 583 1147 563 1126 q 631 1167 603 1167 q 679 1147 658 1167 q 700 1099 700 1126 q 679 1051 700 1071 q 631 1031 658 1031 m 478 -21 q 188 76 286 -21 q 90 347 90 174 l 90 971 l 199 971 l 199 339 q 272 142 199 207 q 478 76 346 76 q 683 142 610 76 q 757 339 757 207 l 757 971 l 865 971 l 865 347 q 767 76 865 174 q 478 -21 669 -21 z "},"Ǖ":{"ha":956,"x_min":90,"x_max":865,"o":"m 268 1343 l 686 1343 l 686 1268 l 268 1268 l 268 1343 m 326 1031 q 278 1051 299 1031 q 257 1099 257 1071 q 278 1147 257 1126 q 326 1167 299 1167 q 374 1147 354 1167 q 394 1099 394 1126 q 374 1051 394 1071 q 326 1031 354 1031 m 628 1031 q 579 1051 600 1031 q 558 1099 558 1071 q 579 1147 558 1126 q 628 1167 600 1167 q 676 1147 656 1167 q 696 1099 696 1126 q 676 1051 696 1071 q 628 1031 656 1031 m 478 -21 q 188 76 286 -21 q 90 347 90 174 l 90 971 l 199 971 l 199 339 q 272 142 199 207 q 478 76 346 76 q 683 142 610 76 q 757 339 757 207 l 757 971 l 865 971 l 865 347 q 767 76 865 174 q 478 -21 669 -21 z "},"Ụ":{"ha":956,"x_min":90,"x_max":865,"o":"m 478 -21 q 188 76 286 -21 q 90 347 90 174 l 90 971 l 199 971 l 199 339 q 272 142 199 207 q 478 76 346 76 q 683 142 610 76 q 757 339 757 207 l 757 971 l 865 971 l 865 347 q 767 76 865 174 q 478 -21 669 -21 m 479 -211 q 431 -191 451 -211 q 410 -143 410 -171 q 431 -95 410 -115 q 479 -75 451 -75 q 527 -95 507 -75 q 547 -143 547 -115 q 527 -191 547 -171 q 479 -211 507 -211 z "},"Ù":{"ha":956,"x_min":90,"x_max":865,"o":"m 328 1267 l 440 1267 l 535 1031 l 439 1031 l 328 1267 m 478 -21 q 188 76 286 -21 q 90 347 90 174 l 90 971 l 199 971 l 199 339 q 272 142 199 207 q 478 76 346 76 q 683 142 610 76 q 757 339 757 207 l 757 971 l 865 971 l 865 347 q 767 76 865 174 q 478 -21 669 -21 z "},"Ủ":{"ha":956,"x_min":90,"x_max":865,"o":"m 418 1125 q 516 1144 485 1125 q 547 1206 547 1163 q 524 1258 547 1242 q 450 1275 500 1275 q 404 1271 431 1275 q 367 1261 378 1267 l 367 1324 q 415 1335 385 1331 q 472 1339 444 1339 q 599 1304 556 1339 q 642 1210 642 1269 q 608 1122 642 1158 q 511 1079 574 1085 l 511 1031 l 418 1031 l 418 1125 m 478 -21 q 188 76 286 -21 q 90 347 90 174 l 90 971 l 199 971 l 199 339 q 272 142 199 207 q 478 76 346 76 q 683 142 610 76 q 757 339 757 207 l 757 971 l 865 971 l 865 347 q 767 76 865 174 q 478 -21 669 -21 z "},"Ư":{"ha":1131,"x_min":90,"x_max":1096,"o":"m 478 -21 q 188 76 286 -21 q 90 347 90 174 l 90 971 l 199 971 l 199 339 q 272 142 199 207 q 478 76 346 76 q 683 142 610 76 q 757 339 757 207 l 757 971 l 865 971 l 865 865 q 997 988 997 865 l 997 1038 l 1096 1038 l 1096 982 q 1069 880 1096 926 q 989 806 1042 833 q 865 779 936 779 l 865 347 q 767 76 865 174 q 478 -21 669 -21 z "},"Ứ":{"ha":1131,"x_min":90,"x_max":1096,"o":"m 524 1267 l 636 1267 l 525 1031 l 429 1031 l 524 1267 m 478 -21 q 188 76 286 -21 q 90 347 90 174 l 90 971 l 199 971 l 199 339 q 272 142 199 207 q 478 76 346 76 q 683 142 610 76 q 757 339 757 207 l 757 971 l 865 971 l 865 865 q 997 988 997 865 l 997 1038 l 1096 1038 l 1096 982 q 1069 880 1096 926 q 989 806 1042 833 q 865 779 936 779 l 865 347 q 767 76 865 174 q 478 -21 669 -21 z "},"Ự":{"ha":1131,"x_min":90,"x_max":1096,"o":"m 478 -21 q 188 76 286 -21 q 90 347 90 174 l 90 971 l 199 971 l 199 339 q 272 142 199 207 q 478 76 346 76 q 683 142 610 76 q 757 339 757 207 l 757 971 l 865 971 l 865 865 q 997 988 997 865 l 997 1038 l 1096 1038 l 1096 982 q 1069 880 1096 926 q 989 806 1042 833 q 865 779 936 779 l 865 347 q 767 76 865 174 q 478 -21 669 -21 m 475 -211 q 426 -191 447 -211 q 406 -143 406 -171 q 426 -95 406 -115 q 475 -75 447 -75 q 523 -95 503 -75 q 543 -143 543 -115 q 523 -191 543 -171 q 475 -211 503 -211 z "},"Ừ":{"ha":1131,"x_min":90,"x_max":1096,"o":"m 338 1267 l 450 1267 l 544 1031 l 449 1031 l 338 1267 m 478 -21 q 188 76 286 -21 q 90 347 90 174 l 90 971 l 199 971 l 199 339 q 272 142 199 207 q 478 76 346 76 q 683 142 610 76 q 757 339 757 207 l 757 971 l 865 971 l 865 865 q 997 988 997 865 l 997 1038 l 1096 1038 l 1096 982 q 1069 880 1096 926 q 989 806 1042 833 q 865 779 936 779 l 865 347 q 767 76 865 174 q 478 -21 669 -21 z "},"Ử":{"ha":1131,"x_min":90,"x_max":1096,"o":"m 421 1125 q 519 1144 488 1125 q 550 1206 550 1163 q 526 1258 550 1242 q 453 1275 503 1275 q 407 1271 433 1275 q 369 1261 381 1267 l 369 1324 q 417 1335 388 1331 q 475 1339 447 1339 q 601 1304 558 1339 q 644 1210 644 1269 q 610 1122 644 1158 q 514 1079 576 1085 l 514 1031 l 421 1031 l 421 1125 m 478 -21 q 188 76 286 -21 q 90 347 90 174 l 90 971 l 199 971 l 199 339 q 272 142 199 207 q 478 76 346 76 q 683 142 610 76 q 757 339 757 207 l 757 971 l 865 971 l 865 865 q 997 988 997 865 l 997 1038 l 1096 1038 l 1096 982 q 1069 880 1096 926 q 989 806 1042 833 q 865 779 936 779 l 865 347 q 767 76 865 174 q 478 -21 669 -21 z "},"Ữ":{"ha":1131,"x_min":90,"x_max":1096,"o":"m 226 1126 q 358 1186 265 1186 q 417 1178 389 1186 q 488 1151 444 1169 q 551 1126 524 1135 q 610 1117 579 1117 q 683 1133 650 1117 q 742 1189 715 1150 l 742 1093 q 610 1035 703 1035 q 544 1044 575 1035 q 475 1071 514 1053 q 412 1096 436 1088 q 358 1104 388 1104 q 288 1088 319 1104 q 226 1031 256 1071 l 226 1126 m 478 -21 q 188 76 286 -21 q 90 347 90 174 l 90 971 l 199 971 l 199 339 q 272 142 199 207 q 478 76 346 76 q 683 142 610 76 q 757 339 757 207 l 757 971 l 865 971 l 865 865 q 997 988 997 865 l 997 1038 l 1096 1038 l 1096 982 q 1069 880 1096 926 q 989 806 1042 833 q 865 779 936 779 l 865 347 q 767 76 865 174 q 478 -21 669 -21 z "},"Ű":{"ha":956,"x_min":90,"x_max":865,"o":"m 374 1267 l 486 1267 l 375 1031 l 279 1031 l 374 1267 m 638 1267 l 750 1267 l 639 1031 l 543 1031 l 638 1267 m 478 -21 q 188 76 286 -21 q 90 347 90 174 l 90 971 l 199 971 l 199 339 q 272 142 199 207 q 478 76 346 76 q 683 142 610 76 q 757 339 757 207 l 757 971 l 865 971 l 865 347 q 767 76 865 174 q 478 -21 669 -21 z "},"Ū":{"ha":956,"x_min":90,"x_max":865,"o":"m 268 1133 l 686 1133 l 686 1058 l 268 1058 l 268 1133 m 478 -21 q 188 76 286 -21 q 90 347 90 174 l 90 971 l 199 971 l 199 339 q 272 142 199 207 q 478 76 346 76 q 683 142 610 76 q 757 339 757 207 l 757 971 l 865 971 l 865 347 q 767 76 865 174 q 478 -21 669 -21 z "},"Ų":{"ha":956,"x_min":90,"x_max":865,"o":"m 865 971 l 865 347 q 781 90 865 186 q 529 -19 696 -6 q 446 -156 446 -83 q 462 -206 446 -190 q 513 -221 478 -221 q 578 -207 547 -221 l 578 -276 q 486 -292 543 -292 q 390 -260 428 -292 q 351 -171 351 -229 q 372 -89 351 -128 q 429 -19 393 -50 q 176 89 261 -7 q 90 347 90 185 l 90 971 l 199 971 l 199 339 q 272 142 199 207 q 478 76 346 76 q 683 142 610 76 q 757 339 757 207 l 757 971 l 865 971 z "},"Ů":{"ha":956,"x_min":90,"x_max":865,"o":"m 478 1031 q 372 1074 415 1031 q 328 1181 328 1118 q 372 1286 328 1242 q 478 1331 415 1331 q 583 1286 539 1331 q 628 1181 628 1242 q 583 1074 628 1118 q 478 1031 539 1031 m 478 1100 q 533 1124 510 1100 q 557 1181 557 1149 q 533 1236 557 1213 q 478 1260 510 1260 q 422 1236 444 1260 q 399 1181 399 1213 q 422 1124 399 1149 q 478 1100 446 1100 m 478 -21 q 188 76 286 -21 q 90 347 90 174 l 90 971 l 199 971 l 199 339 q 272 142 199 207 q 478 76 346 76 q 683 142 610 76 q 757 339 757 207 l 757 971 l 865 971 l 865 347 q 767 76 865 174 q 478 -21 669 -21 z "},"Ũ":{"ha":956,"x_min":90,"x_max":865,"o":"m 221 1126 q 353 1186 260 1186 q 411 1178 383 1186 q 482 1151 439 1169 q 546 1126 518 1135 q 604 1117 574 1117 q 677 1133 644 1117 q 736 1189 710 1150 l 736 1093 q 604 1035 697 1035 q 539 1044 569 1035 q 469 1071 508 1053 q 406 1096 431 1088 q 353 1104 382 1104 q 282 1088 314 1104 q 221 1031 250 1071 l 221 1126 m 478 -21 q 188 76 286 -21 q 90 347 90 174 l 90 971 l 199 971 l 199 339 q 272 142 199 207 q 478 76 346 76 q 683 142 610 76 q 757 339 757 207 l 757 971 l 865 971 l 865 347 q 767 76 865 174 q 478 -21 669 -21 z "},"V":{"ha":1015,"x_min":69,"x_max":946,"o":"m 69 971 l 183 971 l 507 150 l 832 971 l 946 971 l 558 0 l 457 0 l 69 971 z "},"W":{"ha":1401,"x_min":69,"x_max":1332,"o":"m 69 971 l 182 971 l 421 183 l 660 971 l 746 971 l 981 182 l 1219 971 l 1332 971 l 1042 0 l 936 0 l 700 793 l 465 0 l 360 0 l 69 971 z "},"Ẃ":{"ha":1401,"x_min":69,"x_max":1332,"o":"m 756 1267 l 868 1267 l 757 1031 l 661 1031 l 756 1267 m 69 971 l 182 971 l 421 183 l 660 971 l 746 971 l 981 182 l 1219 971 l 1332 971 l 1042 0 l 936 0 l 700 793 l 465 0 l 360 0 l 69 971 z "},"Ŵ":{"ha":1401,"x_min":69,"x_max":1332,"o":"m 654 1254 l 747 1254 l 938 1031 l 829 1031 l 701 1189 l 574 1031 l 464 1031 l 654 1254 m 69 971 l 182 971 l 421 183 l 660 971 l 746 971 l 981 182 l 1219 971 l 1332 971 l 1042 0 l 936 0 l 700 793 l 465 0 l 360 0 l 69 971 z "},"Ẅ":{"ha":1401,"x_min":69,"x_max":1332,"o":"m 550 1031 q 501 1051 522 1031 q 481 1099 481 1071 q 501 1147 481 1126 q 550 1167 522 1167 q 598 1147 578 1167 q 618 1099 618 1126 q 598 1051 618 1071 q 550 1031 578 1031 m 851 1031 q 803 1051 824 1031 q 782 1099 782 1071 q 803 1147 782 1126 q 851 1167 824 1167 q 899 1147 879 1167 q 919 1099 919 1126 q 899 1051 919 1071 q 851 1031 879 1031 m 69 971 l 182 971 l 421 183 l 660 971 l 746 971 l 981 182 l 1219 971 l 1332 971 l 1042 0 l 936 0 l 700 793 l 465 0 l 360 0 l 69 971 z "},"Ẁ":{"ha":1401,"x_min":69,"x_max":1332,"o":"m 533 1267 l 646 1267 l 740 1031 l 644 1031 l 533 1267 m 69 971 l 182 971 l 421 183 l 660 971 l 746 971 l 981 182 l 1219 971 l 1332 971 l 1042 0 l 936 0 l 700 793 l 465 0 l 360 0 l 69 971 z "},"X":{"ha":1004,"x_min":72,"x_max":932,"o":"m 440 497 l 90 971 l 214 971 l 501 581 l 790 971 l 914 971 l 564 497 l 932 0 l 808 0 l 501 414 l 196 0 l 72 0 l 440 497 z "},"Y":{"ha":953,"x_min":69,"x_max":883,"o":"m 422 368 l 69 971 l 185 971 l 476 467 l 769 971 l 883 971 l 531 368 l 531 0 l 422 0 l 422 368 z "},"Ý":{"ha":953,"x_min":69,"x_max":883,"o":"m 514 1267 l 626 1267 l 515 1031 l 419 1031 l 514 1267 m 422 368 l 69 971 l 185 971 l 476 467 l 769 971 l 883 971 l 531 368 l 531 0 l 422 0 l 422 368 z "},"Ŷ":{"ha":953,"x_min":69,"x_max":883,"o":"m 431 1254 l 524 1254 l 714 1031 l 606 1031 l 478 1189 l 350 1031 l 240 1031 l 431 1254 m 422 368 l 69 971 l 185 971 l 476 467 l 769 971 l 883 971 l 531 368 l 531 0 l 422 0 l 422 368 z "},"Ÿ":{"ha":953,"x_min":69,"x_max":883,"o":"m 326 1031 q 278 1051 299 1031 q 257 1099 257 1071 q 278 1147 257 1126 q 326 1167 299 1167 q 374 1147 354 1167 q 394 1099 394 1126 q 374 1051 394 1071 q 326 1031 354 1031 m 628 1031 q 579 1051 600 1031 q 558 1099 558 1071 q 579 1147 558 1126 q 628 1167 600 1167 q 676 1147 656 1167 q 696 1099 696 1126 q 676 1051 696 1071 q 628 1031 656 1031 m 422 368 l 69 971 l 185 971 l 476 467 l 769 971 l 883 971 l 531 368 l 531 0 l 422 0 l 422 368 z "},"Ẏ":{"ha":953,"x_min":69,"x_max":883,"o":"m 478 1031 q 429 1051 450 1031 q 408 1099 408 1071 q 429 1147 408 1126 q 478 1167 450 1167 q 526 1147 506 1167 q 546 1099 546 1126 q 526 1051 546 1071 q 478 1031 506 1031 m 422 368 l 69 971 l 185 971 l 476 467 l 769 971 l 883 971 l 531 368 l 531 0 l 422 0 l 422 368 z "},"Ỵ":{"ha":953,"x_min":69,"x_max":883,"o":"m 422 368 l 69 971 l 185 971 l 476 467 l 769 971 l 883 971 l 531 368 l 531 0 l 422 0 l 422 368 m 478 -211 q 429 -191 450 -211 q 408 -143 408 -171 q 429 -95 408 -115 q 478 -75 450 -75 q 526 -95 506 -75 q 546 -143 546 -115 q 526 -191 546 -171 q 478 -211 506 -211 z "},"Ỳ":{"ha":953,"x_min":69,"x_max":883,"o":"m 314 1267 l 426 1267 l 521 1031 l 425 1031 l 314 1267 m 422 368 l 69 971 l 185 971 l 476 467 l 769 971 l 883 971 l 531 368 l 531 0 l 422 0 l 422 368 z "},"Ỷ":{"ha":953,"x_min":69,"x_max":883,"o":"m 419 1125 q 517 1144 486 1125 q 549 1206 549 1163 q 525 1258 549 1242 q 451 1275 501 1275 q 406 1271 432 1275 q 368 1261 379 1267 l 368 1324 q 416 1335 386 1331 q 474 1339 446 1339 q 600 1304 557 1339 q 643 1210 643 1269 q 609 1122 643 1158 q 513 1079 575 1085 l 513 1031 l 419 1031 l 419 1125 m 422 368 l 69 971 l 185 971 l 476 467 l 769 971 l 883 971 l 531 368 l 531 0 l 422 0 l 422 368 z "},"Ỹ":{"ha":953,"x_min":69,"x_max":883,"o":"m 219 1126 q 351 1186 258 1186 q 410 1178 382 1186 q 481 1151 438 1169 q 544 1126 517 1135 q 603 1117 572 1117 q 676 1133 643 1117 q 735 1189 708 1150 l 735 1093 q 603 1035 696 1035 q 538 1044 568 1035 q 468 1071 507 1053 q 405 1096 429 1088 q 351 1104 381 1104 q 281 1088 313 1104 q 219 1031 249 1071 l 219 1126 m 422 368 l 69 971 l 185 971 l 476 467 l 769 971 l 883 971 l 531 368 l 531 0 l 422 0 l 422 368 z "},"Z":{"ha":857,"x_min":69,"x_max":788,"o":"m 69 76 l 636 879 l 83 879 l 83 971 l 767 971 l 767 893 l 201 90 l 788 90 l 788 0 l 69 0 l 69 76 z "},"Ź":{"ha":857,"x_min":69,"x_max":788,"o":"m 442 1267 l 554 1267 l 443 1031 l 347 1031 l 442 1267 m 69 76 l 636 879 l 83 879 l 83 971 l 767 971 l 767 893 l 201 90 l 788 90 l 788 0 l 69 0 l 69 76 z "},"Ž":{"ha":857,"x_min":69,"x_max":788,"o":"m 193 1254 l 303 1254 l 431 1096 l 558 1254 l 667 1254 l 476 1031 l 383 1031 l 193 1254 m 69 76 l 636 879 l 83 879 l 83 971 l 767 971 l 767 893 l 201 90 l 788 90 l 788 0 l 69 0 l 69 76 z "},"Ż":{"ha":857,"x_min":69,"x_max":788,"o":"m 415 1031 q 367 1051 388 1031 q 346 1099 346 1071 q 367 1147 346 1126 q 415 1167 388 1167 q 463 1147 443 1167 q 483 1099 483 1126 q 463 1051 483 1071 q 415 1031 443 1031 m 69 76 l 636 879 l 83 879 l 83 971 l 767 971 l 767 893 l 201 90 l 788 90 l 788 0 l 69 0 l 69 76 z "},"Ẓ":{"ha":857,"x_min":69,"x_max":788,"o":"m 69 76 l 636 879 l 83 879 l 83 971 l 767 971 l 767 893 l 201 90 l 788 90 l 788 0 l 69 0 l 69 76 m 442 -211 q 393 -191 414 -211 q 372 -143 372 -171 q 393 -95 372 -115 q 442 -75 414 -75 q 490 -95 469 -75 q 510 -143 510 -115 q 490 -191 510 -171 q 442 -211 469 -211 z "},"a":{"ha":781,"x_min":69,"x_max":690,"o":"m 331 -21 q 140 40 210 -21 q 69 206 69 100 q 138 374 69 315 q 335 433 206 433 q 583 374 479 433 l 583 424 q 532 558 583 514 q 369 601 481 601 q 151 557 251 601 l 151 647 q 257 676 193 665 q 379 688 321 688 q 614 616 538 688 q 690 418 690 544 l 690 0 l 590 0 l 590 86 q 331 -21 503 -21 m 357 67 q 492 97 432 67 q 583 181 553 126 l 583 288 q 476 334 529 319 q 356 349 422 349 q 219 313 261 349 q 176 206 176 278 q 357 67 176 67 z "},"á":{"ha":781,"x_min":69,"x_max":690,"o":"m 446 979 l 558 979 l 447 743 l 351 743 l 446 979 m 331 -21 q 140 40 210 -21 q 69 206 69 100 q 138 374 69 315 q 335 433 206 433 q 583 374 479 433 l 583 424 q 532 558 583 514 q 369 601 481 601 q 151 557 251 601 l 151 647 q 257 676 193 665 q 379 688 321 688 q 614 616 538 688 q 690 418 690 544 l 690 0 l 590 0 l 590 86 q 331 -21 503 -21 m 357 67 q 492 97 432 67 q 583 181 553 126 l 583 288 q 476 334 529 319 q 356 349 422 349 q 219 313 261 349 q 176 206 176 278 q 357 67 176 67 z "},"ă":{"ha":781,"x_min":69,"x_max":690,"o":"m 421 743 q 279 794 332 743 q 226 924 226 844 l 310 924 q 340 847 310 875 q 421 818 369 818 q 502 847 472 818 q 532 924 532 875 l 614 924 q 561 794 614 844 q 421 743 508 743 m 331 -21 q 140 40 210 -21 q 69 206 69 100 q 138 374 69 315 q 335 433 206 433 q 583 374 479 433 l 583 424 q 532 558 583 514 q 369 601 481 601 q 151 557 251 601 l 151 647 q 257 676 193 665 q 379 688 321 688 q 614 616 538 688 q 690 418 690 544 l 690 0 l 590 0 l 590 86 q 331 -21 503 -21 m 357 67 q 492 97 432 67 q 583 181 553 126 l 583 288 q 476 334 529 319 q 356 349 422 349 q 219 313 261 349 q 176 206 176 278 q 357 67 176 67 z "},"ắ":{"ha":781,"x_min":69,"x_max":690,"o":"m 428 1071 l 517 1071 l 429 900 l 354 900 l 428 1071 m 403 743 q 265 793 317 743 q 213 921 213 843 l 293 921 q 322 844 293 872 q 403 817 351 817 q 483 844 454 817 q 513 921 513 872 l 593 921 q 541 793 593 843 q 403 743 489 743 m 331 -21 q 140 40 210 -21 q 69 206 69 100 q 138 374 69 315 q 335 433 206 433 q 583 374 479 433 l 583 424 q 532 558 583 514 q 369 601 481 601 q 151 557 251 601 l 151 647 q 257 676 193 665 q 379 688 321 688 q 614 616 538 688 q 690 418 690 544 l 690 0 l 590 0 l 590 86 q 331 -21 503 -21 m 357 67 q 492 97 432 67 q 583 181 553 126 l 583 288 q 476 334 529 319 q 356 349 422 349 q 219 313 261 349 q 176 206 176 278 q 357 67 176 67 z "},"ặ":{"ha":781,"x_min":69,"x_max":690,"o":"m 393 743 q 251 794 304 743 q 199 924 199 844 l 282 924 q 312 847 282 875 q 393 818 342 818 q 474 847 444 818 q 504 924 504 875 l 586 924 q 533 794 586 844 q 393 743 481 743 m 331 -21 q 140 40 210 -21 q 69 206 69 100 q 138 374 69 315 q 335 433 206 433 q 583 374 479 433 l 583 424 q 532 558 583 514 q 369 601 481 601 q 151 557 251 601 l 151 647 q 257 676 193 665 q 379 688 321 688 q 614 616 538 688 q 690 418 690 544 l 690 0 l 590 0 l 590 86 q 331 -21 503 -21 m 357 67 q 492 97 432 67 q 583 181 553 126 l 583 288 q 476 334 529 319 q 356 349 422 349 q 219 313 261 349 q 176 206 176 278 q 357 67 176 67 m 394 -211 q 346 -191 367 -211 q 325 -143 325 -171 q 346 -95 325 -115 q 394 -75 367 -75 q 442 -95 422 -75 q 463 -143 463 -115 q 442 -191 463 -171 q 394 -211 422 -211 z "},"ằ":{"ha":781,"x_min":69,"x_max":690,"o":"m 294 1071 l 385 1071 l 458 900 l 383 900 l 294 1071 m 408 743 q 270 793 322 743 q 218 921 218 843 l 299 921 q 328 844 299 872 q 408 817 357 817 q 489 844 460 817 q 518 921 518 872 l 599 921 q 547 793 599 843 q 408 743 494 743 m 331 -21 q 140 40 210 -21 q 69 206 69 100 q 138 374 69 315 q 335 433 206 433 q 583 374 479 433 l 583 424 q 532 558 583 514 q 369 601 481 601 q 151 557 251 601 l 151 647 q 257 676 193 665 q 379 688 321 688 q 614 616 538 688 q 690 418 690 544 l 690 0 l 590 0 l 590 86 q 331 -21 503 -21 m 357 67 q 492 97 432 67 q 583 181 553 126 l 583 288 q 476 334 529 319 q 356 349 422 349 q 219 313 261 349 q 176 206 176 278 q 357 67 176 67 z "},"ẳ":{"ha":781,"x_min":69,"x_max":690,"o":"m 364 951 q 450 1001 450 951 q 389 1047 450 1047 q 326 1036 349 1047 l 326 1086 q 410 1099 361 1099 q 497 1074 467 1099 q 526 1007 526 1050 q 501 947 526 972 q 433 917 476 922 l 433 882 l 364 882 l 364 951 m 403 743 q 265 793 317 743 q 213 921 213 843 l 292 921 q 322 844 292 872 q 403 815 351 815 q 484 844 454 815 q 514 921 514 872 l 593 921 q 541 793 593 843 q 403 743 489 743 m 331 -21 q 140 40 210 -21 q 69 206 69 100 q 138 374 69 315 q 335 433 206 433 q 583 374 479 433 l 583 424 q 532 558 583 514 q 369 601 481 601 q 151 557 251 601 l 151 647 q 257 676 193 665 q 379 688 321 688 q 614 616 538 688 q 690 418 690 544 l 690 0 l 590 0 l 590 86 q 331 -21 503 -21 m 357 67 q 492 97 432 67 q 583 181 553 126 l 583 288 q 476 334 529 319 q 356 349 422 349 q 219 313 261 349 q 176 206 176 278 q 357 67 176 67 z "},"ẵ":{"ha":781,"x_min":69,"x_max":690,"o":"m 188 1028 q 303 1079 222 1079 q 356 1072 331 1079 q 417 1049 381 1064 q 473 1026 449 1033 q 524 1018 497 1018 q 639 1082 594 1018 l 639 997 q 524 947 607 947 q 466 956 493 947 q 406 979 439 964 q 349 1000 371 993 q 303 1007 328 1007 q 241 993 269 1007 q 188 943 213 979 l 188 1028 m 421 743 q 283 793 335 743 q 231 921 231 843 l 310 921 q 340 844 310 872 q 421 815 369 815 q 502 844 472 815 q 532 921 532 872 l 611 921 q 559 793 611 843 q 421 743 507 743 m 331 -21 q 140 40 210 -21 q 69 206 69 100 q 138 374 69 315 q 335 433 206 433 q 583 374 479 433 l 583 424 q 532 558 583 514 q 369 601 481 601 q 151 557 251 601 l 151 647 q 257 676 193 665 q 379 688 321 688 q 614 616 538 688 q 690 418 690 544 l 690 0 l 590 0 l 590 86 q 331 -21 503 -21 m 357 67 q 492 97 432 67 q 583 181 553 126 l 583 288 q 476 334 529 319 q 356 349 422 349 q 219 313 261 349 q 176 206 176 278 q 357 67 176 67 z "},"ǎ":{"ha":781,"x_min":69,"x_max":690,"o":"m 168 967 l 278 967 l 406 808 l 533 967 l 642 967 l 451 743 l 358 743 l 168 967 m 331 -21 q 140 40 210 -21 q 69 206 69 100 q 138 374 69 315 q 335 433 206 433 q 583 374 479 433 l 583 424 q 532 558 583 514 q 369 601 481 601 q 151 557 251 601 l 151 647 q 257 676 193 665 q 379 688 321 688 q 614 616 538 688 q 690 418 690 544 l 690 0 l 590 0 l 590 86 q 331 -21 503 -21 m 357 67 q 492 97 432 67 q 583 181 553 126 l 583 288 q 476 334 529 319 q 356 349 422 349 q 219 313 261 349 q 176 206 176 278 q 357 67 176 67 z "},"â":{"ha":781,"x_min":69,"x_max":690,"o":"m 358 967 l 451 967 l 642 743 l 533 743 l 406 901 l 278 743 l 168 743 l 358 967 m 331 -21 q 140 40 210 -21 q 69 206 69 100 q 138 374 69 315 q 335 433 206 433 q 583 374 479 433 l 583 424 q 532 558 583 514 q 369 601 481 601 q 151 557 251 601 l 151 647 q 257 676 193 665 q 379 688 321 688 q 614 616 538 688 q 690 418 690 544 l 690 0 l 590 0 l 590 86 q 331 -21 503 -21 m 357 67 q 492 97 432 67 q 583 181 553 126 l 583 288 q 476 334 529 319 q 356 349 422 349 q 219 313 261 349 q 176 206 176 278 q 357 67 176 67 z "},"ấ":{"ha":781,"x_min":69,"x_max":717,"o":"m 628 1053 l 717 1053 l 604 886 l 529 886 l 628 1053 m 363 935 l 456 935 l 646 743 l 538 743 l 410 875 l 282 743 l 172 743 l 363 935 m 331 -21 q 140 40 210 -21 q 69 206 69 100 q 138 374 69 315 q 335 433 206 433 q 583 374 479 433 l 583 424 q 532 558 583 514 q 369 601 481 601 q 151 557 251 601 l 151 647 q 257 676 193 665 q 379 688 321 688 q 614 616 538 688 q 690 418 690 544 l 690 0 l 590 0 l 590 86 q 331 -21 503 -21 m 357 67 q 492 97 432 67 q 583 181 553 126 l 583 288 q 476 334 529 319 q 356 349 422 349 q 219 313 261 349 q 176 206 176 278 q 357 67 176 67 z "},"ậ":{"ha":781,"x_min":69,"x_max":690,"o":"m 356 967 l 449 967 l 639 743 l 531 743 l 403 901 l 275 743 l 165 743 l 356 967 m 331 -21 q 140 40 210 -21 q 69 206 69 100 q 138 374 69 315 q 335 433 206 433 q 583 374 479 433 l 583 424 q 532 558 583 514 q 369 601 481 601 q 151 557 251 601 l 151 647 q 257 676 193 665 q 379 688 321 688 q 614 616 538 688 q 690 418 690 544 l 690 0 l 590 0 l 590 86 q 331 -21 503 -21 m 357 67 q 492 97 432 67 q 583 181 553 126 l 583 288 q 476 334 529 319 q 356 349 422 349 q 219 313 261 349 q 176 206 176 278 q 357 67 176 67 m 394 -211 q 346 -191 367 -211 q 325 -143 325 -171 q 346 -95 325 -115 q 394 -75 367 -75 q 442 -95 422 -75 q 463 -143 463 -115 q 442 -191 463 -171 q 394 -211 422 -211 z "},"ầ":{"ha":781,"x_min":69,"x_max":690,"o":"m 88 1053 l 176 1053 l 275 886 l 200 886 l 88 1053 m 349 935 l 442 935 l 632 743 l 522 743 l 394 875 l 267 743 l 158 743 l 349 935 m 331 -21 q 140 40 210 -21 q 69 206 69 100 q 138 374 69 315 q 335 433 206 433 q 583 374 479 433 l 583 424 q 532 558 583 514 q 369 601 481 601 q 151 557 251 601 l 151 647 q 257 676 193 665 q 379 688 321 688 q 614 616 538 688 q 690 418 690 544 l 690 0 l 590 0 l 590 86 q 331 -21 503 -21 m 357 67 q 492 97 432 67 q 583 181 553 126 l 583 288 q 476 334 529 319 q 356 349 422 349 q 219 313 261 349 q 176 206 176 278 q 357 67 176 67 z "},"ẩ":{"ha":781,"x_min":69,"x_max":690,"o":"m 528 946 q 614 996 614 946 q 553 1042 614 1042 q 490 1031 513 1042 l 490 1081 q 574 1093 525 1093 q 660 1069 631 1093 q 690 1001 690 1044 q 665 942 690 967 q 597 911 640 917 l 597 876 l 528 876 l 528 946 m 354 935 l 447 935 l 638 743 l 528 743 l 400 875 l 272 743 l 164 743 l 354 935 m 331 -21 q 140 40 210 -21 q 69 206 69 100 q 138 374 69 315 q 335 433 206 433 q 583 374 479 433 l 583 424 q 532 558 583 514 q 369 601 481 601 q 151 557 251 601 l 151 647 q 257 676 193 665 q 379 688 321 688 q 614 616 538 688 q 690 418 690 544 l 690 0 l 590 0 l 590 86 q 331 -21 503 -21 m 357 67 q 492 97 432 67 q 583 181 553 126 l 583 288 q 476 334 529 319 q 356 349 422 349 q 219 313 261 349 q 176 206 176 278 q 357 67 176 67 z "},"ẫ":{"ha":781,"x_min":69,"x_max":690,"o":"m 188 1022 q 303 1074 222 1074 q 356 1066 331 1074 q 417 1043 381 1058 q 473 1020 449 1028 q 524 1013 497 1013 q 639 1076 594 1013 l 639 992 q 524 942 607 942 q 466 950 493 942 q 406 974 439 958 q 349 994 371 988 q 303 1001 328 1001 q 241 988 269 1001 q 188 938 213 974 l 188 1022 m 360 935 l 453 935 l 643 743 l 533 743 l 406 875 l 278 743 l 169 743 l 360 935 m 331 -21 q 140 40 210 -21 q 69 206 69 100 q 138 374 69 315 q 335 433 206 433 q 583 374 479 433 l 583 424 q 532 558 583 514 q 369 601 481 601 q 151 557 251 601 l 151 647 q 257 676 193 665 q 379 688 321 688 q 614 616 538 688 q 690 418 690 544 l 690 0 l 590 0 l 590 86 q 331 -21 503 -21 m 357 67 q 492 97 432 67 q 583 181 553 126 l 583 288 q 476 334 529 319 q 356 349 422 349 q 219 313 261 349 q 176 206 176 278 q 357 67 176 67 z "},"ä":{"ha":781,"x_min":69,"x_max":690,"o":"m 260 743 q 211 763 232 743 q 190 811 190 783 q 211 859 190 839 q 260 879 232 879 q 308 859 288 879 q 328 811 328 839 q 308 763 328 783 q 260 743 288 743 m 561 743 q 513 763 533 743 q 492 811 492 783 q 513 859 492 839 q 561 879 533 879 q 609 859 589 879 q 629 811 629 839 q 609 763 629 783 q 561 743 589 743 m 331 -21 q 140 40 210 -21 q 69 206 69 100 q 138 374 69 315 q 335 433 206 433 q 583 374 479 433 l 583 424 q 532 558 583 514 q 369 601 481 601 q 151 557 251 601 l 151 647 q 257 676 193 665 q 379 688 321 688 q 614 616 538 688 q 690 418 690 544 l 690 0 l 590 0 l 590 86 q 331 -21 503 -21 m 357 67 q 492 97 432 67 q 583 181 553 126 l 583 288 q 476 334 529 319 q 356 349 422 349 q 219 313 261 349 q 176 206 176 278 q 357 67 176 67 z "},"ạ":{"ha":781,"x_min":69,"x_max":690,"o":"m 331 -21 q 140 40 210 -21 q 69 206 69 100 q 138 374 69 315 q 335 433 206 433 q 583 374 479 433 l 583 424 q 532 558 583 514 q 369 601 481 601 q 151 557 251 601 l 151 647 q 257 676 193 665 q 379 688 321 688 q 614 616 538 688 q 690 418 690 544 l 690 0 l 590 0 l 590 86 q 331 -21 503 -21 m 357 67 q 492 97 432 67 q 583 181 553 126 l 583 288 q 476 334 529 319 q 356 349 422 349 q 219 313 261 349 q 176 206 176 278 q 357 67 176 67 m 383 -211 q 335 -191 356 -211 q 314 -143 314 -171 q 335 -95 314 -115 q 383 -75 356 -75 q 431 -95 411 -75 q 451 -143 451 -115 q 431 -191 451 -171 q 383 -211 411 -211 z "},"à":{"ha":781,"x_min":69,"x_max":690,"o":"m 261 979 l 374 979 l 468 743 l 372 743 l 261 979 m 331 -21 q 140 40 210 -21 q 69 206 69 100 q 138 374 69 315 q 335 433 206 433 q 583 374 479 433 l 583 424 q 532 558 583 514 q 369 601 481 601 q 151 557 251 601 l 151 647 q 257 676 193 665 q 379 688 321 688 q 614 616 538 688 q 690 418 690 544 l 690 0 l 590 0 l 590 86 q 331 -21 503 -21 m 357 67 q 492 97 432 67 q 583 181 553 126 l 583 288 q 476 334 529 319 q 356 349 422 349 q 219 313 261 349 q 176 206 176 278 q 357 67 176 67 z "},"ả":{"ha":781,"x_min":69,"x_max":690,"o":"m 353 838 q 451 856 419 838 q 482 918 482 875 q 458 971 482 954 q 385 988 435 988 q 339 983 365 988 q 301 974 313 979 l 301 1036 q 349 1047 319 1043 q 407 1051 379 1051 q 533 1017 490 1051 q 576 922 576 982 q 542 834 576 871 q 446 792 508 797 l 446 743 l 353 743 l 353 838 m 331 -21 q 140 40 210 -21 q 69 206 69 100 q 138 374 69 315 q 335 433 206 433 q 583 374 479 433 l 583 424 q 532 558 583 514 q 369 601 481 601 q 151 557 251 601 l 151 647 q 257 676 193 665 q 379 688 321 688 q 614 616 538 688 q 690 418 690 544 l 690 0 l 590 0 l 590 86 q 331 -21 503 -21 m 357 67 q 492 97 432 67 q 583 181 553 126 l 583 288 q 476 334 529 319 q 356 349 422 349 q 219 313 261 349 q 176 206 176 278 q 357 67 176 67 z "},"ɑ":{"ha":911,"x_min":69,"x_max":814,"o":"m 418 -21 q 240 22 319 -21 q 115 146 161 65 q 69 332 69 226 q 115 517 69 436 q 240 643 160 599 q 418 688 319 688 q 588 653 514 688 q 707 554 663 619 l 707 667 l 814 667 l 814 0 l 710 0 l 710 117 q 585 13 657 47 q 418 -21 514 -21 m 440 64 q 608 113 536 64 q 707 249 679 163 l 707 415 q 609 551 681 501 q 440 601 538 601 q 306 567 367 601 q 211 472 246 533 q 176 332 176 411 q 211 192 176 253 q 306 97 246 131 q 440 64 367 64 z "},"ā":{"ha":781,"x_min":69,"x_max":690,"o":"m 210 846 l 628 846 l 628 771 l 210 771 l 210 846 m 331 -21 q 140 40 210 -21 q 69 206 69 100 q 138 374 69 315 q 335 433 206 433 q 583 374 479 433 l 583 424 q 532 558 583 514 q 369 601 481 601 q 151 557 251 601 l 151 647 q 257 676 193 665 q 379 688 321 688 q 614 616 538 688 q 690 418 690 544 l 690 0 l 590 0 l 590 86 q 331 -21 503 -21 m 357 67 q 492 97 432 67 q 583 181 553 126 l 583 288 q 476 334 529 319 q 356 349 422 349 q 219 313 261 349 q 176 206 176 278 q 357 67 176 67 z "},"ą":{"ha":781,"x_min":69,"x_max":713,"o":"m 647 -221 q 713 -207 682 -221 l 713 -276 q 621 -292 678 -292 q 524 -260 563 -292 q 486 -171 486 -229 q 515 -75 486 -119 q 590 0 544 -31 l 590 86 q 331 -21 503 -21 q 140 40 210 -21 q 69 206 69 100 q 138 374 69 315 q 335 433 206 433 q 583 374 479 433 l 583 424 q 532 558 583 514 q 369 601 481 601 q 151 557 251 601 l 151 647 q 257 676 193 665 q 379 688 321 688 q 614 616 538 688 q 690 418 690 544 l 690 0 q 608 -75 636 -37 q 581 -156 581 -112 q 597 -206 581 -190 q 647 -221 613 -221 m 583 288 q 476 334 529 319 q 356 349 422 349 q 219 313 261 349 q 176 206 176 278 q 357 67 176 67 q 492 97 432 67 q 583 181 553 126 l 583 288 z "},"å":{"ha":781,"x_min":69,"x_max":690,"o":"m 414 743 q 308 787 351 743 q 264 893 264 831 q 308 999 264 954 q 414 1043 351 1043 q 519 999 475 1043 q 564 893 564 954 q 519 787 564 831 q 414 743 475 743 m 414 813 q 469 837 446 813 q 493 893 493 861 q 469 949 493 925 q 414 972 446 972 q 358 949 381 972 q 335 893 335 925 q 358 837 335 861 q 414 813 382 813 m 331 -21 q 140 40 210 -21 q 69 206 69 100 q 138 374 69 315 q 335 433 206 433 q 583 374 479 433 l 583 424 q 532 558 583 514 q 369 601 481 601 q 151 557 251 601 l 151 647 q 257 676 193 665 q 379 688 321 688 q 614 616 538 688 q 690 418 690 544 l 690 0 l 590 0 l 590 86 q 331 -21 503 -21 m 357 67 q 492 97 432 67 q 583 181 553 126 l 583 288 q 476 334 529 319 q 356 349 422 349 q 219 313 261 349 q 176 206 176 278 q 357 67 176 67 z "},"ǻ":{"ha":781,"x_min":69,"x_max":690,"o":"m 450 1274 l 563 1274 l 451 1085 l 356 1085 l 450 1274 m 404 743 q 298 787 342 743 q 254 893 254 831 q 298 999 254 954 q 404 1043 342 1043 q 510 999 465 1043 q 554 893 554 954 q 510 787 554 831 q 404 743 465 743 m 404 813 q 460 837 436 813 q 483 893 483 861 q 460 949 483 925 q 404 972 436 972 q 348 949 371 972 q 325 893 325 925 q 349 837 325 861 q 404 813 372 813 m 331 -21 q 140 40 210 -21 q 69 206 69 100 q 138 374 69 315 q 335 433 206 433 q 583 374 479 433 l 583 424 q 532 558 583 514 q 369 601 481 601 q 151 557 251 601 l 151 647 q 257 676 193 665 q 379 688 321 688 q 614 616 538 688 q 690 418 690 544 l 690 0 l 590 0 l 590 86 q 331 -21 503 -21 m 357 67 q 492 97 432 67 q 583 181 553 126 l 583 288 q 476 334 529 319 q 356 349 422 349 q 219 313 261 349 q 176 206 176 278 q 357 67 176 67 z "},"ã":{"ha":781,"x_min":69,"x_max":690,"o":"m 163 839 q 294 899 201 899 q 353 890 325 899 q 424 864 381 882 q 488 838 460 847 q 546 829 515 829 q 619 846 586 829 q 678 901 651 863 l 678 806 q 546 747 639 747 q 481 756 511 747 q 411 783 450 765 q 348 808 372 800 q 294 817 324 817 q 224 800 256 817 q 163 743 192 783 l 163 839 m 331 -21 q 140 40 210 -21 q 69 206 69 100 q 138 374 69 315 q 335 433 206 433 q 583 374 479 433 l 583 424 q 532 558 583 514 q 369 601 481 601 q 151 557 251 601 l 151 647 q 257 676 193 665 q 379 688 321 688 q 614 616 538 688 q 690 418 690 544 l 690 0 l 590 0 l 590 86 q 331 -21 503 -21 m 357 67 q 492 97 432 67 q 583 181 553 126 l 583 288 q 476 334 529 319 q 356 349 422 349 q 219 313 261 349 q 176 206 176 278 q 357 67 176 67 z "},"æ":{"ha":1354,"x_min":69,"x_max":1285,"o":"m 331 -21 q 140 40 210 -21 q 69 206 69 100 q 138 374 69 315 q 335 433 206 433 q 583 374 479 433 l 583 424 q 532 558 583 514 q 369 601 481 601 q 151 557 251 601 l 151 647 q 257 676 193 665 q 379 688 321 688 q 647 563 571 688 q 932 688 739 688 q 1125 644 1046 688 q 1244 524 1204 600 q 1285 350 1285 447 l 1285 292 l 683 292 q 766 121 689 178 q 976 64 843 64 q 1105 76 1042 64 q 1218 108 1168 88 l 1218 18 q 1105 -10 1176 1 q 965 -21 1033 -21 q 646 121 746 -21 q 331 -21 533 -21 m 1185 368 q 1118 539 1182 476 q 931 601 1054 601 q 749 537 811 601 q 683 368 686 472 l 1185 368 m 357 67 q 492 97 432 67 q 583 181 553 126 l 583 288 q 476 334 529 319 q 356 349 422 349 q 219 313 261 349 q 176 206 176 278 q 357 67 176 67 z "},"ǽ":{"ha":1354,"x_min":69,"x_max":1285,"o":"m 714 979 l 826 979 l 715 743 l 619 743 l 714 979 m 331 -21 q 140 40 210 -21 q 69 206 69 100 q 138 374 69 315 q 335 433 206 433 q 583 374 479 433 l 583 424 q 532 558 583 514 q 369 601 481 601 q 151 557 251 601 l 151 647 q 257 676 193 665 q 379 688 321 688 q 647 563 571 688 q 932 688 739 688 q 1125 644 1046 688 q 1244 524 1204 600 q 1285 350 1285 447 l 1285 292 l 683 292 q 766 121 689 178 q 976 64 843 64 q 1105 76 1042 64 q 1218 108 1168 88 l 1218 18 q 1105 -10 1176 1 q 965 -21 1033 -21 q 646 121 746 -21 q 331 -21 533 -21 m 1185 368 q 1118 539 1182 476 q 931 601 1054 601 q 749 537 811 601 q 683 368 686 472 l 1185 368 m 357 67 q 492 97 432 67 q 583 181 553 126 l 583 288 q 476 334 529 319 q 356 349 422 349 q 219 313 261 349 q 176 206 176 278 q 357 67 176 67 z "},"b":{"ha":911,"x_min":97,"x_max":842,"o":"m 493 -21 q 326 13 397 -21 q 201 117 254 47 l 201 0 l 97 0 l 97 1026 l 204 1026 l 204 554 q 325 653 247 619 q 493 688 403 688 q 672 643 592 688 q 797 517 751 599 q 842 332 842 436 q 796 146 842 226 q 671 22 750 65 q 493 -21 592 -21 m 471 64 q 605 97 544 64 q 700 192 665 131 q 735 332 735 253 q 700 472 735 411 q 605 567 665 533 q 471 601 544 601 q 303 551 376 601 q 204 415 231 501 l 204 249 q 303 113 232 163 q 471 64 375 64 z "},"c":{"ha":760,"x_min":69,"x_max":690,"o":"m 438 -21 q 248 22 332 -21 q 117 144 164 64 q 69 332 69 224 q 117 520 69 439 q 250 644 165 601 q 442 688 335 688 q 576 674 518 688 q 681 629 635 660 l 681 539 q 451 601 593 601 q 253 531 329 601 q 176 332 176 460 q 253 134 176 204 q 447 64 329 64 q 579 81 521 64 q 690 132 638 97 l 690 42 q 581 -6 642 8 q 438 -21 521 -21 z "},"ć":{"ha":760,"x_min":69,"x_max":690,"o":"m 467 979 l 579 979 l 468 743 l 372 743 l 467 979 m 438 -21 q 248 22 332 -21 q 117 144 164 64 q 69 332 69 224 q 117 520 69 439 q 250 644 165 601 q 442 688 335 688 q 576 674 518 688 q 681 629 635 660 l 681 539 q 451 601 593 601 q 253 531 329 601 q 176 332 176 460 q 253 134 176 204 q 447 64 329 64 q 579 81 521 64 q 690 132 638 97 l 690 42 q 581 -6 642 8 q 438 -21 521 -21 z "},"č":{"ha":760,"x_min":69,"x_max":690,"o":"m 200 967 l 310 967 l 438 808 l 565 967 l 674 967 l 483 743 l 390 743 l 200 967 m 438 -21 q 248 22 332 -21 q 117 144 164 64 q 69 332 69 224 q 117 520 69 439 q 250 644 165 601 q 442 688 335 688 q 576 674 518 688 q 681 629 635 660 l 681 539 q 451 601 593 601 q 253 531 329 601 q 176 332 176 460 q 253 134 176 204 q 447 64 329 64 q 579 81 521 64 q 690 132 638 97 l 690 42 q 581 -6 642 8 q 438 -21 521 -21 z "},"ç":{"ha":760,"x_min":69,"x_max":690,"o":"m 690 42 q 599 -1 649 14 q 486 -19 550 -15 l 461 -83 q 590 -211 590 -100 q 544 -307 590 -269 q 418 -344 497 -344 q 360 -340 389 -344 q 317 -331 332 -336 l 317 -264 q 353 -274 331 -269 q 396 -278 375 -278 q 490 -208 490 -278 q 458 -149 490 -168 q 347 -129 425 -129 l 389 -18 q 158 89 246 -4 q 69 332 69 182 q 117 520 69 439 q 250 644 165 601 q 442 688 335 688 q 576 674 518 688 q 681 629 635 660 l 681 539 q 451 601 593 601 q 253 531 329 601 q 176 332 176 460 q 253 134 176 204 q 447 64 329 64 q 579 81 521 64 q 690 132 638 97 l 690 42 z "},"ĉ":{"ha":760,"x_min":69,"x_max":690,"o":"m 385 967 l 478 967 l 668 743 l 560 743 l 432 901 l 304 743 l 194 743 l 385 967 m 438 -21 q 248 22 332 -21 q 117 144 164 64 q 69 332 69 224 q 117 520 69 439 q 250 644 165 601 q 442 688 335 688 q 576 674 518 688 q 681 629 635 660 l 681 539 q 451 601 593 601 q 253 531 329 601 q 176 332 176 460 q 253 134 176 204 q 447 64 329 64 q 579 81 521 64 q 690 132 638 97 l 690 42 q 581 -6 642 8 q 438 -21 521 -21 z "},"ċ":{"ha":760,"x_min":69,"x_max":690,"o":"m 433 743 q 385 763 406 743 q 364 811 364 783 q 385 859 364 839 q 433 879 406 879 q 481 859 461 879 q 501 811 501 839 q 481 763 501 783 q 433 743 461 743 m 438 -21 q 248 22 332 -21 q 117 144 164 64 q 69 332 69 224 q 117 520 69 439 q 250 644 165 601 q 442 688 335 688 q 576 674 518 688 q 681 629 635 660 l 681 539 q 451 601 593 601 q 253 531 329 601 q 176 332 176 460 q 253 134 176 204 q 447 64 329 64 q 579 81 521 64 q 690 132 638 97 l 690 42 q 581 -6 642 8 q 438 -21 521 -21 z "},"d":{"ha":911,"x_min":69,"x_max":814,"o":"m 418 -21 q 240 22 319 -21 q 115 146 161 65 q 69 332 69 226 q 115 517 69 436 q 240 643 160 599 q 418 688 319 688 q 588 653 514 688 q 707 554 663 619 l 707 1026 l 814 1026 l 814 0 l 710 0 l 710 117 q 585 13 657 47 q 418 -21 514 -21 m 440 64 q 608 113 536 64 q 707 249 679 163 l 707 415 q 609 551 681 501 q 440 601 538 601 q 306 567 367 601 q 211 472 246 533 q 176 332 176 411 q 211 192 176 253 q 306 97 246 131 q 440 64 367 64 z "},"ð":{"ha":857,"x_min":69,"x_max":788,"o":"m 408 -21 q 228 19 304 -21 q 110 132 151 60 q 69 299 69 204 q 110 467 69 394 q 227 578 151 539 q 406 617 303 617 q 560 583 490 617 q 667 486 629 549 q 592 804 660 701 l 371 703 l 371 776 l 544 857 q 393 906 483 906 q 317 901 357 906 q 253 888 276 896 l 253 978 q 386 992 317 992 q 635 899 543 992 l 788 969 l 788 896 l 676 844 q 764 406 764 704 q 717 172 764 268 q 590 27 671 75 q 408 -21 510 -21 m 411 60 q 533 93 479 60 q 616 181 586 126 q 646 297 646 235 q 615 419 646 364 q 529 504 583 474 q 411 535 475 535 q 240 469 306 535 q 174 297 174 404 q 240 126 174 192 q 411 60 306 60 z "},"ď":{"ha":1106,"x_min":69,"x_max":1078,"o":"m 985 1068 l 1078 1068 l 961 822 l 881 822 l 985 1068 m 418 -42 q 240 2 319 -42 q 115 126 161 46 q 69 313 69 206 q 115 497 69 417 q 240 622 160 578 q 418 667 319 667 q 590 627 510 667 q 708 517 669 588 l 708 1006 l 815 1006 l 815 -21 l 711 -21 l 711 111 q 590 -2 667 38 q 418 -42 514 -42 m 440 44 q 608 92 536 44 q 708 225 681 140 l 708 399 q 610 533 683 483 q 440 582 536 582 q 307 549 367 582 q 213 454 247 515 q 178 311 178 393 q 213 170 178 231 q 307 77 247 110 q 440 44 367 44 z "},"đ":{"ha":938,"x_min":69,"x_max":896,"o":"m 418 -21 q 240 22 319 -21 q 115 146 161 65 q 69 332 69 226 q 115 517 69 436 q 240 643 160 599 q 418 688 319 688 q 588 653 514 688 q 707 554 663 619 l 707 771 l 415 771 l 415 854 l 707 854 l 707 1026 l 814 1026 l 814 854 l 896 854 l 896 771 l 814 771 l 814 0 l 710 0 l 710 117 q 585 13 657 47 q 418 -21 514 -21 m 440 64 q 608 113 536 64 q 707 249 679 163 l 707 415 q 609 551 681 501 q 440 601 538 601 q 306 567 367 601 q 211 472 246 533 q 176 332 176 411 q 211 192 176 253 q 306 97 246 131 q 440 64 367 64 z "},"ḍ":{"ha":911,"x_min":69,"x_max":814,"o":"m 418 -21 q 240 22 319 -21 q 115 146 161 65 q 69 332 69 226 q 115 517 69 436 q 240 643 160 599 q 418 688 319 688 q 588 653 514 688 q 707 554 663 619 l 707 1026 l 814 1026 l 814 0 l 710 0 l 710 117 q 585 13 657 47 q 418 -21 514 -21 m 440 64 q 608 113 536 64 q 707 249 679 163 l 707 415 q 609 551 681 501 q 440 601 538 601 q 306 567 367 601 q 211 472 246 533 q 176 332 176 411 q 211 192 176 253 q 306 97 246 131 q 440 64 367 64 m 463 -211 q 414 -191 435 -211 q 393 -143 393 -171 q 414 -95 393 -115 q 463 -75 435 -75 q 510 -95 490 -75 q 531 -143 531 -115 q 510 -191 531 -171 q 463 -211 490 -211 z "},"ḏ":{"ha":911,"x_min":69,"x_max":814,"o":"m 418 -21 q 240 22 319 -21 q 115 146 161 65 q 69 332 69 226 q 115 517 69 436 q 240 643 160 599 q 418 688 319 688 q 588 653 514 688 q 707 554 663 619 l 707 1026 l 814 1026 l 814 0 l 710 0 l 710 117 q 585 13 657 47 q 418 -21 514 -21 m 440 64 q 608 113 536 64 q 707 249 679 163 l 707 415 q 609 551 681 501 q 440 601 538 601 q 306 567 367 601 q 211 472 246 533 q 176 332 176 411 q 211 192 176 253 q 306 97 246 131 q 440 64 367 64 m 261 -103 l 685 -103 l 685 -182 l 261 -182 l 261 -103 z "},"e":{"ha":844,"x_min":69,"x_max":775,"o":"m 456 -21 q 172 72 274 -21 q 69 332 69 165 q 161 592 69 496 q 422 688 253 688 q 615 644 536 688 q 735 524 694 600 q 775 350 775 447 l 775 292 l 169 292 q 253 121 175 178 q 467 64 332 64 q 595 76 532 64 q 708 108 658 88 l 708 18 q 595 -10 667 1 q 456 -21 524 -21 m 675 368 q 608 539 672 476 q 421 601 544 601 q 236 537 300 601 q 169 368 172 472 l 675 368 z "},"é":{"ha":844,"x_min":69,"x_max":775,"o":"m 463 979 l 575 979 l 464 743 l 368 743 l 463 979 m 456 -21 q 172 72 274 -21 q 69 332 69 165 q 161 592 69 496 q 422 688 253 688 q 615 644 536 688 q 735 524 694 600 q 775 350 775 447 l 775 292 l 169 292 q 253 121 175 178 q 467 64 332 64 q 595 76 532 64 q 708 108 658 88 l 708 18 q 595 -10 667 1 q 456 -21 524 -21 m 675 368 q 608 539 672 476 q 421 601 544 601 q 236 537 300 601 q 169 368 172 472 l 675 368 z "},"ĕ":{"ha":844,"x_min":69,"x_max":775,"o":"m 428 743 q 286 794 339 743 q 233 924 233 844 l 317 924 q 347 847 317 875 q 428 818 376 818 q 509 847 479 818 q 539 924 539 875 l 621 924 q 568 794 621 844 q 428 743 515 743 m 456 -21 q 172 72 274 -21 q 69 332 69 165 q 161 592 69 496 q 422 688 253 688 q 615 644 536 688 q 735 524 694 600 q 775 350 775 447 l 775 292 l 169 292 q 253 121 175 178 q 467 64 332 64 q 595 76 532 64 q 708 108 658 88 l 708 18 q 595 -10 667 1 q 456 -21 524 -21 m 675 368 q 608 539 672 476 q 421 601 544 601 q 236 537 300 601 q 169 368 172 472 l 675 368 z "},"ě":{"ha":844,"x_min":69,"x_max":775,"o":"m 194 967 l 304 967 l 432 808 l 560 967 l 668 967 l 478 743 l 385 743 l 194 967 m 456 -21 q 172 72 274 -21 q 69 332 69 165 q 161 592 69 496 q 422 688 253 688 q 615 644 536 688 q 735 524 694 600 q 775 350 775 447 l 775 292 l 169 292 q 253 121 175 178 q 467 64 332 64 q 595 76 532 64 q 708 108 658 88 l 708 18 q 595 -10 667 1 q 456 -21 524 -21 m 675 368 q 608 539 672 476 q 421 601 544 601 q 236 537 300 601 q 169 368 172 472 l 675 368 z "},"ê":{"ha":844,"x_min":69,"x_max":775,"o":"m 383 967 l 476 967 l 667 743 l 558 743 l 431 901 l 303 743 l 193 743 l 383 967 m 456 -21 q 172 72 274 -21 q 69 332 69 165 q 161 592 69 496 q 422 688 253 688 q 615 644 536 688 q 735 524 694 600 q 775 350 775 447 l 775 292 l 169 292 q 253 121 175 178 q 467 64 332 64 q 595 76 532 64 q 708 108 658 88 l 708 18 q 595 -10 667 1 q 456 -21 524 -21 m 675 368 q 608 539 672 476 q 421 601 544 601 q 236 537 300 601 q 169 368 172 472 l 675 368 z "},"ế":{"ha":844,"x_min":69,"x_max":775,"o":"m 658 1065 l 747 1065 l 635 899 l 560 899 l 658 1065 m 393 947 l 486 947 l 676 756 l 568 756 l 440 888 l 313 756 l 203 756 l 393 947 m 456 -21 q 172 72 274 -21 q 69 332 69 165 q 161 592 69 496 q 422 688 253 688 q 615 644 536 688 q 735 524 694 600 q 775 350 775 447 l 775 292 l 169 292 q 253 121 175 178 q 467 64 332 64 q 595 76 532 64 q 708 108 658 88 l 708 18 q 595 -10 667 1 q 456 -21 524 -21 m 675 368 q 608 539 672 476 q 421 601 544 601 q 236 537 300 601 q 169 368 172 472 l 675 368 z "},"ệ":{"ha":844,"x_min":69,"x_max":775,"o":"m 382 976 l 475 976 l 665 753 l 557 753 l 429 911 l 301 753 l 192 753 l 382 976 m 456 -21 q 172 72 274 -21 q 69 332 69 165 q 161 592 69 496 q 422 688 253 688 q 615 644 536 688 q 735 524 694 600 q 775 350 775 447 l 775 292 l 169 292 q 253 121 175 178 q 467 64 332 64 q 595 76 532 64 q 708 108 658 88 l 708 18 q 595 -10 667 1 q 456 -21 524 -21 m 675 368 q 608 539 672 476 q 421 601 544 601 q 236 537 300 601 q 169 368 172 472 l 675 368 m 429 -211 q 381 -191 401 -211 q 360 -143 360 -171 q 381 -95 360 -115 q 429 -75 401 -75 q 477 -95 457 -75 q 497 -143 497 -115 q 477 -191 497 -171 q 429 -211 457 -211 z "},"ề":{"ha":844,"x_min":69,"x_max":775,"o":"m 76 1065 l 165 1065 l 264 899 l 189 899 l 76 1065 m 338 947 l 431 947 l 621 756 l 511 756 l 383 888 l 256 756 l 147 756 l 338 947 m 456 -21 q 172 72 274 -21 q 69 332 69 165 q 161 592 69 496 q 422 688 253 688 q 615 644 536 688 q 735 524 694 600 q 775 350 775 447 l 775 292 l 169 292 q 253 121 175 178 q 467 64 332 64 q 595 76 532 64 q 708 108 658 88 l 708 18 q 595 -10 667 1 q 456 -21 524 -21 m 675 368 q 608 539 672 476 q 421 601 544 601 q 236 537 300 601 q 169 368 172 472 l 675 368 z "},"ể":{"ha":844,"x_min":69,"x_max":775,"o":"m 592 958 q 678 1008 678 958 q 617 1054 678 1054 q 554 1043 576 1054 l 554 1093 q 638 1106 589 1106 q 724 1081 694 1106 q 754 1014 754 1057 q 729 954 754 979 q 661 924 704 929 l 661 889 l 592 889 l 592 958 m 418 947 l 511 947 l 701 756 l 592 756 l 464 888 l 336 756 l 228 756 l 418 947 m 456 -21 q 172 72 274 -21 q 69 332 69 165 q 161 592 69 496 q 422 688 253 688 q 615 644 536 688 q 735 524 694 600 q 775 350 775 447 l 775 292 l 169 292 q 253 121 175 178 q 467 64 332 64 q 595 76 532 64 q 708 108 658 88 l 708 18 q 595 -10 667 1 q 456 -21 524 -21 m 675 368 q 608 539 672 476 q 421 601 544 601 q 236 537 300 601 q 169 368 172 472 l 675 368 z "},"ễ":{"ha":844,"x_min":69,"x_max":775,"o":"m 238 1035 q 353 1086 272 1086 q 406 1078 381 1086 q 467 1056 431 1071 q 523 1033 499 1040 q 574 1025 547 1025 q 689 1089 644 1025 l 689 1004 q 574 954 657 954 q 516 963 543 954 q 456 986 489 971 q 399 1007 421 1000 q 353 1014 378 1014 q 291 1000 319 1014 q 238 950 263 986 l 238 1035 m 410 947 l 503 947 l 693 756 l 583 756 l 456 888 l 328 756 l 219 756 l 410 947 m 456 -21 q 172 72 274 -21 q 69 332 69 165 q 161 592 69 496 q 422 688 253 688 q 615 644 536 688 q 735 524 694 600 q 775 350 775 447 l 775 292 l 169 292 q 253 121 175 178 q 467 64 332 64 q 595 76 532 64 q 708 108 658 88 l 708 18 q 595 -10 667 1 q 456 -21 524 -21 m 675 368 q 608 539 672 476 q 421 601 544 601 q 236 537 300 601 q 169 368 172 472 l 675 368 z "},"ë":{"ha":844,"x_min":69,"x_max":775,"o":"m 278 743 q 229 763 250 743 q 208 811 208 783 q 229 859 208 839 q 278 879 250 879 q 326 859 306 879 q 346 811 346 839 q 326 763 346 783 q 278 743 306 743 m 579 743 q 531 763 551 743 q 510 811 510 783 q 531 859 510 839 q 579 879 551 879 q 627 859 607 879 q 647 811 647 839 q 627 763 647 783 q 579 743 607 743 m 456 -21 q 172 72 274 -21 q 69 332 69 165 q 161 592 69 496 q 422 688 253 688 q 615 644 536 688 q 735 524 694 600 q 775 350 775 447 l 775 292 l 169 292 q 253 121 175 178 q 467 64 332 64 q 595 76 532 64 q 708 108 658 88 l 708 18 q 595 -10 667 1 q 456 -21 524 -21 m 675 368 q 608 539 672 476 q 421 601 544 601 q 236 537 300 601 q 169 368 172 472 l 675 368 z "},"ė":{"ha":844,"x_min":69,"x_max":775,"o":"m 433 740 q 385 760 406 740 q 364 808 364 781 q 385 856 364 836 q 433 876 406 876 q 481 856 461 876 q 501 808 501 836 q 481 760 501 781 q 433 740 461 740 m 456 -21 q 172 72 274 -21 q 69 332 69 165 q 161 592 69 496 q 422 688 253 688 q 615 644 536 688 q 735 524 694 600 q 775 350 775 447 l 775 292 l 169 292 q 253 121 175 178 q 467 64 332 64 q 595 76 532 64 q 708 108 658 88 l 708 18 q 595 -10 667 1 q 456 -21 524 -21 m 675 368 q 608 539 672 476 q 421 601 544 601 q 236 537 300 601 q 169 368 172 472 l 675 368 z "},"ẹ":{"ha":844,"x_min":69,"x_max":775,"o":"m 456 -21 q 172 72 274 -21 q 69 332 69 165 q 161 592 69 496 q 422 688 253 688 q 615 644 536 688 q 735 524 694 600 q 775 350 775 447 l 775 292 l 169 292 q 253 121 175 178 q 467 64 332 64 q 595 76 532 64 q 708 108 658 88 l 708 18 q 595 -10 667 1 q 456 -21 524 -21 m 675 368 q 608 539 672 476 q 421 601 544 601 q 236 537 300 601 q 169 368 172 472 l 675 368 m 433 -211 q 385 -191 406 -211 q 364 -143 364 -171 q 385 -95 364 -115 q 433 -75 406 -75 q 481 -95 461 -75 q 501 -143 501 -115 q 481 -191 501 -171 q 433 -211 461 -211 z "},"è":{"ha":844,"x_min":69,"x_max":775,"o":"m 283 979 l 396 979 l 490 743 l 394 743 l 283 979 m 456 -21 q 172 72 274 -21 q 69 332 69 165 q 161 592 69 496 q 422 688 253 688 q 615 644 536 688 q 735 524 694 600 q 775 350 775 447 l 775 292 l 169 292 q 253 121 175 178 q 467 64 332 64 q 595 76 532 64 q 708 108 658 88 l 708 18 q 595 -10 667 1 q 456 -21 524 -21 m 675 368 q 608 539 672 476 q 421 601 544 601 q 236 537 300 601 q 169 368 172 472 l 675 368 z "},"ẻ":{"ha":844,"x_min":69,"x_max":775,"o":"m 382 858 q 480 877 449 858 q 511 939 511 896 q 488 992 511 975 q 414 1008 464 1008 q 368 1004 394 1008 q 331 994 342 1000 l 331 1057 q 378 1068 349 1064 q 436 1072 408 1072 q 563 1038 519 1072 q 606 943 606 1003 q 572 855 606 892 q 475 813 538 818 l 475 764 l 382 764 l 382 858 m 456 -21 q 172 72 274 -21 q 69 332 69 165 q 161 592 69 496 q 422 688 253 688 q 615 644 536 688 q 735 524 694 600 q 775 350 775 447 l 775 292 l 169 292 q 253 121 175 178 q 467 64 332 64 q 595 76 532 64 q 708 108 658 88 l 708 18 q 595 -10 667 1 q 456 -21 524 -21 m 675 368 q 608 539 672 476 q 421 601 544 601 q 236 537 300 601 q 169 368 172 472 l 675 368 z "},"ē":{"ha":844,"x_min":69,"x_max":775,"o":"m 217 846 l 635 846 l 635 771 l 217 771 l 217 846 m 456 -21 q 172 72 274 -21 q 69 332 69 165 q 161 592 69 496 q 422 688 253 688 q 615 644 536 688 q 735 524 694 600 q 775 350 775 447 l 775 292 l 169 292 q 253 121 175 178 q 467 64 332 64 q 595 76 532 64 q 708 108 658 88 l 708 18 q 595 -10 667 1 q 456 -21 524 -21 m 675 368 q 608 539 672 476 q 421 601 544 601 q 236 537 300 601 q 169 368 172 472 l 675 368 z "},"ę":{"ha":844,"x_min":69,"x_max":775,"o":"m 775 292 l 169 292 q 253 121 175 178 q 467 64 332 64 q 595 76 532 64 q 708 108 658 88 l 708 18 q 603 -8 674 4 q 506 -156 506 -79 q 522 -206 506 -190 q 572 -221 538 -221 q 638 -207 607 -221 l 638 -276 q 546 -292 603 -292 q 449 -260 488 -292 q 411 -171 411 -229 q 488 -21 411 -85 l 456 -21 q 172 72 274 -21 q 69 332 69 165 q 161 592 69 496 q 422 688 253 688 q 615 644 536 688 q 735 524 694 600 q 775 350 775 447 l 775 292 m 675 368 q 608 539 672 476 q 421 601 544 601 q 236 537 300 601 q 169 368 172 472 l 675 368 z "},"ẽ":{"ha":844,"x_min":69,"x_max":775,"o":"m 175 869 q 307 929 214 929 q 365 921 338 929 q 436 894 393 913 q 500 869 472 878 q 558 860 528 860 q 631 876 599 860 q 690 932 664 893 l 690 836 q 558 778 651 778 q 493 787 524 778 q 424 814 463 796 q 360 839 385 831 q 307 847 336 847 q 236 831 268 847 q 175 774 204 814 l 175 869 m 456 -21 q 172 72 274 -21 q 69 332 69 165 q 161 592 69 496 q 422 688 253 688 q 615 644 536 688 q 735 524 694 600 q 775 350 775 447 l 775 292 l 169 292 q 253 121 175 178 q 467 64 332 64 q 595 76 532 64 q 708 108 658 88 l 708 18 q 595 -10 667 1 q 456 -21 524 -21 m 675 368 q 608 539 672 476 q 421 601 544 601 q 236 537 300 601 q 169 368 172 472 l 675 368 z "},"f":{"ha":476,"x_min":42,"x_max":463,"o":"m 146 583 l 42 583 l 42 667 l 146 667 l 146 814 q 205 978 146 922 q 364 1033 264 1033 q 463 1019 417 1033 l 463 929 q 382 947 424 947 q 284 913 315 947 q 253 808 253 879 l 253 667 l 422 667 l 422 583 l 253 583 l 253 0 l 146 0 l 146 583 z "},"g":{"ha":911,"x_min":69,"x_max":814,"o":"m 442 -319 q 311 -308 375 -319 q 203 -278 247 -297 l 203 -187 q 442 -235 308 -235 q 642 -173 578 -235 q 707 14 707 -111 l 707 113 q 421 -21 617 -21 q 242 23 322 -21 q 115 147 161 67 q 69 332 69 228 q 115 518 69 438 q 240 643 161 599 q 418 688 319 688 q 589 656 521 688 q 710 554 657 625 l 710 667 l 814 667 l 814 28 q 722 -231 814 -142 q 442 -319 631 -319 m 440 64 q 610 114 539 64 q 707 251 681 164 l 707 417 q 608 553 679 504 q 440 601 538 601 q 306 567 367 601 q 211 472 246 533 q 176 332 176 411 q 211 191 176 251 q 306 97 246 131 q 440 64 367 64 z "},"ğ":{"ha":911,"x_min":69,"x_max":814,"o":"m 456 743 q 314 794 367 743 q 261 924 261 844 l 344 924 q 374 847 344 875 q 456 818 404 818 q 537 847 507 818 q 567 924 567 875 l 649 924 q 596 794 649 844 q 456 743 543 743 m 442 -319 q 311 -308 375 -319 q 203 -278 247 -297 l 203 -187 q 442 -235 308 -235 q 642 -173 578 -235 q 707 14 707 -111 l 707 113 q 421 -21 617 -21 q 242 23 322 -21 q 115 147 161 67 q 69 332 69 228 q 115 518 69 438 q 240 643 161 599 q 418 688 319 688 q 589 656 521 688 q 710 554 657 625 l 710 667 l 814 667 l 814 28 q 722 -231 814 -142 q 442 -319 631 -319 m 440 64 q 610 114 539 64 q 707 251 681 164 l 707 417 q 608 553 679 504 q 440 601 538 601 q 306 567 367 601 q 211 472 246 533 q 176 332 176 411 q 211 191 176 251 q 306 97 246 131 q 440 64 367 64 z "},"ǧ":{"ha":911,"x_min":69,"x_max":814,"o":"m 210 967 l 319 967 l 447 808 l 575 967 l 683 967 l 493 743 l 400 743 l 210 967 m 442 -319 q 311 -308 375 -319 q 203 -278 247 -297 l 203 -187 q 442 -235 308 -235 q 642 -173 578 -235 q 707 14 707 -111 l 707 113 q 421 -21 617 -21 q 242 23 322 -21 q 115 147 161 67 q 69 332 69 228 q 115 518 69 438 q 240 643 161 599 q 418 688 319 688 q 589 656 521 688 q 710 554 657 625 l 710 667 l 814 667 l 814 28 q 722 -231 814 -142 q 442 -319 631 -319 m 440 64 q 610 114 539 64 q 707 251 681 164 l 707 417 q 608 553 679 504 q 440 601 538 601 q 306 567 367 601 q 211 472 246 533 q 176 332 176 411 q 211 191 176 251 q 306 97 246 131 q 440 64 367 64 z "},"ĝ":{"ha":911,"x_min":69,"x_max":814,"o":"m 424 967 l 517 967 l 707 743 l 599 743 l 471 901 l 343 743 l 233 743 l 424 967 m 442 -319 q 311 -308 375 -319 q 203 -278 247 -297 l 203 -187 q 442 -235 308 -235 q 642 -173 578 -235 q 707 14 707 -111 l 707 113 q 421 -21 617 -21 q 242 23 322 -21 q 115 147 161 67 q 69 332 69 228 q 115 518 69 438 q 240 643 161 599 q 418 688 319 688 q 589 656 521 688 q 710 554 657 625 l 710 667 l 814 667 l 814 28 q 722 -231 814 -142 q 442 -319 631 -319 m 440 64 q 610 114 539 64 q 707 251 681 164 l 707 417 q 608 553 679 504 q 440 601 538 601 q 306 567 367 601 q 211 472 246 533 q 176 332 176 411 q 211 191 176 251 q 306 97 246 131 q 440 64 367 64 z "},"ģ":{"ha":911,"x_min":69,"x_max":814,"o":"m 518 1017 l 615 1017 l 504 743 l 392 743 l 518 1017 m 442 -319 q 311 -308 375 -319 q 203 -278 247 -297 l 203 -187 q 442 -235 308 -235 q 642 -173 578 -235 q 707 14 707 -111 l 707 113 q 421 -21 617 -21 q 242 23 322 -21 q 115 147 161 67 q 69 332 69 228 q 115 518 69 438 q 240 643 161 599 q 418 688 319 688 q 589 656 521 688 q 710 554 657 625 l 710 667 l 814 667 l 814 28 q 722 -231 814 -142 q 442 -319 631 -319 m 440 64 q 610 114 539 64 q 707 251 681 164 l 707 417 q 608 553 679 504 q 440 601 538 601 q 306 567 367 601 q 211 472 246 533 q 176 332 176 411 q 211 191 176 251 q 306 97 246 131 q 440 64 367 64 z "},"ġ":{"ha":911,"x_min":69,"x_max":814,"o":"m 467 743 q 418 763 439 743 q 397 811 397 783 q 418 859 397 839 q 467 879 439 879 q 515 859 494 879 q 535 811 535 839 q 515 763 535 783 q 467 743 494 743 m 442 -319 q 311 -308 375 -319 q 203 -278 247 -297 l 203 -187 q 442 -235 308 -235 q 642 -173 578 -235 q 707 14 707 -111 l 707 113 q 421 -21 617 -21 q 242 23 322 -21 q 115 147 161 67 q 69 332 69 228 q 115 518 69 438 q 240 643 161 599 q 418 688 319 688 q 589 656 521 688 q 710 554 657 625 l 710 667 l 814 667 l 814 28 q 722 -231 814 -142 q 442 -319 631 -319 m 440 64 q 610 114 539 64 q 707 251 681 164 l 707 417 q 608 553 679 504 q 440 601 538 601 q 306 567 367 601 q 211 472 246 533 q 176 332 176 411 q 211 191 176 251 q 306 97 246 131 q 440 64 367 64 z "},"ḡ":{"ha":911,"x_min":69,"x_max":814,"o":"m 233 846 l 651 846 l 651 771 l 233 771 l 233 846 m 442 -319 q 311 -308 375 -319 q 203 -278 247 -297 l 203 -187 q 442 -235 308 -235 q 642 -173 578 -235 q 707 14 707 -111 l 707 113 q 421 -21 617 -21 q 242 23 322 -21 q 115 147 161 67 q 69 332 69 228 q 115 518 69 438 q 240 643 161 599 q 418 688 319 688 q 589 656 521 688 q 710 554 657 625 l 710 667 l 814 667 l 814 28 q 722 -231 814 -142 q 442 -319 631 -319 m 440 64 q 610 114 539 64 q 707 251 681 164 l 707 417 q 608 553 679 504 q 440 601 538 601 q 306 567 367 601 q 211 472 246 533 q 176 332 176 411 q 211 191 176 251 q 306 97 246 131 q 440 64 367 64 z "},"h":{"ha":821,"x_min":97,"x_max":731,"o":"m 97 1026 l 204 1026 l 204 569 q 469 688 300 688 q 666 618 601 688 q 731 432 731 549 l 731 0 l 624 0 l 624 422 q 582 555 624 508 q 449 601 540 601 q 204 463 294 601 l 204 0 l 97 0 l 97 1026 z "},"ħ":{"ha":831,"x_min":42,"x_max":740,"o":"m 107 822 l 42 822 l 42 903 l 107 903 l 107 1026 l 214 1026 l 214 903 l 463 903 l 463 822 l 214 822 l 214 569 q 479 688 310 688 q 676 618 611 688 q 740 432 740 549 l 740 0 l 633 0 l 633 422 q 592 555 633 508 q 458 601 550 601 q 214 463 304 601 l 214 0 l 107 0 l 107 822 z "},"ḫ":{"ha":821,"x_min":97,"x_max":731,"o":"m 97 1026 l 204 1026 l 204 569 q 469 688 300 688 q 666 618 601 688 q 731 432 731 549 l 731 0 l 624 0 l 624 422 q 582 555 624 508 q 449 601 540 601 q 204 463 294 601 l 204 0 l 97 0 l 97 1026 m 419 -268 q 278 -217 331 -268 q 225 -87 225 -167 l 308 -87 q 338 -165 308 -136 q 419 -193 368 -193 q 501 -165 471 -193 q 531 -87 531 -136 l 613 -87 q 560 -217 613 -167 q 419 -268 507 -268 z "},"ĥ":{"ha":821,"x_min":97,"x_max":731,"o":"m 294 1313 l 388 1313 l 578 1089 l 469 1089 l 342 1247 l 214 1089 l 104 1089 l 294 1313 m 97 1026 l 204 1026 l 204 569 q 469 688 300 688 q 666 618 601 688 q 731 432 731 549 l 731 0 l 624 0 l 624 422 q 582 555 624 508 q 449 601 540 601 q 204 463 294 601 l 204 0 l 97 0 l 97 1026 z "},"ḥ":{"ha":821,"x_min":97,"x_max":731,"o":"m 97 1026 l 204 1026 l 204 569 q 469 688 300 688 q 666 618 601 688 q 731 432 731 549 l 731 0 l 624 0 l 624 422 q 582 555 624 508 q 449 601 540 601 q 204 463 294 601 l 204 0 l 97 0 l 97 1026 m 424 -211 q 375 -191 396 -211 q 354 -143 354 -171 q 375 -95 354 -115 q 424 -75 396 -75 q 472 -95 451 -75 q 492 -143 492 -115 q 472 -191 492 -171 q 424 -211 451 -211 z "},"i":{"ha":329,"x_min":97,"x_max":232,"o":"m 164 811 q 117 831 136 811 q 97 878 97 850 q 117 925 97 906 q 164 944 136 944 q 212 925 192 944 q 232 878 232 906 q 212 831 232 850 q 164 811 192 811 m 111 667 l 218 667 l 218 0 l 111 0 l 111 667 z "},"ı":{"ha":301,"x_min":97,"x_max":204,"o":"m 97 667 l 204 667 l 204 0 l 97 0 l 97 667 z "},"í":{"ha":301,"x_min":97,"x_max":310,"o":"m 197 979 l 310 979 l 199 743 l 103 743 l 197 979 m 97 667 l 204 667 l 204 0 l 97 0 l 97 667 z "},"ĭ":{"ha":301,"x_min":-43,"x_max":344,"o":"m 151 743 q 10 794 63 743 q -43 924 -43 844 l 40 924 q 70 847 40 875 q 151 818 100 818 q 233 847 203 818 q 263 924 263 875 l 344 924 q 292 794 344 844 q 151 743 239 743 m 97 667 l 204 667 l 204 0 l 97 0 l 97 667 z "},"ǐ":{"ha":301,"x_min":-86,"x_max":388,"o":"m -86 967 l 24 967 l 151 808 l 279 967 l 388 967 l 197 743 l 104 743 l -86 967 m 97 667 l 204 667 l 204 0 l 97 0 l 97 667 z "},"î":{"ha":301,"x_min":-86,"x_max":388,"o":"m 104 967 l 197 967 l 388 743 l 279 743 l 151 901 l 24 743 l -86 743 l 104 967 m 97 667 l 204 667 l 204 0 l 97 0 l 97 667 z "},"ï":{"ha":301,"x_min":-69,"x_max":369,"o":"m 0 743 q -49 763 -28 743 q -69 811 -69 783 q -49 859 -69 839 q 0 879 -28 879 q 48 859 28 879 q 68 811 68 839 q 48 763 68 783 q 0 743 28 743 m 301 743 q 253 763 274 743 q 232 811 232 783 q 253 859 232 839 q 301 879 274 879 q 349 859 329 879 q 369 811 369 839 q 349 763 369 783 q 301 743 329 743 m 97 667 l 204 667 l 204 0 l 97 0 l 97 667 z "},"ị":{"ha":332,"x_min":97,"x_max":235,"o":"m 165 811 q 118 831 138 811 q 99 878 99 850 q 118 925 99 906 q 165 944 138 944 q 213 925 193 944 q 233 878 233 906 q 213 831 233 850 q 165 811 193 811 m 113 667 l 219 667 l 219 0 l 113 0 l 113 667 m 167 -211 q 118 -191 139 -211 q 97 -143 97 -171 q 118 -95 97 -115 q 167 -75 139 -75 q 215 -95 194 -75 q 235 -143 235 -115 q 215 -191 235 -171 q 167 -211 194 -211 z "},"ì":{"ha":301,"x_min":-7,"x_max":204,"o":"m -7 979 l 106 979 l 200 743 l 104 743 l -7 979 m 97 667 l 204 667 l 204 0 l 97 0 l 97 667 z "},"ỉ":{"ha":301,"x_min":53,"x_max":328,"o":"m 104 838 q 202 856 171 838 q 233 918 233 875 q 210 971 233 954 q 136 988 186 988 q 90 983 117 988 q 53 974 64 979 l 53 1036 q 101 1047 71 1043 q 158 1051 131 1051 q 285 1017 242 1051 q 328 922 328 982 q 294 834 328 871 q 197 792 260 797 l 197 743 l 104 743 l 104 838 m 97 667 l 204 667 l 204 0 l 97 0 l 97 667 z "},"ĳ":{"ha":582,"x_min":97,"x_max":485,"o":"m 164 811 q 117 831 136 811 q 97 878 97 850 q 117 925 97 906 q 164 944 136 944 q 212 925 192 944 q 232 878 232 906 q 212 831 232 850 q 164 811 192 811 m 417 811 q 369 831 389 811 q 350 878 350 850 q 369 925 350 906 q 417 944 389 944 q 465 925 444 944 q 485 878 485 906 q 465 831 485 850 q 417 811 444 811 m 111 667 l 218 667 l 218 0 l 111 0 l 111 667 m 257 -321 q 161 -308 199 -321 l 161 -218 q 242 -236 197 -236 q 336 -204 308 -236 q 364 -101 364 -172 l 364 667 l 471 667 l 471 -101 q 414 -266 471 -211 q 257 -321 357 -321 z "},"ī":{"ha":301,"x_min":-61,"x_max":363,"o":"m -61 850 l 363 850 l 363 771 l -61 771 l -61 850 m 97 667 l 204 667 l 204 0 l 97 0 l 97 667 z "},"į":{"ha":329,"x_min":11,"x_max":238,"o":"m 164 811 q 117 831 136 811 q 97 878 97 850 q 117 925 97 906 q 164 944 136 944 q 212 925 192 944 q 232 878 232 906 q 212 831 232 850 q 164 811 192 811 m 172 -221 q 238 -207 207 -221 l 238 -276 q 146 -292 203 -292 q 49 -260 88 -292 q 11 -171 11 -229 q 40 -75 11 -119 q 115 0 69 -31 l 111 0 l 111 667 l 218 667 l 218 0 l 215 0 q 133 -75 161 -37 q 106 -156 106 -112 q 122 -206 106 -190 q 172 -221 138 -221 z "},"ĩ":{"ha":301,"x_min":-107,"x_max":408,"o":"m -107 839 q 25 899 -68 899 q 83 890 56 899 q 154 864 111 882 q 218 838 190 847 q 276 829 246 829 q 349 846 317 829 q 408 901 382 863 l 408 806 q 276 747 369 747 q 211 756 242 747 q 142 783 181 765 q 78 808 103 800 q 25 817 54 817 q -46 800 -14 817 q -107 743 -78 783 l -107 839 m 97 667 l 204 667 l 204 0 l 97 0 l 97 667 z "},"j":{"ha":338,"x_min":-83,"x_max":240,"o":"m 172 811 q 125 831 144 811 q 106 878 106 850 q 125 925 106 906 q 172 944 144 944 q 220 925 200 944 q 240 878 240 906 q 220 831 240 850 q 172 811 200 811 m 13 -321 q -83 -308 -46 -321 l -83 -218 q -3 -236 -47 -236 q 92 -204 64 -236 q 119 -101 119 -172 l 119 667 l 226 667 l 226 -101 q 169 -266 226 -211 q 13 -321 113 -321 z "},"ȷ":{"ha":324,"x_min":-83,"x_max":226,"o":"m 13 -321 q -83 -308 -46 -321 l -83 -218 q -3 -236 -47 -236 q 92 -204 64 -236 q 119 -101 119 -172 l 119 667 l 226 667 l 226 -101 q 169 -266 226 -211 q 13 -321 113 -321 z "},"ĵ":{"ha":310,"x_min":-97,"x_max":396,"o":"m 113 967 l 206 967 l 396 743 l 288 743 l 160 901 l 32 743 l -78 743 l 113 967 m -1 -321 q -97 -308 -60 -321 l -97 -218 q -17 -236 -61 -236 q 78 -204 50 -236 q 106 -101 106 -172 l 106 667 l 213 667 l 213 -101 q 156 -266 213 -211 q -1 -321 99 -321 z "},"k":{"ha":764,"x_min":97,"x_max":722,"o":"m 97 1026 l 204 1026 l 204 0 l 97 0 l 97 1026 m 228 336 l 554 667 l 690 667 l 363 336 l 722 0 l 586 0 l 228 336 z "},"ķ":{"ha":764,"x_min":97,"x_max":722,"o":"m 97 1026 l 204 1026 l 204 0 l 97 0 l 97 1026 m 228 336 l 554 667 l 690 667 l 363 336 l 722 0 l 586 0 l 228 336 m 313 -87 l 425 -87 l 299 -361 l 201 -361 l 313 -87 z "},"ĸ":{"ha":758,"x_min":97,"x_max":715,"o":"m 97 667 l 201 667 l 201 0 l 97 0 l 97 667 m 229 333 l 556 667 l 683 667 l 356 333 l 715 0 l 588 0 l 229 333 z "},"l":{"ha":301,"x_min":97,"x_max":204,"o":"m 97 1026 l 204 1026 l 204 0 l 97 0 l 97 1026 z "},"ĺ":{"ha":301,"x_min":97,"x_max":313,"o":"m 201 1301 l 313 1301 l 200 1064 l 104 1064 l 201 1301 m 97 1026 l 204 1026 l 204 0 l 97 0 l 97 1026 z "},"ľ":{"ha":551,"x_min":97,"x_max":503,"o":"m 97 1026 l 204 1026 l 204 0 l 97 0 l 97 1026 m 390 1026 l 503 1026 l 376 753 l 279 753 l 390 1026 z "},"ļ":{"ha":314,"x_min":-7,"x_max":217,"o":"m 107 1026 l 214 1026 l 214 0 l 107 0 l 107 1026 m 104 -87 l 217 -87 l 90 -361 l -7 -361 l 104 -87 z "},"ŀ":{"ha":451,"x_min":97,"x_max":431,"o":"m 97 1026 l 204 1026 l 204 0 l 97 0 l 97 1026 m 363 461 q 314 481 335 461 q 293 529 293 501 q 314 577 293 557 q 363 597 335 597 q 410 577 390 597 q 431 529 431 557 q 410 481 431 501 q 363 461 390 461 z "},"ḷ":{"ha":301,"x_min":82,"x_max":219,"o":"m 97 1026 l 204 1026 l 204 0 l 97 0 l 97 1026 m 151 -211 q 103 -191 124 -211 q 82 -143 82 -171 q 103 -95 82 -115 q 151 -75 124 -75 q 199 -95 179 -75 q 219 -143 219 -115 q 199 -191 219 -171 q 151 -211 179 -211 z "},"ḹ":{"ha":307,"x_min":-56,"x_max":363,"o":"m -56 1164 l 363 1164 l 363 1089 l -56 1089 l -56 1164 m 100 1026 l 207 1026 l 207 0 l 100 0 l 100 1026 m 154 -211 q 106 -191 126 -211 q 85 -143 85 -171 q 106 -95 85 -115 q 154 -75 126 -75 q 202 -95 182 -75 q 222 -143 222 -115 q 202 -191 222 -171 q 154 -211 182 -211 z "},"ḻ":{"ha":301,"x_min":-61,"x_max":363,"o":"m 97 1026 l 204 1026 l 204 0 l 97 0 l 97 1026 m -61 -103 l 363 -103 l 363 -182 l -61 -182 l -61 -103 z "},"ł":{"ha":328,"x_min":-83,"x_max":411,"o":"m 411 574 l 215 486 l 215 0 l 108 0 l 108 439 l -83 353 l -83 451 l 108 538 l 108 1026 l 215 1026 l 215 585 l 411 672 l 411 574 z "},"m":{"ha":1199,"x_min":97,"x_max":1108,"o":"m 97 667 l 200 667 l 200 563 q 438 688 296 688 q 567 658 521 688 q 635 571 614 629 q 745 659 679 631 q 881 688 811 688 q 1054 626 1000 688 q 1108 446 1108 565 l 1108 0 l 1003 0 l 1003 433 q 970 564 1003 526 q 854 601 938 601 q 657 494 735 601 q 661 431 661 475 l 661 0 l 557 0 l 557 431 q 526 563 557 524 q 413 601 496 601 q 203 468 293 601 l 203 0 l 97 0 l 97 667 z "},"ṃ":{"ha":1199,"x_min":97,"x_max":1108,"o":"m 97 667 l 200 667 l 200 563 q 438 688 296 688 q 567 658 521 688 q 635 571 614 629 q 745 659 679 631 q 881 688 811 688 q 1054 626 1000 688 q 1108 446 1108 565 l 1108 0 l 1003 0 l 1003 433 q 970 564 1003 526 q 854 601 938 601 q 657 494 735 601 q 661 431 661 475 l 661 0 l 557 0 l 557 431 q 526 563 557 524 q 413 601 496 601 q 203 468 293 601 l 203 0 l 97 0 l 97 667 m 613 -211 q 564 -191 585 -211 q 543 -143 543 -171 q 564 -95 543 -115 q 613 -75 585 -75 q 660 -95 640 -75 q 681 -143 681 -115 q 660 -191 681 -171 q 613 -211 640 -211 z "},"n":{"ha":821,"x_min":97,"x_max":731,"o":"m 97 667 l 201 667 l 201 567 q 320 658 250 629 q 469 688 390 688 q 666 618 601 688 q 731 432 731 549 l 731 0 l 624 0 l 624 422 q 582 555 624 508 q 449 601 540 601 q 204 463 294 601 l 204 0 l 97 0 l 97 667 z "},"ń":{"ha":821,"x_min":97,"x_max":731,"o":"m 449 979 l 561 979 l 450 743 l 354 743 l 449 979 m 97 667 l 201 667 l 201 567 q 320 658 250 629 q 469 688 390 688 q 666 618 601 688 q 731 432 731 549 l 731 0 l 624 0 l 624 422 q 582 555 624 508 q 449 601 540 601 q 204 463 294 601 l 204 0 l 97 0 l 97 667 z "},"ŉ":{"ha":947,"x_min":56,"x_max":857,"o":"m 167 972 l 279 972 l 153 699 l 56 699 l 167 972 m 224 667 l 328 667 l 328 567 q 447 658 376 629 q 596 688 517 688 q 792 618 728 688 q 857 432 857 549 l 857 0 l 750 0 l 750 422 q 708 555 750 508 q 575 601 667 601 q 331 463 421 601 l 331 0 l 224 0 l 224 667 z "},"ň":{"ha":821,"x_min":97,"x_max":731,"o":"m 178 967 l 288 967 l 415 808 l 543 967 l 651 967 l 461 743 l 368 743 l 178 967 m 97 667 l 201 667 l 201 567 q 320 658 250 629 q 469 688 390 688 q 666 618 601 688 q 731 432 731 549 l 731 0 l 624 0 l 624 422 q 582 555 624 508 q 449 601 540 601 q 204 463 294 601 l 204 0 l 97 0 l 97 667 z "},"ņ":{"ha":821,"x_min":97,"x_max":731,"o":"m 97 667 l 201 667 l 201 567 q 320 658 250 629 q 469 688 390 688 q 666 618 601 688 q 731 432 731 549 l 731 0 l 624 0 l 624 422 q 582 555 624 508 q 449 601 540 601 q 204 463 294 601 l 204 0 l 97 0 l 97 667 m 375 -87 l 488 -87 l 361 -361 l 264 -361 l 375 -87 z "},"ṅ":{"ha":821,"x_min":97,"x_max":731,"o":"m 419 743 q 371 763 392 743 q 350 811 350 783 q 371 859 350 839 q 419 879 392 879 q 467 859 447 879 q 488 811 488 839 q 467 763 488 783 q 419 743 447 743 m 97 667 l 201 667 l 201 567 q 320 658 250 629 q 469 688 390 688 q 666 618 601 688 q 731 432 731 549 l 731 0 l 624 0 l 624 422 q 582 555 624 508 q 449 601 540 601 q 204 463 294 601 l 204 0 l 97 0 l 97 667 z "},"ṇ":{"ha":821,"x_min":97,"x_max":731,"o":"m 97 667 l 201 667 l 201 567 q 320 658 250 629 q 469 688 390 688 q 666 618 601 688 q 731 432 731 549 l 731 0 l 624 0 l 624 422 q 582 555 624 508 q 449 601 540 601 q 204 463 294 601 l 204 0 l 97 0 l 97 667 m 417 -211 q 368 -191 389 -211 q 347 -143 347 -171 q 368 -95 347 -115 q 417 -75 389 -75 q 465 -95 444 -75 q 485 -143 485 -115 q 465 -191 485 -171 q 417 -211 444 -211 z "},"ŋ":{"ha":821,"x_min":97,"x_max":731,"o":"m 469 688 q 666 618 601 688 q 731 432 731 549 l 731 0 l 731 -101 q 674 -266 731 -211 q 517 -321 617 -321 q 421 -308 458 -321 l 421 -218 q 501 -236 457 -236 q 596 -204 568 -236 q 624 -101 624 -172 l 624 308 l 624 422 q 582 555 624 508 q 449 601 540 601 q 204 463 294 601 l 204 0 l 97 0 l 97 667 l 201 667 l 201 567 q 320 658 250 629 q 469 688 390 688 z "},"ṉ":{"ha":821,"x_min":97,"x_max":731,"o":"m 97 667 l 201 667 l 201 567 q 320 658 250 629 q 469 688 390 688 q 666 618 601 688 q 731 432 731 549 l 731 0 l 624 0 l 624 422 q 582 555 624 508 q 449 601 540 601 q 204 463 294 601 l 204 0 l 97 0 l 97 667 m 204 -103 l 628 -103 l 628 -182 l 204 -182 l 204 -103 z "},"ñ":{"ha":821,"x_min":97,"x_max":731,"o":"m 150 839 q 282 899 189 899 q 340 890 313 899 q 411 864 368 882 q 475 838 447 847 q 533 829 503 829 q 606 846 574 829 q 665 901 639 863 l 665 806 q 533 747 626 747 q 468 756 499 747 q 399 783 438 765 q 335 808 360 800 q 282 817 311 817 q 211 800 243 817 q 150 743 179 783 l 150 839 m 97 667 l 201 667 l 201 567 q 320 658 250 629 q 469 688 390 688 q 666 618 601 688 q 731 432 731 549 l 731 0 l 624 0 l 624 422 q 582 555 624 508 q 449 601 540 601 q 204 463 294 601 l 204 0 l 97 0 l 97 667 z "},"o":{"ha":878,"x_min":69,"x_max":808,"o":"m 439 -21 q 247 22 331 -21 q 116 145 163 65 q 69 332 69 225 q 117 518 69 438 q 248 643 164 599 q 439 688 332 688 q 630 643 546 688 q 761 518 714 599 q 808 332 808 438 q 762 145 808 225 q 631 22 715 65 q 439 -21 547 -21 m 439 64 q 630 137 558 64 q 701 332 701 210 q 630 528 701 456 q 439 601 558 601 q 248 528 319 601 q 176 332 176 456 q 248 137 176 210 q 439 64 319 64 z "},"ó":{"ha":878,"x_min":69,"x_max":808,"o":"m 463 979 l 575 979 l 464 743 l 368 743 l 463 979 m 439 -21 q 247 22 331 -21 q 116 145 163 65 q 69 332 69 225 q 117 518 69 438 q 248 643 164 599 q 439 688 332 688 q 630 643 546 688 q 761 518 714 599 q 808 332 808 438 q 762 145 808 225 q 631 22 715 65 q 439 -21 547 -21 m 439 64 q 630 137 558 64 q 701 332 701 210 q 630 528 701 456 q 439 601 558 601 q 248 528 319 601 q 176 332 176 456 q 248 137 176 210 q 439 64 319 64 z "},"ŏ":{"ha":878,"x_min":69,"x_max":808,"o":"m 440 743 q 299 794 351 743 q 246 924 246 844 l 329 924 q 359 847 329 875 q 440 818 389 818 q 522 847 492 818 q 551 924 551 875 l 633 924 q 581 794 633 844 q 440 743 528 743 m 439 -21 q 247 22 331 -21 q 116 145 163 65 q 69 332 69 225 q 117 518 69 438 q 248 643 164 599 q 439 688 332 688 q 630 643 546 688 q 761 518 714 599 q 808 332 808 438 q 762 145 808 225 q 631 22 715 65 q 439 -21 547 -21 m 439 64 q 630 137 558 64 q 701 332 701 210 q 630 528 701 456 q 439 601 558 601 q 248 528 319 601 q 176 332 176 456 q 248 137 176 210 q 439 64 319 64 z "},"ǒ":{"ha":878,"x_min":69,"x_max":808,"o":"m 203 967 l 313 967 l 440 808 l 568 967 l 676 967 l 486 743 l 393 743 l 203 967 m 439 -21 q 247 22 331 -21 q 116 145 163 65 q 69 332 69 225 q 117 518 69 438 q 248 643 164 599 q 439 688 332 688 q 630 643 546 688 q 761 518 714 599 q 808 332 808 438 q 762 145 808 225 q 631 22 715 65 q 439 -21 547 -21 m 439 64 q 630 137 558 64 q 701 332 701 210 q 630 528 701 456 q 439 601 558 601 q 248 528 319 601 q 176 332 176 456 q 248 137 176 210 q 439 64 319 64 z "},"ô":{"ha":878,"x_min":69,"x_max":808,"o":"m 393 967 l 486 967 l 676 743 l 568 743 l 440 901 l 313 743 l 203 743 l 393 967 m 439 -21 q 247 22 331 -21 q 116 145 163 65 q 69 332 69 225 q 117 518 69 438 q 248 643 164 599 q 439 688 332 688 q 630 643 546 688 q 761 518 714 599 q 808 332 808 438 q 762 145 808 225 q 631 22 715 65 q 439 -21 547 -21 m 439 64 q 630 137 558 64 q 701 332 701 210 q 630 528 701 456 q 439 601 558 601 q 248 528 319 601 q 176 332 176 456 q 248 137 176 210 q 439 64 319 64 z "},"ố":{"ha":878,"x_min":69,"x_max":808,"o":"m 665 1053 l 754 1053 l 642 886 l 567 886 l 665 1053 m 400 935 l 493 935 l 683 743 l 575 743 l 447 875 l 319 743 l 210 743 l 400 935 m 439 -21 q 247 22 331 -21 q 116 145 163 65 q 69 332 69 225 q 117 518 69 438 q 248 643 164 599 q 439 688 332 688 q 630 643 546 688 q 761 518 714 599 q 808 332 808 438 q 762 145 808 225 q 631 22 715 65 q 439 -21 547 -21 m 439 64 q 630 137 558 64 q 701 332 701 210 q 630 528 701 456 q 439 601 558 601 q 248 528 319 601 q 176 332 176 456 q 248 137 176 210 q 439 64 319 64 z "},"ộ":{"ha":878,"x_min":69,"x_max":808,"o":"m 392 967 l 485 967 l 675 743 l 567 743 l 439 901 l 311 743 l 201 743 l 392 967 m 439 -21 q 247 22 331 -21 q 116 145 163 65 q 69 332 69 225 q 117 518 69 438 q 248 643 164 599 q 439 688 332 688 q 630 643 546 688 q 761 518 714 599 q 808 332 808 438 q 762 145 808 225 q 631 22 715 65 q 439 -21 547 -21 m 439 64 q 630 137 558 64 q 701 332 701 210 q 630 528 701 456 q 439 601 558 601 q 248 528 319 601 q 176 332 176 456 q 248 137 176 210 q 439 64 319 64 m 440 -211 q 392 -191 413 -211 q 371 -143 371 -171 q 392 -95 371 -115 q 440 -75 413 -75 q 488 -95 468 -75 q 508 -143 508 -115 q 488 -191 508 -171 q 440 -211 468 -211 z "},"ồ":{"ha":878,"x_min":69,"x_max":808,"o":"m 121 1053 l 210 1053 l 308 886 l 233 886 l 121 1053 m 382 935 l 475 935 l 665 743 l 556 743 l 428 875 l 300 743 l 192 743 l 382 935 m 439 -21 q 247 22 331 -21 q 116 145 163 65 q 69 332 69 225 q 117 518 69 438 q 248 643 164 599 q 439 688 332 688 q 630 643 546 688 q 761 518 714 599 q 808 332 808 438 q 762 145 808 225 q 631 22 715 65 q 439 -21 547 -21 m 439 64 q 630 137 558 64 q 701 332 701 210 q 630 528 701 456 q 439 601 558 601 q 248 528 319 601 q 176 332 176 456 q 248 137 176 210 q 439 64 319 64 z "},"ổ":{"ha":878,"x_min":69,"x_max":808,"o":"m 574 946 q 660 996 660 946 q 599 1042 660 1042 q 536 1031 558 1042 l 536 1081 q 619 1093 571 1093 q 706 1069 676 1093 q 736 1001 736 1044 q 711 942 736 967 q 643 911 686 917 l 643 876 l 574 876 l 574 946 m 400 935 l 493 935 l 683 743 l 574 743 l 446 875 l 318 743 l 210 743 l 400 935 m 439 -21 q 247 22 331 -21 q 116 145 163 65 q 69 332 69 225 q 117 518 69 438 q 248 643 164 599 q 439 688 332 688 q 630 643 546 688 q 761 518 714 599 q 808 332 808 438 q 762 145 808 225 q 631 22 715 65 q 439 -21 547 -21 m 439 64 q 630 137 558 64 q 701 332 701 210 q 630 528 701 456 q 439 601 558 601 q 248 528 319 601 q 176 332 176 456 q 248 137 176 210 q 439 64 319 64 z "},"ỗ":{"ha":878,"x_min":69,"x_max":808,"o":"m 214 1028 q 329 1079 249 1079 q 382 1072 357 1079 q 443 1049 407 1064 q 499 1026 475 1033 q 550 1018 524 1018 q 665 1082 621 1018 l 665 997 q 550 947 633 947 q 492 956 519 947 q 432 979 465 964 q 376 1000 397 993 q 329 1007 354 1007 q 267 993 296 1007 q 214 943 239 979 l 214 1028 m 447 743 q 309 793 361 743 q 257 921 257 843 l 336 921 q 366 844 336 872 q 447 815 396 815 q 528 844 499 815 q 558 921 558 872 l 638 921 q 585 793 638 843 q 447 743 533 743 m 439 -21 q 247 22 331 -21 q 116 145 163 65 q 69 332 69 225 q 117 518 69 438 q 248 643 164 599 q 439 688 332 688 q 630 643 546 688 q 761 518 714 599 q 808 332 808 438 q 762 145 808 225 q 631 22 715 65 q 439 -21 547 -21 m 439 64 q 630 137 558 64 q 701 332 701 210 q 630 528 701 456 q 439 601 558 601 q 248 528 319 601 q 176 332 176 456 q 248 137 176 210 q 439 64 319 64 z "},"ö":{"ha":878,"x_min":69,"x_max":808,"o":"m 289 743 q 240 763 261 743 q 219 811 219 783 q 240 859 219 839 q 289 879 261 879 q 337 859 317 879 q 357 811 357 839 q 337 763 357 783 q 289 743 317 743 m 590 743 q 542 763 563 743 q 521 811 521 783 q 542 859 521 839 q 590 879 563 879 q 638 859 618 879 q 658 811 658 839 q 638 763 658 783 q 590 743 618 743 m 439 -21 q 247 22 331 -21 q 116 145 163 65 q 69 332 69 225 q 117 518 69 438 q 248 643 164 599 q 439 688 332 688 q 630 643 546 688 q 761 518 714 599 q 808 332 808 438 q 762 145 808 225 q 631 22 715 65 q 439 -21 547 -21 m 439 64 q 630 137 558 64 q 701 332 701 210 q 630 528 701 456 q 439 601 558 601 q 248 528 319 601 q 176 332 176 456 q 248 137 176 210 q 439 64 319 64 z "},"ọ":{"ha":878,"x_min":69,"x_max":808,"o":"m 439 -21 q 247 22 331 -21 q 116 145 163 65 q 69 332 69 225 q 117 518 69 438 q 248 643 164 599 q 439 688 332 688 q 630 643 546 688 q 761 518 714 599 q 808 332 808 438 q 762 145 808 225 q 631 22 715 65 q 439 -21 547 -21 m 439 64 q 630 137 558 64 q 701 332 701 210 q 630 528 701 456 q 439 601 558 601 q 248 528 319 601 q 176 332 176 456 q 248 137 176 210 q 439 64 319 64 m 440 -211 q 392 -191 413 -211 q 371 -143 371 -171 q 392 -95 371 -115 q 440 -75 413 -75 q 488 -95 468 -75 q 508 -143 508 -115 q 488 -191 508 -171 q 440 -211 468 -211 z "},"ò":{"ha":878,"x_min":69,"x_max":808,"o":"m 289 979 l 401 979 l 496 743 l 400 743 l 289 979 m 439 -21 q 247 22 331 -21 q 116 145 163 65 q 69 332 69 225 q 117 518 69 438 q 248 643 164 599 q 439 688 332 688 q 630 643 546 688 q 761 518 714 599 q 808 332 808 438 q 762 145 808 225 q 631 22 715 65 q 439 -21 547 -21 m 439 64 q 630 137 558 64 q 701 332 701 210 q 630 528 701 456 q 439 601 558 601 q 248 528 319 601 q 176 332 176 456 q 248 137 176 210 q 439 64 319 64 z "},"ỏ":{"ha":878,"x_min":69,"x_max":808,"o":"m 390 838 q 488 856 457 838 q 519 918 519 875 q 496 971 519 954 q 422 988 472 988 q 376 983 403 988 q 339 974 350 979 l 339 1036 q 387 1047 357 1043 q 444 1051 417 1051 q 571 1017 528 1051 q 614 922 614 982 q 580 834 614 871 q 483 792 546 797 l 483 743 l 390 743 l 390 838 m 439 -21 q 247 22 331 -21 q 116 145 163 65 q 69 332 69 225 q 117 518 69 438 q 248 643 164 599 q 439 688 332 688 q 630 643 546 688 q 761 518 714 599 q 808 332 808 438 q 762 145 808 225 q 631 22 715 65 q 439 -21 547 -21 m 439 64 q 630 137 558 64 q 701 332 701 210 q 630 528 701 456 q 439 601 558 601 q 248 528 319 601 q 176 332 176 456 q 248 137 176 210 q 439 64 319 64 z "},"ơ":{"ha":924,"x_min":69,"x_max":889,"o":"m 439 -21 q 247 22 331 -21 q 116 145 163 65 q 69 332 69 225 q 117 518 69 438 q 248 643 164 599 q 439 688 332 688 q 578 665 514 688 q 690 603 642 643 q 772 644 743 611 q 801 725 801 676 l 801 775 l 889 775 l 889 719 q 851 606 889 656 q 749 538 813 557 q 808 332 808 449 q 762 145 808 225 q 631 22 715 65 q 439 -21 547 -21 m 439 64 q 630 137 558 64 q 701 332 701 210 q 630 528 701 456 q 439 601 558 601 q 248 528 319 601 q 176 332 176 456 q 248 137 176 210 q 439 64 319 64 z "},"ớ":{"ha":924,"x_min":69,"x_max":889,"o":"m 472 979 l 585 979 l 474 743 l 378 743 l 472 979 m 439 -21 q 247 22 331 -21 q 116 145 163 65 q 69 332 69 225 q 117 518 69 438 q 248 643 164 599 q 439 688 332 688 q 578 665 514 688 q 690 603 642 643 q 772 644 743 611 q 801 725 801 676 l 801 775 l 889 775 l 889 719 q 851 606 889 656 q 749 538 813 557 q 808 332 808 449 q 762 145 808 225 q 631 22 715 65 q 439 -21 547 -21 m 439 64 q 630 137 558 64 q 701 332 701 210 q 630 528 701 456 q 439 601 558 601 q 248 528 319 601 q 176 332 176 456 q 248 137 176 210 q 439 64 319 64 z "},"ợ":{"ha":924,"x_min":69,"x_max":889,"o":"m 439 -21 q 247 22 331 -21 q 116 145 163 65 q 69 332 69 225 q 117 518 69 438 q 248 643 164 599 q 439 688 332 688 q 578 665 514 688 q 690 603 642 643 q 772 644 743 611 q 801 725 801 676 l 801 775 l 889 775 l 889 719 q 851 606 889 656 q 749 538 813 557 q 808 332 808 449 q 762 145 808 225 q 631 22 715 65 q 439 -21 547 -21 m 439 64 q 630 137 558 64 q 701 332 701 210 q 630 528 701 456 q 439 601 558 601 q 248 528 319 601 q 176 332 176 456 q 248 137 176 210 q 439 64 319 64 m 436 -211 q 388 -191 408 -211 q 367 -143 367 -171 q 388 -95 367 -115 q 436 -75 408 -75 q 484 -95 464 -75 q 504 -143 504 -115 q 484 -191 504 -171 q 436 -211 464 -211 z "},"ờ":{"ha":924,"x_min":69,"x_max":889,"o":"m 282 979 l 394 979 l 489 743 l 393 743 l 282 979 m 439 -21 q 247 22 331 -21 q 116 145 163 65 q 69 332 69 225 q 117 518 69 438 q 248 643 164 599 q 439 688 332 688 q 578 665 514 688 q 690 603 642 643 q 772 644 743 611 q 801 725 801 676 l 801 775 l 889 775 l 889 719 q 851 606 889 656 q 749 538 813 557 q 808 332 808 449 q 762 145 808 225 q 631 22 715 65 q 439 -21 547 -21 m 439 64 q 630 137 558 64 q 701 332 701 210 q 630 528 701 456 q 439 601 558 601 q 248 528 319 601 q 176 332 176 456 q 248 137 176 210 q 439 64 319 64 z "},"ở":{"ha":924,"x_min":69,"x_max":889,"o":"m 389 838 q 487 856 456 838 q 518 918 518 875 q 494 971 518 954 q 421 988 471 988 q 375 983 401 988 q 338 974 349 979 l 338 1036 q 385 1047 356 1043 q 443 1051 415 1051 q 569 1017 526 1051 q 613 922 613 982 q 578 834 613 871 q 482 792 544 797 l 482 743 l 389 743 l 389 838 m 439 -21 q 247 22 331 -21 q 116 145 163 65 q 69 332 69 225 q 117 518 69 438 q 248 643 164 599 q 439 688 332 688 q 578 665 514 688 q 690 603 642 643 q 772 644 743 611 q 801 725 801 676 l 801 775 l 889 775 l 889 719 q 851 606 889 656 q 749 538 813 557 q 808 332 808 449 q 762 145 808 225 q 631 22 715 65 q 439 -21 547 -21 m 439 64 q 630 137 558 64 q 701 332 701 210 q 630 528 701 456 q 439 601 558 601 q 248 528 319 601 q 176 332 176 456 q 248 137 176 210 q 439 64 319 64 z "},"ỡ":{"ha":924,"x_min":69,"x_max":889,"o":"m 183 839 q 315 899 222 899 q 374 890 346 899 q 444 864 401 882 q 508 838 481 847 q 567 829 536 829 q 640 846 607 829 q 699 901 672 863 l 699 806 q 567 747 660 747 q 501 756 532 747 q 432 783 471 765 q 369 808 393 800 q 315 817 344 817 q 244 800 276 817 q 183 743 213 783 l 183 839 m 439 -21 q 247 22 331 -21 q 116 145 163 65 q 69 332 69 225 q 117 518 69 438 q 248 643 164 599 q 439 688 332 688 q 578 665 514 688 q 690 603 642 643 q 772 644 743 611 q 801 725 801 676 l 801 775 l 889 775 l 889 719 q 851 606 889 656 q 749 538 813 557 q 808 332 808 449 q 762 145 808 225 q 631 22 715 65 q 439 -21 547 -21 m 439 64 q 630 137 558 64 q 701 332 701 210 q 630 528 701 456 q 439 601 558 601 q 248 528 319 601 q 176 332 176 456 q 248 137 176 210 q 439 64 319 64 z "},"ő":{"ha":878,"x_min":69,"x_max":808,"o":"m 344 979 l 457 979 l 346 743 l 250 743 l 344 979 m 608 979 l 721 979 l 610 743 l 514 743 l 608 979 m 439 -21 q 247 22 331 -21 q 116 145 163 65 q 69 332 69 225 q 117 518 69 438 q 248 643 164 599 q 439 688 332 688 q 630 643 546 688 q 761 518 714 599 q 808 332 808 438 q 762 145 808 225 q 631 22 715 65 q 439 -21 547 -21 m 439 64 q 630 137 558 64 q 701 332 701 210 q 630 528 701 456 q 439 601 558 601 q 248 528 319 601 q 176 332 176 456 q 248 137 176 210 q 439 64 319 64 z "},"ō":{"ha":878,"x_min":69,"x_max":808,"o":"m 231 846 l 649 846 l 649 771 l 231 771 l 231 846 m 439 -21 q 247 22 331 -21 q 116 145 163 65 q 69 332 69 225 q 117 518 69 438 q 248 643 164 599 q 439 688 332 688 q 630 643 546 688 q 761 518 714 599 q 808 332 808 438 q 762 145 808 225 q 631 22 715 65 q 439 -21 547 -21 m 439 64 q 630 137 558 64 q 701 332 701 210 q 630 528 701 456 q 439 601 558 601 q 248 528 319 601 q 176 332 176 456 q 248 137 176 210 q 439 64 319 64 z "},"ø":{"ha":878,"x_min":69,"x_max":808,"o":"m 258 15 q 119 139 169 57 q 69 332 69 221 q 117 518 69 438 q 248 643 164 599 q 439 688 332 688 q 525 679 483 688 l 568 786 l 674 786 l 618 649 q 758 524 707 607 q 808 332 808 440 q 762 145 808 225 q 631 22 715 65 q 439 -21 547 -21 q 353 -12 393 -21 l 310 -119 l 204 -119 l 258 15 m 492 597 q 439 601 467 601 q 248 528 319 601 q 176 332 176 456 q 206 194 176 253 q 292 101 236 135 l 492 597 m 439 64 q 630 137 558 64 q 701 332 701 210 q 671 472 701 411 q 585 564 640 532 l 385 68 q 439 64 411 64 z "},"ǿ":{"ha":878,"x_min":69,"x_max":808,"o":"m 461 979 l 574 979 l 463 743 l 367 743 l 461 979 m 258 15 q 119 139 169 57 q 69 332 69 221 q 117 518 69 438 q 248 643 164 599 q 439 688 332 688 q 525 679 483 688 l 568 786 l 674 786 l 618 649 q 758 524 707 607 q 808 332 808 440 q 762 145 808 225 q 631 22 715 65 q 439 -21 547 -21 q 353 -12 393 -21 l 310 -119 l 204 -119 l 258 15 m 492 597 q 439 601 467 601 q 248 528 319 601 q 176 332 176 456 q 206 194 176 253 q 292 101 236 135 l 492 597 m 439 64 q 630 137 558 64 q 701 332 701 210 q 671 472 701 411 q 585 564 640 532 l 385 68 q 439 64 411 64 z "},"õ":{"ha":878,"x_min":69,"x_max":808,"o":"m 182 839 q 314 899 221 899 q 372 890 344 899 q 443 864 400 882 q 507 838 479 847 q 565 829 535 829 q 638 846 606 829 q 697 901 671 863 l 697 806 q 565 747 658 747 q 500 756 531 747 q 431 783 469 765 q 367 808 392 800 q 314 817 343 817 q 243 800 275 817 q 182 743 211 783 l 182 839 m 439 -21 q 247 22 331 -21 q 116 145 163 65 q 69 332 69 225 q 117 518 69 438 q 248 643 164 599 q 439 688 332 688 q 630 643 546 688 q 761 518 714 599 q 808 332 808 438 q 762 145 808 225 q 631 22 715 65 q 439 -21 547 -21 m 439 64 q 630 137 558 64 q 701 332 701 210 q 630 528 701 456 q 439 601 558 601 q 248 528 319 601 q 176 332 176 456 q 248 137 176 210 q 439 64 319 64 z "},"œ":{"ha":1482,"x_min":69,"x_max":1413,"o":"m 1413 292 l 807 292 q 891 121 813 178 q 1104 64 969 64 q 1233 76 1169 64 q 1346 108 1296 88 l 1346 18 q 1233 -10 1304 1 q 1093 -21 1161 -21 q 889 19 975 -21 q 756 136 803 60 q 627 20 710 61 q 439 -21 544 -21 q 247 22 331 -21 q 116 145 163 65 q 69 332 69 225 q 117 518 69 438 q 248 643 164 599 q 439 688 332 688 q 624 647 542 688 q 754 531 706 606 q 874 647 796 606 q 1060 688 951 688 q 1253 644 1174 688 q 1372 524 1332 600 q 1413 350 1413 447 l 1413 292 m 439 64 q 630 137 558 64 q 701 332 701 210 q 630 528 701 456 q 439 601 558 601 q 248 528 319 601 q 176 332 176 456 q 248 137 176 210 q 439 64 319 64 m 1313 368 q 1246 539 1310 476 q 1058 601 1182 601 q 874 537 938 601 q 807 368 810 472 l 1313 368 z "},"p":{"ha":911,"x_min":97,"x_max":842,"o":"m 97 667 l 201 667 l 201 551 q 493 688 300 688 q 671 643 592 688 q 796 518 750 599 q 842 332 842 438 q 797 147 842 228 q 672 23 751 67 q 493 -21 592 -21 q 325 13 403 -21 q 204 113 247 47 l 204 -304 l 97 -304 l 97 667 m 471 64 q 606 97 546 64 q 701 191 667 131 q 735 332 735 251 q 701 473 735 411 q 606 568 667 535 q 471 601 546 601 q 305 552 376 601 q 204 417 233 503 l 204 251 q 303 115 231 167 q 471 64 376 64 z "},"þ":{"ha":911,"x_min":97,"x_max":842,"o":"m 97 971 l 204 971 l 204 556 q 326 653 251 619 q 493 688 401 688 q 671 644 592 688 q 796 520 750 600 q 842 335 842 440 q 797 149 842 229 q 672 24 751 68 q 493 -21 592 -21 q 325 13 403 -21 q 204 113 247 47 l 204 -304 l 97 -304 l 97 971 m 471 64 q 605 98 544 64 q 700 193 665 132 q 735 335 735 254 q 700 474 735 414 q 605 568 665 535 q 471 601 544 601 q 303 552 375 601 q 204 417 232 503 l 204 251 q 303 115 231 165 q 471 64 376 64 z "},"q":{"ha":911,"x_min":69,"x_max":814,"o":"m 707 113 q 586 13 664 47 q 418 -21 508 -21 q 240 23 319 -21 q 115 147 160 67 q 69 332 69 228 q 115 518 69 438 q 240 643 161 599 q 418 688 319 688 q 710 551 611 688 l 710 667 l 814 667 l 814 -304 l 707 -304 l 707 113 m 440 64 q 608 115 535 64 q 707 251 681 167 l 707 417 q 606 552 678 503 q 440 601 535 601 q 305 568 365 601 q 210 473 244 535 q 176 332 176 411 q 210 191 176 251 q 305 97 244 131 q 440 64 365 64 z "},"r":{"ha":544,"x_min":97,"x_max":503,"o":"m 97 667 l 201 667 l 201 536 q 503 667 282 667 l 503 581 q 204 421 261 581 l 204 0 l 97 0 l 97 667 z "},"ŕ":{"ha":544,"x_min":97,"x_max":503,"o":"m 286 979 l 399 979 l 288 743 l 192 743 l 286 979 m 97 667 l 201 667 l 201 536 q 503 667 282 667 l 503 581 q 204 421 261 581 l 204 0 l 97 0 l 97 667 z "},"ř":{"ha":544,"x_min":8,"x_max":503,"o":"m 8 967 l 118 967 l 246 808 l 374 967 l 482 967 l 292 743 l 199 743 l 8 967 m 97 667 l 201 667 l 201 536 q 503 667 282 667 l 503 581 q 204 421 261 581 l 204 0 l 97 0 l 97 667 z "},"ŗ":{"ha":544,"x_min":-15,"x_max":503,"o":"m 97 667 l 201 667 l 201 536 q 503 667 282 667 l 503 581 q 204 421 261 581 l 204 0 l 97 0 l 97 667 m 96 -87 l 208 -87 l 82 -361 l -15 -361 l 96 -87 z "},"ṛ":{"ha":544,"x_min":79,"x_max":503,"o":"m 97 667 l 201 667 l 201 536 q 503 667 282 667 l 503 581 q 204 421 261 581 l 204 0 l 97 0 l 97 667 m 149 -211 q 100 -191 121 -211 q 79 -143 79 -171 q 100 -95 79 -115 q 149 -75 121 -75 q 197 -95 176 -75 q 217 -143 217 -115 q 197 -191 217 -171 q 149 -211 176 -211 z "},"ṝ":{"ha":544,"x_min":79,"x_max":507,"o":"m 89 900 l 507 900 l 507 825 l 89 825 l 89 900 m 97 667 l 201 667 l 201 536 q 503 667 282 667 l 503 581 q 204 421 261 581 l 204 0 l 97 0 l 97 667 m 149 -211 q 100 -191 121 -211 q 79 -143 79 -171 q 100 -95 79 -115 q 149 -75 121 -75 q 197 -95 176 -75 q 217 -143 217 -115 q 197 -191 217 -171 q 149 -211 176 -211 z "},"ṟ":{"ha":544,"x_min":64,"x_max":503,"o":"m 97 667 l 201 667 l 201 536 q 503 667 282 667 l 503 581 q 204 421 261 581 l 204 0 l 97 0 l 97 667 m 64 -103 l 488 -103 l 488 -182 l 64 -182 l 64 -103 z "},"s":{"ha":665,"x_min":69,"x_max":596,"o":"m 329 -21 q 189 -2 264 -21 q 72 44 114 17 l 72 135 q 194 83 125 103 q 326 64 263 64 q 451 88 413 64 q 489 161 489 113 q 472 220 489 199 q 417 258 456 242 q 296 297 378 275 q 167 344 215 319 q 94 406 119 368 q 69 501 69 443 q 142 640 69 592 q 336 688 215 688 q 459 676 401 688 q 556 643 517 664 l 556 553 q 458 588 515 575 q 340 601 401 601 q 218 578 260 601 q 176 501 176 554 q 191 446 176 465 q 245 410 206 426 q 372 371 285 394 q 547 290 497 336 q 596 161 596 243 q 530 28 596 76 q 329 -21 464 -21 z "},"ś":{"ha":665,"x_min":69,"x_max":596,"o":"m 358 979 l 471 979 l 360 743 l 264 743 l 358 979 m 329 -21 q 189 -2 264 -21 q 72 44 114 17 l 72 135 q 194 83 125 103 q 326 64 263 64 q 451 88 413 64 q 489 161 489 113 q 472 220 489 199 q 417 258 456 242 q 296 297 378 275 q 167 344 215 319 q 94 406 119 368 q 69 501 69 443 q 142 640 69 592 q 336 688 215 688 q 459 676 401 688 q 556 643 517 664 l 556 553 q 458 588 515 575 q 340 601 401 601 q 218 578 260 601 q 176 501 176 554 q 191 446 176 465 q 245 410 206 426 q 372 371 285 394 q 547 290 497 336 q 596 161 596 243 q 530 28 596 76 q 329 -21 464 -21 z "},"š":{"ha":665,"x_min":69,"x_max":596,"o":"m 96 967 l 206 967 l 333 808 l 461 967 l 569 967 l 379 743 l 286 743 l 96 967 m 329 -21 q 189 -2 264 -21 q 72 44 114 17 l 72 135 q 194 83 125 103 q 326 64 263 64 q 451 88 413 64 q 489 161 489 113 q 472 220 489 199 q 417 258 456 242 q 296 297 378 275 q 167 344 215 319 q 94 406 119 368 q 69 501 69 443 q 142 640 69 592 q 336 688 215 688 q 459 676 401 688 q 556 643 517 664 l 556 553 q 458 588 515 575 q 340 601 401 601 q 218 578 260 601 q 176 501 176 554 q 191 446 176 465 q 245 410 206 426 q 372 371 285 394 q 547 290 497 336 q 596 161 596 243 q 530 28 596 76 q 329 -21 464 -21 z "},"ş":{"ha":665,"x_min":69,"x_max":596,"o":"m 596 161 q 540 37 596 85 q 371 -19 485 -11 l 346 -83 q 475 -211 475 -100 q 428 -307 475 -269 q 303 -344 382 -344 q 245 -340 274 -344 q 201 -331 217 -336 l 201 -264 q 238 -274 215 -269 q 281 -278 260 -278 q 375 -208 375 -278 q 342 -149 375 -168 q 232 -129 310 -129 l 274 -18 q 161 6 217 -11 q 72 44 106 22 l 72 135 q 194 83 125 103 q 326 64 263 64 q 451 88 413 64 q 489 161 489 113 q 472 220 489 199 q 417 258 456 242 q 296 297 378 275 q 167 344 215 319 q 94 406 119 368 q 69 501 69 443 q 142 640 69 592 q 336 688 215 688 q 459 676 401 688 q 556 643 517 664 l 556 553 q 458 588 515 575 q 340 601 401 601 q 218 578 260 601 q 176 501 176 554 q 191 446 176 465 q 245 410 206 426 q 372 371 285 394 q 547 290 497 336 q 596 161 596 243 z "},"ŝ":{"ha":665,"x_min":69,"x_max":596,"o":"m 289 967 l 382 967 l 572 743 l 464 743 l 336 901 l 208 743 l 99 743 l 289 967 m 329 -21 q 189 -2 264 -21 q 72 44 114 17 l 72 135 q 194 83 125 103 q 326 64 263 64 q 451 88 413 64 q 489 161 489 113 q 472 220 489 199 q 417 258 456 242 q 296 297 378 275 q 167 344 215 319 q 94 406 119 368 q 69 501 69 443 q 142 640 69 592 q 336 688 215 688 q 459 676 401 688 q 556 643 517 664 l 556 553 q 458 588 515 575 q 340 601 401 601 q 218 578 260 601 q 176 501 176 554 q 191 446 176 465 q 245 410 206 426 q 372 371 285 394 q 547 290 497 336 q 596 161 596 243 q 530 28 596 76 q 329 -21 464 -21 z "},"ș":{"ha":665,"x_min":69,"x_max":596,"o":"m 329 -21 q 189 -2 264 -21 q 72 44 114 17 l 72 135 q 194 83 125 103 q 326 64 263 64 q 451 88 413 64 q 489 161 489 113 q 472 220 489 199 q 417 258 456 242 q 296 297 378 275 q 167 344 215 319 q 94 406 119 368 q 69 501 69 443 q 142 640 69 592 q 336 688 215 688 q 459 676 401 688 q 556 643 517 664 l 556 553 q 458 588 515 575 q 340 601 401 601 q 218 578 260 601 q 176 501 176 554 q 191 446 176 465 q 245 410 206 426 q 372 371 285 394 q 547 290 497 336 q 596 161 596 243 q 530 28 596 76 q 329 -21 464 -21 m 286 -87 l 399 -87 l 271 -360 l 174 -360 l 286 -87 z "},"ṡ":{"ha":665,"x_min":69,"x_max":596,"o":"m 333 743 q 285 763 306 743 q 264 811 264 783 q 285 859 264 839 q 333 879 306 879 q 381 859 361 879 q 401 811 401 839 q 381 763 401 783 q 333 743 361 743 m 329 -21 q 189 -2 264 -21 q 72 44 114 17 l 72 135 q 194 83 125 103 q 326 64 263 64 q 451 88 413 64 q 489 161 489 113 q 472 220 489 199 q 417 258 456 242 q 296 297 378 275 q 167 344 215 319 q 94 406 119 368 q 69 501 69 443 q 142 640 69 592 q 336 688 215 688 q 459 676 401 688 q 556 643 517 664 l 556 553 q 458 588 515 575 q 340 601 401 601 q 218 578 260 601 q 176 501 176 554 q 191 446 176 465 q 245 410 206 426 q 372 371 285 394 q 547 290 497 336 q 596 161 596 243 q 530 28 596 76 q 329 -21 464 -21 z "},"ṣ":{"ha":665,"x_min":69,"x_max":596,"o":"m 329 -21 q 189 -2 264 -21 q 72 44 114 17 l 72 135 q 194 83 125 103 q 326 64 263 64 q 451 88 413 64 q 489 161 489 113 q 472 220 489 199 q 417 258 456 242 q 296 297 378 275 q 167 344 215 319 q 94 406 119 368 q 69 501 69 443 q 142 640 69 592 q 336 688 215 688 q 459 676 401 688 q 556 643 517 664 l 556 553 q 458 588 515 575 q 340 601 401 601 q 218 578 260 601 q 176 501 176 554 q 191 446 176 465 q 245 410 206 426 q 372 371 285 394 q 547 290 497 336 q 596 161 596 243 q 530 28 596 76 q 329 -21 464 -21 m 329 -211 q 281 -191 301 -211 q 260 -143 260 -171 q 281 -95 260 -115 q 329 -75 301 -75 q 377 -95 357 -75 q 397 -143 397 -115 q 377 -191 397 -171 q 329 -211 357 -211 z "},"ß":{"ha":860,"x_min":90,"x_max":790,"o":"m 486 -21 q 300 7 363 -21 l 300 106 q 377 83 336 89 q 472 76 418 76 q 625 136 568 76 q 682 294 682 196 q 619 442 682 396 q 446 488 556 488 l 385 488 l 385 579 l 442 579 q 555 626 515 579 q 594 760 594 674 q 542 887 594 839 q 401 935 490 935 q 199 715 199 935 l 199 0 l 90 0 l 90 708 q 172 951 90 868 q 401 1033 254 1033 q 568 995 500 1033 q 669 894 636 957 q 703 760 703 832 q 672 628 703 683 q 583 544 640 572 q 735 459 681 526 q 790 282 790 392 q 712 63 790 147 q 486 -21 633 -21 z "},"ə":{"ha":844,"x_min":69,"x_max":775,"o":"m 422 -21 q 229 23 308 -21 q 110 143 150 67 q 69 317 69 219 l 69 375 l 675 375 q 591 546 669 489 q 378 603 513 603 q 249 591 313 603 q 136 558 186 579 l 136 649 q 249 676 178 665 q 389 688 321 688 q 673 594 571 688 q 775 335 775 501 q 683 75 775 171 q 422 -21 592 -21 m 424 65 q 608 130 544 65 q 675 299 672 194 l 169 299 q 236 128 172 190 q 424 65 300 65 z "},"t":{"ha":507,"x_min":42,"x_max":458,"o":"m 344 -21 q 198 35 250 -21 q 146 193 146 90 l 146 583 l 42 583 l 42 667 l 146 667 l 146 867 l 253 867 l 253 667 l 421 667 l 421 583 l 253 583 l 253 190 q 281 92 253 121 q 382 64 308 64 q 458 81 418 64 l 458 -7 q 344 -21 413 -21 z "},"ŧ":{"ha":508,"x_min":42,"x_max":460,"o":"m 346 -21 q 199 33 251 -21 q 147 189 147 86 l 147 331 l 42 331 l 42 397 l 147 397 l 147 590 l 43 590 l 43 667 l 147 667 l 147 867 l 254 867 l 254 667 l 424 667 l 424 590 l 254 590 l 254 397 l 422 397 l 422 331 l 254 331 l 254 199 q 285 97 254 129 q 383 64 317 64 q 460 79 422 64 l 460 -6 q 346 -21 410 -21 z "},"ť":{"ha":535,"x_min":42,"x_max":556,"o":"m 443 1085 l 556 1085 l 429 811 l 332 811 l 443 1085 m 344 -21 q 198 35 250 -21 q 146 193 146 90 l 146 583 l 42 583 l 42 667 l 146 667 l 146 867 l 253 867 l 253 667 l 421 667 l 421 583 l 253 583 l 253 190 q 281 92 253 121 q 382 64 308 64 q 458 81 418 64 l 458 -7 q 344 -21 413 -21 z "},"ţ":{"ha":507,"x_min":42,"x_max":472,"o":"m 343 -83 q 472 -211 472 -100 q 426 -307 472 -269 q 300 -344 379 -344 q 242 -340 271 -344 q 199 -331 214 -336 l 199 -264 q 235 -274 213 -269 q 278 -278 257 -278 q 372 -208 372 -278 q 340 -149 372 -168 q 229 -129 307 -129 l 274 -11 q 179 59 213 7 q 146 193 146 111 l 146 583 l 42 583 l 42 667 l 146 667 l 146 867 l 253 867 l 253 667 l 421 667 l 421 583 l 253 583 l 253 190 q 281 92 253 121 q 382 64 308 64 q 458 81 418 64 l 458 -7 q 368 -21 421 -19 l 343 -83 z "},"ț":{"ha":507,"x_min":42,"x_max":458,"o":"m 344 -21 q 198 35 250 -21 q 146 193 146 90 l 146 583 l 42 583 l 42 667 l 146 667 l 146 867 l 253 867 l 253 667 l 421 667 l 421 583 l 253 583 l 253 190 q 281 92 253 121 q 382 64 308 64 q 458 81 418 64 l 458 -7 q 344 -21 413 -21 m 269 -87 l 382 -87 l 256 -361 l 158 -361 l 269 -87 z "},"ẗ":{"ha":581,"x_min":38,"x_max":532,"o":"m 107 935 q 58 955 79 935 q 38 1003 38 975 q 58 1051 38 1031 q 107 1071 79 1071 q 155 1051 135 1071 q 175 1003 175 1031 q 155 955 175 975 q 107 935 135 935 m 408 935 q 360 955 381 935 q 339 1003 339 975 q 360 1051 339 1031 q 408 1071 381 1071 q 456 1051 436 1071 q 476 1003 476 1031 q 456 955 476 975 q 408 935 436 935 m 418 -21 q 272 35 324 -21 q 219 193 219 90 l 219 583 l 115 583 l 115 667 l 219 667 l 219 867 l 326 867 l 326 667 l 494 667 l 494 583 l 326 583 l 326 190 q 354 92 326 121 q 456 64 382 64 q 532 81 492 64 l 532 -7 q 418 -21 486 -21 z "},"ṭ":{"ha":507,"x_min":42,"x_max":458,"o":"m 344 -21 q 198 35 250 -21 q 146 193 146 90 l 146 583 l 42 583 l 42 667 l 146 667 l 146 867 l 253 867 l 253 667 l 421 667 l 421 583 l 253 583 l 253 190 q 281 92 253 121 q 382 64 308 64 q 458 81 418 64 l 458 -7 q 344 -21 413 -21 m 322 -211 q 274 -191 294 -211 q 253 -143 253 -171 q 274 -95 253 -115 q 322 -75 294 -75 q 370 -95 350 -75 q 390 -143 390 -115 q 370 -191 390 -171 q 322 -211 350 -211 z "},"ṯ":{"ha":517,"x_min":42,"x_max":468,"o":"m 344 -21 q 198 35 250 -21 q 146 193 146 90 l 146 583 l 42 583 l 42 667 l 146 667 l 146 867 l 253 867 l 253 667 l 421 667 l 421 583 l 253 583 l 253 190 q 281 92 253 121 q 382 64 308 64 q 458 81 418 64 l 458 -7 q 344 -21 413 -21 m 44 -103 l 468 -103 l 468 -182 l 44 -182 l 44 -103 z "},"u":{"ha":821,"x_min":90,"x_max":724,"o":"m 367 -21 q 162 51 233 -21 q 90 244 90 124 l 90 667 l 197 667 l 197 239 q 379 64 197 64 q 513 97 456 64 q 617 203 571 131 l 617 667 l 724 667 l 724 0 l 619 0 l 619 100 q 367 -21 529 -21 z "},"ú":{"ha":821,"x_min":90,"x_max":724,"o":"m 450 979 l 563 979 l 451 743 l 356 743 l 450 979 m 367 -21 q 162 51 233 -21 q 90 244 90 124 l 90 667 l 197 667 l 197 239 q 379 64 197 64 q 513 97 456 64 q 617 203 571 131 l 617 667 l 724 667 l 724 0 l 619 0 l 619 100 q 367 -21 529 -21 z "},"ŭ":{"ha":821,"x_min":90,"x_max":724,"o":"m 406 743 q 264 794 317 743 q 211 924 211 844 l 294 924 q 324 847 294 875 q 406 818 354 818 q 487 847 457 818 q 517 924 517 875 l 599 924 q 546 794 599 844 q 406 743 493 743 m 367 -21 q 162 51 233 -21 q 90 244 90 124 l 90 667 l 197 667 l 197 239 q 379 64 197 64 q 513 97 456 64 q 617 203 571 131 l 617 667 l 724 667 l 724 0 l 619 0 l 619 100 q 367 -21 529 -21 z "},"ǔ":{"ha":821,"x_min":90,"x_max":724,"o":"m 171 967 l 281 967 l 408 808 l 536 967 l 644 967 l 454 743 l 361 743 l 171 967 m 367 -21 q 162 51 233 -21 q 90 244 90 124 l 90 667 l 197 667 l 197 239 q 379 64 197 64 q 513 97 456 64 q 617 203 571 131 l 617 667 l 724 667 l 724 0 l 619 0 l 619 100 q 367 -21 529 -21 z "},"û":{"ha":821,"x_min":90,"x_max":724,"o":"m 353 967 l 446 967 l 636 743 l 528 743 l 400 901 l 272 743 l 163 743 l 353 967 m 367 -21 q 162 51 233 -21 q 90 244 90 124 l 90 667 l 197 667 l 197 239 q 379 64 197 64 q 513 97 456 64 q 617 203 571 131 l 617 667 l 724 667 l 724 0 l 619 0 l 619 100 q 367 -21 529 -21 z "},"ü":{"ha":821,"x_min":90,"x_max":724,"o":"m 258 743 q 210 763 231 743 q 189 811 189 783 q 210 859 189 839 q 258 879 231 879 q 306 859 286 879 q 326 811 326 839 q 306 763 326 783 q 258 743 286 743 m 560 743 q 511 763 532 743 q 490 811 490 783 q 511 859 490 839 q 560 879 532 879 q 608 859 588 879 q 628 811 628 839 q 608 763 628 783 q 560 743 588 743 m 367 -21 q 162 51 233 -21 q 90 244 90 124 l 90 667 l 197 667 l 197 239 q 379 64 197 64 q 513 97 456 64 q 617 203 571 131 l 617 667 l 724 667 l 724 0 l 619 0 l 619 100 q 367 -21 529 -21 z "},"ǘ":{"ha":821,"x_min":90,"x_max":724,"o":"m 432 1026 l 521 1026 l 433 856 l 358 856 l 432 1026 m 254 743 q 206 763 226 743 q 185 811 185 783 q 206 859 185 839 q 254 879 226 879 q 302 859 282 879 q 322 811 322 839 q 302 763 322 783 q 254 743 282 743 m 556 743 q 507 763 528 743 q 486 811 486 783 q 507 859 486 839 q 556 879 528 879 q 603 859 583 879 q 624 811 624 839 q 603 763 624 783 q 556 743 583 743 m 367 -21 q 162 51 233 -21 q 90 244 90 124 l 90 667 l 197 667 l 197 239 q 379 64 197 64 q 513 97 456 64 q 617 203 571 131 l 617 667 l 724 667 l 724 0 l 619 0 l 619 100 q 367 -21 529 -21 z "},"ǚ":{"ha":821,"x_min":90,"x_max":724,"o":"m 194 1019 l 292 1019 l 403 903 l 514 1019 l 610 1019 l 443 850 l 363 850 l 194 1019 m 250 743 q 202 763 222 743 q 182 811 182 783 q 202 859 182 839 q 250 879 222 879 q 299 859 278 879 q 319 811 319 839 q 299 763 319 783 q 250 743 278 743 m 551 743 q 503 763 524 743 q 483 811 483 783 q 503 859 483 839 q 551 879 524 879 q 600 859 579 879 q 621 811 621 839 q 600 763 621 783 q 551 743 579 743 m 367 -21 q 162 51 233 -21 q 90 244 90 124 l 90 667 l 197 667 l 197 239 q 379 64 197 64 q 513 97 456 64 q 617 203 571 131 l 617 667 l 724 667 l 724 0 l 619 0 l 619 100 q 367 -21 529 -21 z "},"ǜ":{"ha":821,"x_min":90,"x_max":724,"o":"m 286 1026 l 375 1026 l 449 856 l 374 856 l 286 1026 m 251 743 q 203 763 224 743 q 183 811 183 783 q 203 859 183 839 q 251 879 224 879 q 300 859 279 879 q 321 811 321 839 q 300 763 321 783 q 251 743 279 743 m 553 743 q 505 763 525 743 q 485 811 485 783 q 505 859 485 839 q 553 879 525 879 q 601 859 581 879 q 622 811 622 839 q 601 763 622 783 q 553 743 581 743 m 367 -21 q 162 51 233 -21 q 90 244 90 124 l 90 667 l 197 667 l 197 239 q 379 64 197 64 q 513 97 456 64 q 617 203 571 131 l 617 667 l 724 667 l 724 0 l 619 0 l 619 100 q 367 -21 529 -21 z "},"ǖ":{"ha":821,"x_min":90,"x_max":724,"o":"m 197 1042 l 615 1042 l 615 967 l 197 967 l 197 1042 m 257 743 q 208 763 229 743 q 188 811 188 783 q 208 859 188 839 q 257 879 229 879 q 305 859 285 879 q 325 811 325 839 q 305 763 325 783 q 257 743 285 743 m 558 743 q 510 763 531 743 q 489 811 489 783 q 510 859 489 839 q 558 879 531 879 q 606 859 586 879 q 626 811 626 839 q 606 763 626 783 q 558 743 586 743 m 367 -21 q 162 51 233 -21 q 90 244 90 124 l 90 667 l 197 667 l 197 239 q 379 64 197 64 q 513 97 456 64 q 617 203 571 131 l 617 667 l 724 667 l 724 0 l 619 0 l 619 100 q 367 -21 529 -21 z "},"ụ":{"ha":821,"x_min":90,"x_max":724,"o":"m 367 -21 q 162 51 233 -21 q 90 244 90 124 l 90 667 l 197 667 l 197 239 q 379 64 197 64 q 513 97 456 64 q 617 203 571 131 l 617 667 l 724 667 l 724 0 l 619 0 l 619 100 q 367 -21 529 -21 m 393 -211 q 344 -191 365 -211 q 324 -143 324 -171 q 344 -95 324 -115 q 393 -75 365 -75 q 441 -95 421 -75 q 461 -143 461 -115 q 441 -191 461 -171 q 393 -211 421 -211 z "},"ù":{"ha":821,"x_min":90,"x_max":724,"o":"m 256 979 l 368 979 l 463 743 l 367 743 l 256 979 m 367 -21 q 162 51 233 -21 q 90 244 90 124 l 90 667 l 197 667 l 197 239 q 379 64 197 64 q 513 97 456 64 q 617 203 571 131 l 617 667 l 724 667 l 724 0 l 619 0 l 619 100 q 367 -21 529 -21 z "},"ủ":{"ha":821,"x_min":90,"x_max":724,"o":"m 346 838 q 444 856 413 838 q 475 918 475 875 q 451 971 475 954 q 378 988 428 988 q 332 983 358 988 q 294 974 306 979 l 294 1036 q 342 1047 313 1043 q 400 1051 372 1051 q 526 1017 483 1051 q 569 922 569 982 q 535 834 569 871 q 439 792 501 797 l 439 743 l 346 743 l 346 838 m 367 -21 q 162 51 233 -21 q 90 244 90 124 l 90 667 l 197 667 l 197 239 q 379 64 197 64 q 513 97 456 64 q 617 203 571 131 l 617 667 l 724 667 l 724 0 l 619 0 l 619 100 q 367 -21 529 -21 z "},"ư":{"ha":971,"x_min":90,"x_max":936,"o":"m 358 -21 q 157 50 224 -21 q 90 238 90 121 l 90 667 l 197 667 l 197 247 q 241 113 197 161 q 379 64 285 64 q 617 203 529 64 l 617 667 l 724 667 l 724 601 q 815 636 781 603 q 849 722 849 669 l 849 775 l 936 775 l 936 719 q 878 584 936 639 q 724 528 819 529 l 724 0 l 619 0 l 619 107 q 503 10 571 40 q 358 -21 435 -21 z "},"ứ":{"ha":971,"x_min":90,"x_max":936,"o":"m 442 979 l 554 979 l 443 743 l 347 743 l 442 979 m 358 -21 q 157 50 224 -21 q 90 238 90 121 l 90 667 l 197 667 l 197 247 q 241 113 197 161 q 379 64 285 64 q 617 203 529 64 l 617 667 l 724 667 l 724 601 q 815 636 781 603 q 849 722 849 669 l 849 775 l 936 775 l 936 719 q 878 584 936 639 q 724 528 819 529 l 724 0 l 619 0 l 619 107 q 503 10 571 40 q 358 -21 435 -21 z "},"ự":{"ha":971,"x_min":90,"x_max":936,"o":"m 358 -21 q 157 50 224 -21 q 90 238 90 121 l 90 667 l 197 667 l 197 247 q 241 113 197 161 q 379 64 285 64 q 617 203 529 64 l 617 667 l 724 667 l 724 601 q 815 636 781 603 q 849 722 849 669 l 849 775 l 936 775 l 936 719 q 878 584 936 639 q 724 528 819 529 l 724 0 l 619 0 l 619 107 q 503 10 571 40 q 358 -21 435 -21 m 404 -211 q 356 -191 376 -211 q 335 -143 335 -171 q 356 -95 335 -115 q 404 -75 376 -75 q 452 -95 432 -75 q 472 -143 472 -115 q 452 -191 472 -171 q 404 -211 432 -211 z "},"ừ":{"ha":971,"x_min":90,"x_max":936,"o":"m 258 979 l 371 979 l 465 743 l 369 743 l 258 979 m 358 -21 q 157 50 224 -21 q 90 238 90 121 l 90 667 l 197 667 l 197 247 q 241 113 197 161 q 379 64 285 64 q 617 203 529 64 l 617 667 l 724 667 l 724 601 q 815 636 781 603 q 849 722 849 669 l 849 775 l 936 775 l 936 719 q 878 584 936 639 q 724 528 819 529 l 724 0 l 619 0 l 619 107 q 503 10 571 40 q 358 -21 435 -21 z "},"ử":{"ha":971,"x_min":90,"x_max":936,"o":"m 357 838 q 455 856 424 838 q 486 918 486 875 q 463 971 486 954 q 389 988 439 988 q 343 983 369 988 q 306 974 317 979 l 306 1036 q 353 1047 324 1043 q 411 1051 383 1051 q 538 1017 494 1051 q 581 922 581 982 q 547 834 581 871 q 450 792 513 797 l 450 743 l 357 743 l 357 838 m 358 -21 q 157 50 224 -21 q 90 238 90 121 l 90 667 l 197 667 l 197 247 q 241 113 197 161 q 379 64 285 64 q 617 203 529 64 l 617 667 l 724 667 l 724 601 q 815 636 781 603 q 849 722 849 669 l 849 775 l 936 775 l 936 719 q 878 584 936 639 q 724 528 819 529 l 724 0 l 619 0 l 619 107 q 503 10 571 40 q 358 -21 435 -21 z "},"ữ":{"ha":971,"x_min":90,"x_max":936,"o":"m 156 839 q 288 899 194 899 q 346 890 318 899 q 417 864 374 882 q 481 838 453 847 q 539 829 508 829 q 612 846 579 829 q 671 901 644 863 l 671 806 q 539 747 632 747 q 474 756 504 747 q 404 783 443 765 q 341 808 365 800 q 288 817 317 817 q 217 800 249 817 q 156 743 185 783 l 156 839 m 358 -21 q 157 50 224 -21 q 90 238 90 121 l 90 667 l 197 667 l 197 247 q 241 113 197 161 q 379 64 285 64 q 617 203 529 64 l 617 667 l 724 667 l 724 601 q 815 636 781 603 q 849 722 849 669 l 849 775 l 936 775 l 936 719 q 878 584 936 639 q 724 528 819 529 l 724 0 l 619 0 l 619 107 q 503 10 571 40 q 358 -21 435 -21 z "},"ű":{"ha":821,"x_min":90,"x_max":724,"o":"m 311 979 l 424 979 l 313 743 l 217 743 l 311 979 m 575 979 l 688 979 l 576 743 l 481 743 l 575 979 m 367 -21 q 162 51 233 -21 q 90 244 90 124 l 90 667 l 197 667 l 197 239 q 379 64 197 64 q 513 97 456 64 q 617 203 571 131 l 617 667 l 724 667 l 724 0 l 619 0 l 619 100 q 367 -21 529 -21 z "},"ū":{"ha":821,"x_min":90,"x_max":724,"o":"m 200 846 l 618 846 l 618 771 l 200 771 l 200 846 m 367 -21 q 162 51 233 -21 q 90 244 90 124 l 90 667 l 197 667 l 197 239 q 379 64 197 64 q 513 97 456 64 q 617 203 571 131 l 617 667 l 724 667 l 724 0 l 619 0 l 619 100 q 367 -21 529 -21 z "},"ų":{"ha":806,"x_min":90,"x_max":743,"o":"m 678 -221 q 743 -207 713 -221 l 743 -276 q 651 -292 708 -292 q 555 -260 593 -292 q 517 -171 517 -229 q 546 -75 517 -119 q 621 0 575 -31 l 619 0 l 619 100 q 367 -21 529 -21 q 162 51 233 -21 q 90 244 90 124 l 90 667 l 197 667 l 197 239 q 379 64 197 64 q 513 97 456 64 q 617 203 571 131 l 617 667 l 724 667 l 724 0 l 721 0 q 639 -75 667 -37 q 611 -156 611 -112 q 627 -206 611 -190 q 678 -221 643 -221 z "},"ů":{"ha":821,"x_min":90,"x_max":724,"o":"m 408 743 q 302 787 346 743 q 258 893 258 831 q 302 999 258 954 q 408 1043 346 1043 q 514 999 469 1043 q 558 893 558 954 q 514 787 558 831 q 408 743 469 743 m 408 813 q 464 837 440 813 q 488 893 488 861 q 464 949 488 925 q 408 972 440 972 q 352 949 375 972 q 329 893 329 925 q 353 837 329 861 q 408 813 376 813 m 367 -21 q 162 51 233 -21 q 90 244 90 124 l 90 667 l 197 667 l 197 239 q 379 64 197 64 q 513 97 456 64 q 617 203 571 131 l 617 667 l 724 667 l 724 0 l 619 0 l 619 100 q 367 -21 529 -21 z "},"ũ":{"ha":821,"x_min":90,"x_max":724,"o":"m 158 839 q 290 899 197 899 q 349 890 321 899 q 419 864 376 882 q 483 838 456 847 q 542 829 511 829 q 615 846 582 829 q 674 901 647 863 l 674 806 q 542 747 635 747 q 476 756 507 747 q 407 783 446 765 q 344 808 368 800 q 290 817 319 817 q 219 800 251 817 q 158 743 188 783 l 158 839 m 367 -21 q 162 51 233 -21 q 90 244 90 124 l 90 667 l 197 667 l 197 239 q 379 64 197 64 q 513 97 456 64 q 617 203 571 131 l 617 667 l 724 667 l 724 0 l 619 0 l 619 100 q 367 -21 529 -21 z "},"v":{"ha":790,"x_min":69,"x_max":721,"o":"m 69 667 l 183 667 l 394 132 l 606 667 l 721 667 l 450 0 l 339 0 l 69 667 z "},"w":{"ha":1119,"x_min":69,"x_max":1050,"o":"m 69 667 l 181 667 l 346 129 l 508 667 l 610 667 l 774 129 l 938 667 l 1050 667 l 836 0 l 726 0 l 560 543 l 393 0 l 282 0 l 69 667 z "},"ẃ":{"ha":1119,"x_min":69,"x_max":1050,"o":"m 614 979 l 726 979 l 615 743 l 519 743 l 614 979 m 69 667 l 181 667 l 346 129 l 508 667 l 610 667 l 774 129 l 938 667 l 1050 667 l 836 0 l 726 0 l 560 543 l 393 0 l 282 0 l 69 667 z "},"ŵ":{"ha":1119,"x_min":69,"x_max":1050,"o":"m 514 967 l 607 967 l 797 743 l 689 743 l 561 901 l 433 743 l 324 743 l 514 967 m 69 667 l 181 667 l 346 129 l 508 667 l 610 667 l 774 129 l 938 667 l 1050 667 l 836 0 l 726 0 l 560 543 l 393 0 l 282 0 l 69 667 z "},"ẅ":{"ha":1119,"x_min":69,"x_max":1050,"o":"m 410 743 q 361 763 382 743 q 340 811 340 783 q 361 859 340 839 q 410 879 382 879 q 458 859 438 879 q 478 811 478 839 q 458 763 478 783 q 410 743 438 743 m 711 743 q 663 763 683 743 q 642 811 642 783 q 663 859 642 839 q 711 879 683 879 q 759 859 739 879 q 779 811 779 839 q 759 763 779 783 q 711 743 739 743 m 69 667 l 181 667 l 346 129 l 508 667 l 610 667 l 774 129 l 938 667 l 1050 667 l 836 0 l 726 0 l 560 543 l 393 0 l 282 0 l 69 667 z "},"ẁ":{"ha":1119,"x_min":69,"x_max":1050,"o":"m 399 979 l 511 979 l 606 743 l 510 743 l 399 979 m 69 667 l 181 667 l 346 129 l 508 667 l 610 667 l 774 129 l 938 667 l 1050 667 l 836 0 l 726 0 l 560 543 l 393 0 l 282 0 l 69 667 z "},"x":{"ha":840,"x_min":69,"x_max":771,"o":"m 357 353 l 100 667 l 226 667 l 419 429 l 614 667 l 740 667 l 482 353 l 771 0 l 647 0 l 419 276 l 193 0 l 69 0 l 357 353 z "},"y":{"ha":799,"x_min":69,"x_max":757,"o":"m 222 -275 q 108 -262 158 -275 l 108 -176 q 152 -186 124 -182 q 200 -190 181 -190 q 276 -165 247 -190 q 329 -82 306 -140 l 365 4 l 69 667 l 183 667 l 422 128 l 643 667 l 757 667 l 449 -89 q 358 -230 410 -185 q 222 -275 306 -275 z "},"ý":{"ha":799,"x_min":69,"x_max":757,"o":"m 456 979 l 568 979 l 457 743 l 361 743 l 456 979 m 222 -275 q 108 -262 158 -275 l 108 -176 q 152 -186 124 -182 q 200 -190 181 -190 q 276 -165 247 -190 q 329 -82 306 -140 l 365 4 l 69 667 l 183 667 l 422 128 l 643 667 l 757 667 l 449 -89 q 358 -230 410 -185 q 222 -275 306 -275 z "},"ŷ":{"ha":799,"x_min":69,"x_max":757,"o":"m 376 967 l 469 967 l 660 743 l 551 743 l 424 901 l 296 743 l 186 743 l 376 967 m 222 -275 q 108 -262 158 -275 l 108 -176 q 152 -186 124 -182 q 200 -190 181 -190 q 276 -165 247 -190 q 329 -82 306 -140 l 365 4 l 69 667 l 183 667 l 422 128 l 643 667 l 757 667 l 449 -89 q 358 -230 410 -185 q 222 -275 306 -275 z "},"ÿ":{"ha":799,"x_min":69,"x_max":757,"o":"m 272 743 q 224 763 244 743 q 203 811 203 783 q 224 859 203 839 q 272 879 244 879 q 320 859 300 879 q 340 811 340 839 q 320 763 340 783 q 272 743 300 743 m 574 743 q 525 763 546 743 q 504 811 504 783 q 525 859 504 839 q 574 879 546 879 q 622 859 601 879 q 642 811 642 839 q 622 763 642 783 q 574 743 601 743 m 222 -275 q 108 -262 158 -275 l 108 -176 q 152 -186 124 -182 q 200 -190 181 -190 q 276 -165 247 -190 q 329 -82 306 -140 l 365 4 l 69 667 l 183 667 l 422 128 l 643 667 l 757 667 l 449 -89 q 358 -230 410 -185 q 222 -275 306 -275 z "},"ẏ":{"ha":799,"x_min":69,"x_max":757,"o":"m 424 743 q 375 763 396 743 q 354 811 354 783 q 375 859 354 839 q 424 879 396 879 q 472 859 451 879 q 492 811 492 839 q 472 763 492 783 q 424 743 451 743 m 222 -275 q 108 -262 158 -275 l 108 -176 q 152 -186 124 -182 q 200 -190 181 -190 q 276 -165 247 -190 q 329 -82 306 -140 l 365 4 l 69 667 l 183 667 l 422 128 l 643 667 l 757 667 l 449 -89 q 358 -230 410 -185 q 222 -275 306 -275 z "},"ỵ":{"ha":799,"x_min":69,"x_max":757,"o":"m 222 -275 q 108 -262 158 -275 l 108 -176 q 152 -186 124 -182 q 200 -190 181 -190 q 276 -165 247 -190 q 329 -82 306 -140 l 365 4 l 69 667 l 183 667 l 422 128 l 643 667 l 757 667 l 449 -89 q 358 -230 410 -185 q 222 -275 306 -275 m 585 -208 q 536 -188 557 -208 q 515 -140 515 -168 q 536 -92 515 -112 q 585 -72 557 -72 q 633 -92 613 -72 q 653 -140 653 -112 q 633 -188 653 -168 q 585 -208 613 -208 z "},"ỳ":{"ha":799,"x_min":69,"x_max":757,"o":"m 264 979 l 376 979 l 471 743 l 375 743 l 264 979 m 222 -275 q 108 -262 158 -275 l 108 -176 q 152 -186 124 -182 q 200 -190 181 -190 q 276 -165 247 -190 q 329 -82 306 -140 l 365 4 l 69 667 l 183 667 l 422 128 l 643 667 l 757 667 l 449 -89 q 358 -230 410 -185 q 222 -275 306 -275 z "},"ỷ":{"ha":799,"x_min":69,"x_max":757,"o":"m 361 838 q 459 856 428 838 q 490 918 490 875 q 467 971 490 954 q 393 988 443 988 q 347 983 374 988 q 310 974 321 979 l 310 1036 q 358 1047 328 1043 q 415 1051 388 1051 q 542 1017 499 1051 q 585 922 585 982 q 551 834 585 871 q 454 792 517 797 l 454 743 l 361 743 l 361 838 m 222 -275 q 108 -262 158 -275 l 108 -176 q 152 -186 124 -182 q 200 -190 181 -190 q 276 -165 247 -190 q 329 -82 306 -140 l 365 4 l 69 667 l 183 667 l 422 128 l 643 667 l 757 667 l 449 -89 q 358 -230 410 -185 q 222 -275 306 -275 z "},"ỹ":{"ha":799,"x_min":69,"x_max":757,"o":"m 165 839 q 297 899 204 899 q 356 890 328 899 q 426 864 383 882 q 490 838 463 847 q 549 829 518 829 q 622 846 589 829 q 681 901 654 863 l 681 806 q 549 747 642 747 q 483 756 514 747 q 414 783 453 765 q 351 808 375 800 q 297 817 326 817 q 226 800 258 817 q 165 743 194 783 l 165 839 m 222 -275 q 108 -262 158 -275 l 108 -176 q 152 -186 124 -182 q 200 -190 181 -190 q 276 -165 247 -190 q 329 -82 306 -140 l 365 4 l 69 667 l 183 667 l 422 128 l 643 667 l 757 667 l 449 -89 q 358 -230 410 -185 q 222 -275 306 -275 z "},"z":{"ha":692,"x_min":69,"x_max":622,"o":"m 69 72 l 474 583 l 76 583 l 76 667 l 604 667 l 604 594 l 200 83 l 622 83 l 622 0 l 69 0 l 69 72 z "},"ź":{"ha":692,"x_min":69,"x_max":622,"o":"m 368 979 l 481 979 l 369 743 l 274 743 l 368 979 m 69 72 l 474 583 l 76 583 l 76 667 l 604 667 l 604 594 l 200 83 l 622 83 l 622 0 l 69 0 l 69 72 z "},"ž":{"ha":692,"x_min":69,"x_max":622,"o":"m 111 967 l 221 967 l 349 808 l 476 967 l 585 967 l 394 743 l 301 743 l 111 967 m 69 72 l 474 583 l 76 583 l 76 667 l 604 667 l 604 594 l 200 83 l 622 83 l 622 0 l 69 0 l 69 72 z "},"ż":{"ha":692,"x_min":69,"x_max":622,"o":"m 340 743 q 292 763 313 743 q 271 811 271 783 q 292 859 271 839 q 340 879 313 879 q 388 859 368 879 q 408 811 408 839 q 388 763 408 783 q 340 743 368 743 m 69 72 l 474 583 l 76 583 l 76 667 l 604 667 l 604 594 l 200 83 l 622 83 l 622 0 l 69 0 l 69 72 z "},"ẓ":{"ha":671,"x_min":69,"x_max":622,"o":"m 69 72 l 474 583 l 76 583 l 76 667 l 604 667 l 604 594 l 200 83 l 622 83 l 622 0 l 69 0 l 69 72 m 342 -211 q 293 -191 314 -211 q 272 -143 272 -171 q 293 -95 272 -115 q 342 -75 314 -75 q 390 -95 369 -75 q 410 -143 410 -115 q 390 -191 410 -171 q 342 -211 369 -211 z "},"ﬁ":{"ha":797,"x_min":42,"x_max":700,"o":"m 146 583 l 42 583 l 42 667 l 146 667 l 146 811 q 214 976 146 918 q 385 1033 282 1033 q 483 1019 438 1033 l 483 933 q 404 947 450 947 q 292 910 331 947 q 253 806 253 874 l 253 667 l 686 667 l 686 0 l 579 0 l 579 583 l 253 583 l 253 0 l 146 0 l 146 583 m 632 811 q 585 831 604 811 q 565 878 565 850 q 585 925 565 906 q 632 944 604 944 q 680 925 660 944 q 700 878 700 906 q 680 831 700 850 q 632 811 660 811 z "},"ﬂ":{"ha":785,"x_min":42,"x_max":688,"o":"m 146 583 l 42 583 l 42 667 l 146 667 l 146 814 q 214 977 146 921 q 385 1033 282 1033 q 483 1019 438 1033 l 483 933 q 408 947 450 947 q 293 912 333 947 q 253 808 253 876 l 253 667 l 581 667 l 581 957 l 688 957 l 688 0 l 581 0 l 581 583 l 253 583 l 253 0 l 146 0 l 146 583 z "},"ª":{"ha":586,"x_min":69,"x_max":517,"o":"m 257 485 q 122 527 174 485 q 69 643 69 569 q 121 763 69 721 q 263 806 172 806 q 433 764 360 806 l 433 806 q 398 895 433 868 q 283 922 363 922 q 128 892 196 922 l 128 961 q 203 983 158 974 q 292 992 249 992 q 461 942 406 992 q 517 801 517 892 l 517 500 l 439 500 l 439 551 q 364 501 408 518 q 257 485 319 485 m 274 551 q 371 572 329 551 q 433 629 413 592 l 433 697 q 274 739 363 739 q 183 715 211 739 q 154 643 154 692 q 274 551 154 551 z "},"º":{"ha":668,"x_min":69,"x_max":599,"o":"m 335 483 q 143 553 217 483 q 69 738 69 622 q 143 922 69 851 q 335 992 217 992 q 472 960 411 992 q 565 870 532 928 q 599 738 599 813 q 525 553 599 622 q 335 483 451 483 m 335 558 q 460 608 413 558 q 508 738 508 657 q 460 868 508 819 q 335 917 413 917 q 208 868 256 917 q 160 738 160 819 q 208 608 160 657 q 335 558 257 558 z "},"ⁿ":{"ha":617,"x_min":76,"x_max":547,"o":"m 76 971 l 160 971 l 160 900 q 246 969 196 947 q 351 992 296 992 q 498 942 449 992 q 547 811 547 893 l 547 500 l 461 500 l 461 794 q 431 889 461 856 q 333 922 401 922 q 161 824 225 922 l 161 500 l 76 500 l 76 971 z "},"Δ":{"ha":951,"x_min":69,"x_max":882,"o":"m 69 83 l 424 992 l 528 992 l 882 83 l 882 0 l 69 0 l 69 83 m 778 92 l 475 869 l 172 92 l 778 92 z "},"Ω":{"ha":1142,"x_min":69,"x_max":1072,"o":"m 69 92 l 285 92 q 128 263 185 160 q 71 500 71 365 q 133 752 71 640 q 308 928 194 864 q 571 992 422 992 q 833 928 719 992 q 1009 752 947 864 q 1071 500 1071 640 q 1014 263 1071 365 q 857 92 957 160 l 1072 92 l 1072 0 l 696 0 l 696 90 q 901 265 839 171 q 963 500 963 360 q 913 703 963 614 q 773 843 863 793 q 571 893 683 893 q 369 843 458 893 q 229 703 279 793 q 179 500 179 614 q 241 265 179 360 q 446 90 303 171 l 446 0 l 69 0 l 69 92 z "},"μ":{"ha":828,"x_min":97,"x_max":731,"o":"m 97 667 l 204 667 l 204 239 q 386 64 204 64 q 520 97 463 64 q 624 203 578 131 l 624 667 l 731 667 l 731 0 l 626 0 l 626 100 q 374 -21 536 -21 q 204 22 271 -21 l 204 -304 l 97 -304 l 97 667 z "},"π":{"ha":971,"x_min":56,"x_max":915,"o":"m 815 -21 q 659 37 706 -21 q 613 204 613 94 l 613 575 l 306 575 l 306 0 l 197 0 l 197 575 l 56 575 l 56 667 l 861 667 l 861 575 l 721 575 l 721 194 q 747 95 721 126 q 838 64 774 64 q 915 78 882 64 l 915 -8 q 815 -21 874 -21 z "},"ก":{"ha":876,"x_min":69,"x_max":779,"o":"m 139 472 l 69 582 q 231 717 139 671 q 449 764 322 764 q 694 690 610 764 q 779 483 779 617 l 779 0 l 672 0 l 672 474 q 616 628 672 578 q 449 678 560 678 q 299 652 363 678 q 185 569 235 626 l 246 474 l 246 0 l 139 0 l 139 472 z "},"ถ":{"ha":876,"x_min":69,"x_max":779,"o":"m 272 0 q 173 36 207 0 q 139 136 139 72 l 139 472 l 69 582 q 231 717 139 671 q 449 764 322 764 q 694 690 610 764 q 779 483 779 617 l 779 0 l 672 0 l 672 474 q 616 628 672 578 q 449 678 560 678 q 301 653 363 678 q 185 569 239 628 l 246 474 l 246 163 q 262 106 246 122 q 317 90 278 90 l 397 90 l 397 0 l 272 0 z "},"ภ":{"ha":910,"x_min":69,"x_max":813,"o":"m 69 90 l 132 90 q 186 105 172 90 q 200 163 200 119 l 200 472 l 103 582 q 263 717 171 671 q 482 764 356 764 q 728 690 643 764 q 813 483 813 617 l 813 0 l 706 0 l 706 474 q 482 678 706 678 q 334 653 396 678 q 221 572 272 628 l 307 475 l 307 136 q 273 36 307 72 q 174 0 239 0 l 69 0 l 69 90 z "},"ฤ":{"ha":876,"x_min":69,"x_max":779,"o":"m 672 474 q 616 628 672 578 q 449 678 560 678 q 301 653 363 678 q 185 569 239 628 l 246 474 l 246 163 q 262 106 246 122 q 317 90 278 90 l 397 90 l 397 0 l 272 0 q 173 36 207 0 q 139 136 139 72 l 139 472 l 69 582 q 231 717 139 671 q 449 764 322 764 q 694 690 610 764 q 779 483 779 617 l 779 -272 l 672 -272 l 672 474 z "},"ฦ":{"ha":910,"x_min":69,"x_max":813,"o":"m 706 474 q 482 678 706 678 q 334 653 396 678 q 221 572 272 628 l 307 475 l 307 136 q 273 36 307 72 q 174 0 239 0 l 69 0 l 69 90 l 132 90 q 186 105 172 90 q 200 163 200 119 l 200 472 l 103 582 q 263 717 171 671 q 482 764 356 764 q 728 690 643 764 q 813 483 813 617 l 813 -272 l 706 -272 l 706 474 z "},"ฎ":{"ha":910,"x_min":69,"x_max":813,"o":"m 267 -219 q 360 -164 299 -186 q 485 -142 422 -142 q 706 -204 617 -142 l 706 474 q 482 678 706 678 q 334 653 396 678 q 221 572 272 628 l 307 475 l 307 136 q 273 36 307 72 q 174 0 239 0 l 69 0 l 69 90 l 132 90 q 186 105 172 90 q 200 163 200 119 l 200 472 l 103 582 q 263 717 171 671 q 482 764 356 764 q 728 690 643 764 q 813 483 813 617 l 813 -307 l 715 -307 q 603 -246 657 -264 q 485 -228 550 -228 q 365 -250 424 -228 q 267 -314 307 -272 l 267 -219 z "},"ฏ":{"ha":910,"x_min":69,"x_max":813,"o":"m 319 -311 q 241 -301 279 -311 q 179 -272 203 -290 l 179 -187 q 242 -215 207 -206 q 314 -225 278 -225 q 467 -108 440 -225 l 535 -108 l 706 -210 l 706 474 q 482 678 706 678 q 334 653 396 678 q 221 572 272 628 l 307 475 l 307 136 q 273 36 307 72 q 174 0 239 0 l 69 0 l 69 90 l 132 90 q 186 105 172 90 q 200 163 200 119 l 200 472 l 103 582 q 263 717 171 671 q 482 764 356 764 q 728 690 643 764 q 813 483 813 617 l 813 -307 l 710 -307 l 518 -193 q 319 -311 469 -311 z "},"ญ":{"ha":1388,"x_min":69,"x_max":1304,"o":"m 976 -136 q 834 -119 906 -136 q 722 -76 763 -103 l 722 14 q 842 -34 776 -18 q 976 -50 908 -50 q 1144 -19 1083 -50 q 1206 72 1206 11 q 1172 151 1206 118 q 968 96 1088 96 q 725 175 806 96 q 644 393 644 254 l 644 474 q 592 628 644 579 q 435 678 540 678 q 296 653 354 678 q 185 569 238 628 l 246 474 l 246 163 q 262 106 246 122 q 317 90 278 90 l 397 90 l 397 0 l 272 0 q 173 36 207 0 q 139 136 139 72 l 139 472 l 69 582 q 227 718 140 672 q 435 764 314 764 q 670 690 590 764 q 750 483 750 617 l 750 392 q 803 235 750 290 q 968 181 856 181 q 1131 238 1078 181 q 1185 397 1185 296 l 1185 743 l 1292 743 l 1292 393 q 1239 213 1292 286 q 1288 149 1272 183 q 1304 72 1304 115 q 1215 -83 1304 -29 q 976 -136 1125 -136 z "},"ข":{"ha":789,"x_min":69,"x_max":692,"o":"m 385 -21 q 159 55 242 -21 q 76 257 76 131 l 76 317 q 97 400 76 361 q 154 492 117 439 q 196 553 182 529 q 210 601 210 578 q 196 645 210 633 q 146 657 182 657 l 69 657 l 69 743 l 190 743 q 283 708 249 743 q 317 615 317 674 q 300 545 317 578 q 249 464 283 513 q 199 388 215 419 q 183 322 183 357 l 183 253 q 235 114 183 163 q 385 65 286 65 q 535 114 485 65 q 585 254 585 163 l 585 743 l 692 743 l 692 274 q 611 57 692 135 q 385 -21 531 -21 z "},"ฃ":{"ha":793,"x_min":69,"x_max":696,"o":"m 389 -21 q 163 53 246 -21 q 81 251 81 126 l 81 319 q 103 401 81 363 q 171 493 126 440 q 217 554 203 532 q 232 597 232 576 l 232 601 q 164 585 201 585 q 94 610 118 585 q 69 683 69 635 l 69 743 l 150 743 l 150 696 q 161 662 150 672 q 199 651 172 651 q 250 669 226 651 l 250 743 l 335 743 l 335 621 q 315 544 335 581 q 257 457 296 508 q 205 383 222 414 q 188 319 188 351 l 188 251 q 239 114 188 163 q 389 65 290 65 q 539 114 489 65 q 589 254 589 163 l 589 743 l 696 743 l 696 274 q 615 57 696 135 q 389 -21 535 -21 z "},"ช":{"ha":808,"x_min":69,"x_max":725,"o":"m 393 -21 q 228 14 300 -21 q 116 111 156 49 q 76 257 76 174 l 76 317 q 97 400 76 361 q 154 492 117 439 q 196 553 182 529 q 210 601 210 578 q 196 645 210 633 q 146 657 182 657 l 69 657 l 69 743 l 190 743 q 283 708 249 743 q 317 615 317 674 q 300 545 317 578 q 249 464 283 513 q 199 388 215 419 q 183 322 183 357 l 183 253 q 239 115 183 164 q 393 65 294 65 q 557 121 496 65 q 618 288 618 176 q 572 449 618 393 q 439 504 526 504 l 439 565 l 593 764 l 711 764 l 550 557 q 725 288 725 504 q 633 60 725 142 q 393 -21 542 -21 z "},"ซ":{"ha":813,"x_min":69,"x_max":729,"o":"m 397 -21 q 231 13 303 -21 q 120 108 160 46 q 81 251 81 169 l 81 319 q 103 401 81 363 q 171 493 126 440 q 217 554 203 532 q 232 597 232 576 l 232 601 q 164 585 201 585 q 94 610 118 585 q 69 683 69 635 l 69 743 l 150 743 l 150 696 q 161 662 150 672 q 199 651 172 651 q 250 669 226 651 l 250 743 l 335 743 l 335 621 q 315 544 335 581 q 257 457 296 508 q 205 383 222 414 q 188 319 188 351 l 188 251 q 243 115 188 164 q 397 65 299 65 q 561 121 500 65 q 622 288 622 176 q 576 449 622 393 q 443 504 531 504 l 443 565 l 597 764 l 715 764 l 554 557 q 729 288 729 504 q 638 60 729 142 q 397 -21 546 -21 z "},"ค":{"ha":875,"x_min":97,"x_max":778,"o":"m 97 469 q 188 687 97 610 q 438 764 279 764 q 688 687 597 764 q 778 469 778 610 l 778 0 l 671 0 l 671 474 q 609 627 671 576 q 438 678 547 678 q 266 627 328 678 q 204 474 204 576 l 204 311 q 267 370 225 347 q 367 393 310 393 l 476 393 l 476 307 l 357 307 q 280 285 315 307 q 224 228 244 263 q 204 158 204 194 l 204 0 l 97 0 l 97 469 z "},"ฅ":{"ha":875,"x_min":97,"x_max":778,"o":"m 97 504 q 138 696 97 628 q 286 764 179 764 q 379 740 340 764 q 436 674 418 717 q 495 740 456 717 q 589 764 535 764 q 738 697 697 764 q 778 504 778 629 l 778 0 l 671 0 l 671 540 q 649 644 671 611 q 572 678 628 678 q 506 656 531 678 q 471 585 482 633 l 403 585 q 369 656 392 633 q 303 678 346 678 q 226 644 247 678 q 204 542 204 611 l 204 311 q 267 370 225 347 q 367 393 310 393 l 476 393 l 476 307 l 357 307 q 280 285 315 307 q 224 230 244 264 q 204 158 204 196 l 204 0 l 97 0 l 97 504 z "},"ศ":{"ha":885,"x_min":97,"x_max":822,"o":"m 97 469 q 188 687 97 610 q 438 764 279 764 q 635 722 551 764 l 703 799 l 822 799 l 706 668 q 778 469 778 593 l 778 0 l 671 0 l 671 474 q 609 627 671 576 q 438 678 547 678 q 266 627 328 678 q 204 474 204 576 l 204 311 q 267 370 225 347 q 367 393 310 393 l 476 393 l 476 307 l 357 307 q 280 285 315 307 q 224 228 244 263 q 204 158 204 194 l 204 0 l 97 0 l 97 469 z "},"ด":{"ha":924,"x_min":69,"x_max":826,"o":"m 419 -21 q 236 23 315 -21 q 113 151 157 67 q 69 358 69 236 q 174 657 69 550 q 465 764 279 764 q 741 674 656 764 q 826 449 826 585 l 826 0 l 719 0 l 719 450 q 465 678 719 678 q 253 597 329 678 q 176 358 176 515 q 246 140 176 215 q 435 65 315 65 q 533 78 486 65 l 533 -7 q 419 -21 488 -21 z "},"ต":{"ha":924,"x_min":69,"x_max":826,"o":"m 419 -21 q 236 23 315 -21 q 113 151 157 67 q 69 358 69 236 q 102 575 69 483 q 193 715 135 667 q 326 764 251 764 q 474 674 433 764 q 542 741 496 718 q 644 764 588 764 q 781 705 736 764 q 826 547 826 646 l 826 0 l 719 0 l 719 540 q 697 644 719 610 q 621 678 674 678 q 508 585 531 678 l 439 585 q 407 656 429 633 q 342 678 385 678 q 223 594 269 678 q 176 358 176 511 q 246 140 176 215 q 435 65 315 65 q 533 78 486 65 l 533 -7 q 419 -21 488 -21 z "},"ท":{"ha":863,"x_min":97,"x_max":765,"o":"m 97 743 l 201 743 l 201 635 q 332 732 256 700 q 488 764 408 764 q 693 692 621 764 q 765 504 765 619 l 765 0 l 658 0 l 658 499 q 610 631 658 583 q 463 678 561 678 q 204 539 294 678 l 204 0 l 97 0 l 97 743 z "},"ฑ":{"ha":857,"x_min":69,"x_max":760,"o":"m 97 319 q 117 401 97 363 q 176 493 138 440 q 217 553 204 529 q 231 597 231 576 l 231 601 q 163 585 200 585 q 93 610 117 585 q 69 683 69 635 l 69 743 l 150 743 l 150 696 q 161 662 150 672 q 199 651 172 651 q 250 669 226 651 l 250 743 l 335 743 l 335 676 q 428 742 372 719 q 546 764 483 764 q 760 521 760 764 l 760 0 l 653 0 l 653 531 q 622 641 653 604 q 524 678 590 678 q 413 654 461 678 q 325 576 364 631 q 303 521 318 546 q 263 457 289 496 q 218 384 232 413 q 204 319 204 356 l 204 0 l 97 0 l 97 319 z "},"น":{"ha":863,"x_min":97,"x_max":765,"o":"m 383 -21 q 172 51 247 -21 q 97 244 97 124 l 97 743 l 204 743 l 204 249 q 256 112 204 158 q 408 65 307 65 q 658 207 567 65 l 658 743 l 765 743 l 765 0 l 661 0 l 661 110 q 542 11 610 43 q 383 -21 474 -21 z "},"ม":{"ha":863,"x_min":97,"x_max":765,"o":"m 479 -21 q 201 110 310 -21 l 201 0 l 97 0 l 97 743 l 204 743 l 204 207 q 454 65 296 65 q 607 112 556 65 q 658 249 658 158 l 658 743 l 765 743 l 765 244 q 690 51 765 124 q 479 -21 615 -21 z "},"ฌ":{"ha":1381,"x_min":69,"x_max":1283,"o":"m 1011 -21 q 869 10 939 -21 q 747 107 800 42 l 747 0 l 644 0 l 644 474 q 592 628 644 579 q 435 678 540 678 q 296 653 354 678 q 185 569 238 628 l 246 474 l 246 163 q 262 106 246 122 q 317 90 278 90 l 397 90 l 397 0 l 272 0 q 173 36 207 0 q 139 136 139 72 l 139 472 l 69 582 q 227 718 140 672 q 435 764 314 764 q 670 690 590 764 q 750 483 750 617 l 750 207 q 857 100 796 135 q 986 65 918 65 q 1176 249 1176 65 l 1176 743 l 1283 743 l 1283 244 q 1213 51 1283 124 q 1011 -21 1142 -21 z "},"ณ":{"ha":1381,"x_min":69,"x_max":1283,"o":"m 917 -21 q 715 51 786 -21 q 644 244 644 124 l 644 474 q 592 628 644 579 q 435 678 540 678 q 296 653 354 678 q 185 569 238 628 l 246 474 l 246 163 q 262 106 246 122 q 317 90 278 90 l 397 90 l 397 0 l 272 0 q 173 36 207 0 q 139 136 139 72 l 139 472 l 69 582 q 227 718 140 672 q 435 764 314 764 q 670 690 590 764 q 750 483 750 617 l 750 249 q 942 65 750 65 q 1176 207 1085 65 l 1176 743 l 1283 743 l 1283 0 l 1181 0 l 1181 107 q 917 -21 1082 -21 z "},"ฒ":{"ha":1435,"x_min":69,"x_max":1338,"o":"m 419 -21 q 236 23 315 -21 q 113 151 157 67 q 69 358 69 236 q 100 576 69 485 q 187 715 131 667 q 318 764 243 764 q 408 741 374 764 q 464 674 443 718 q 528 741 486 718 q 628 764 571 764 q 762 706 719 764 q 804 547 804 647 l 804 207 q 911 100 850 135 q 1040 65 972 65 q 1231 249 1231 65 l 1231 743 l 1338 743 l 1338 244 q 1267 51 1338 124 q 1065 -21 1196 -21 q 924 10 993 -21 q 801 107 854 42 l 801 0 l 699 0 l 699 540 q 678 644 699 611 q 604 678 657 678 q 535 655 561 678 q 499 585 510 632 l 429 585 q 338 678 411 678 q 211 579 246 678 q 176 358 176 481 q 245 140 176 215 q 435 65 314 65 q 533 78 490 65 l 533 -7 q 419 -21 488 -21 z "}}}
